<?xml version="1.0" encoding="UTF-8" standalone="no"?>
<svg
   version="1.1"
   viewBox="-5 -10 30.899993 30.899994"
   id="svg3"
   xml:space="preserve"
   width="30.899992"
   height="30.899994"
   xmlns="http://www.w3.org/2000/svg"
   xmlns:svg="http://www.w3.org/2000/svg"><defs
     id="defs3" /><circle
     style="fill:#89abb7;fill-opacity:1;stroke:#ffffff;stroke-width:0.9;stroke-linejoin:bevel;stroke-dasharray:none;stroke-opacity:1"
     id="circle34"
     cx="10.450001"
     cy="5.4499969"
     r="15" /><path
     style="color:#000000;fill:#ffffff;fill-rule:evenodd;-inkscape-stroke:none"
     d="m 8.284329,8.7509086 h 4.14258 c 0.0509,0 0.0879,0.0386 0.0879,0.08789 v 1.5058594 c 0,0.05088 -0.0371,0.08984 -0.0879,0.08984 h -4.14258 c -0.0493,0 -0.0879,-0.039 -0.0879,-0.08984 V 8.8387986 c 0,-0.04933 0.0386,-0.08789 0.0879,-0.08789 z"
     id="path82" /><path
     style="color:#000000;fill:#ffffff;fill-rule:evenodd;-inkscape-stroke:none"
     d="m 8.284329,8.5516906 c -0.15774,0 -0.28711,0.12932 -0.28711,0.287109 v 1.5058594 c 0,0.158236 0.12932,0.289063 0.28711,0.289063 h 4.14258 c 0.15823,0 0.28906,-0.130782 0.28906,-0.289063 V 8.8387996 c 0,-0.157744 -0.13079,-0.287109 -0.28906,-0.287109 z"
     id="path81" /><path
     style="color:#000000;fill:#ffffff;fill-rule:evenodd;-inkscape-stroke:none"
     d="m 8.284329,8.3739556 h 4.14258 c 0.2575,0 0.46484,0.207553 0.46484,0.464844 v 1.5058594 c 0,0.258479 -0.20733,0.464844 -0.46484,0.464844 h -4.14258 c -0.2575,0 -0.46289,-0.206142 -0.46289,-0.464844 V 8.8387996 c 0,-0.257495 0.20538,-0.464844 0.46289,-0.464844 z"
     id="path80" /><path
     style="color:#000000;fill:#ffffff;fill-rule:evenodd;-inkscape-stroke:none"
     d="m 8.284329,8.1747376 c -0.36565,0 -0.66406,0.298418 -0.66406,0.664062 v 1.5058594 c 0,0.366499 0.29842,0.666016 0.66406,0.666016 h 4.14258 c 0.36565,0 0.66406,-0.299315 0.66406,-0.666016 V 8.8387996 c 0,-0.365868 -0.29842,-0.664062 -0.66406,-0.664062 z"
     id="path79" /><path
     style="color:#000000;fill:#ffffff;fill-rule:evenodd;-inkscape-stroke:none"
     d="m 7.946439,-1.7920594 h 4.81836 c 0.38054,0.08206 0.67499,0.305238 0.84375,0.623047 0.17091,0.32312296 0.21799,0.75520496 0.0508,1.25585896 -0.0872,0.263501 -0.18602,0.472798 -0.2793,0.654297 -0.0261,0.05027 -0.052,0.09829 -0.0781,0.146484 v 0.002 c -0.0649,0.12274704 -0.12837,0.24136104 -0.17578,0.35546904 -0.0698,0.16739 -0.11859,0.354077 -0.0879,0.564453 0.0306,0.205486 0.12987,0.403283 0.28711,0.613281 0.25102,0.334698 0.37641,0.659523 0.4414,1.072266 0.065,0.412743 0.0664,0.912521 0.0664,1.578125 V 15.239238 c 0,0.466578 -0.37619,0.841797 -0.8418,0.841797 h -5.27148 c -0.46573,0 -0.8418,-0.374241 -0.8418,-0.839844 V 5.0731736 c 0,-0.665677 0.002,-1.165375 0.0664,-1.578125 0.0648,-0.412749 0.19045,-0.737648 0.4414,-1.072266 0.15711,-0.209819 0.25747,-0.407034 0.28711,-0.613281 0.0306,-0.210014 -0.016,-0.39673 -0.0859,-0.564453 l -0.002,-0.002 c -0.0482,-0.113568 -0.11094,-0.230812 -0.17578,-0.35351604 v -0.002 c -0.0261,-0.04826 -0.0515,-0.09716 -0.0762,-0.146484 -0.0933,-0.181515 -0.19306,-0.390624 -0.28125,-0.654297 -0.16622,-0.500717 -0.11822,-0.932716 0.0527,-1.25585896 0.16765,-0.317508 0.46226,-0.540988 0.8418,-0.623047 z"
     id="path78" /><path
     style="color:#000000;fill:#ffffff;fill-rule:evenodd;-inkscape-stroke:none"
     d="m 7.917139,-1.9932314 -0.01,0.002 c -0.43499,0.09308 -0.78521,0.358712 -0.98047,0.728516 -0.19846,0.37513596 -0.24525,0.86748696 -0.0645,1.41210896 v 0.002 c 0.0924,0.276266 0.1955,0.495776 0.29101,0.681641 0.0258,0.05152 0.0538,0.101729 0.0801,0.15039 0.065,0.12291704 0.12485,0.23631904 0.16797,0.33789104 0.0621,0.148917 0.0964,0.293479 0.0723,0.458984 -0.0232,0.161153 -0.10272,0.329358 -0.24804,0.523438 -0.26968,0.359582 -0.41008,0.723911 -0.47852,1.160156 -0.0684,0.436245 -0.0684,0.943394 -0.0684,1.609375 V 15.241238 c 0,0.573675 0.46748,1.041015 1.04102,1.041015 h 5.27148 c 0.57368,0 1.04297,-0.468267 1.04297,-1.042968 V 5.0731736 c 0,-0.665954 -0.002,-1.173126 -0.0703,-1.609375 -0.0687,-0.436248 -0.2088,-0.800544 -0.47852,-1.160156 -0.1452,-0.193921 -0.2239,-0.361544 -0.24804,-0.523438 -0.0241,-0.165143 0.01,-0.309715 0.0723,-0.458984 0.042,-0.101052 0.10299,-0.215038 0.16797,-0.33789104 0.0267,-0.0492 0.0534,-0.09908 0.0801,-0.15039 0.0953,-0.185431 0.1997,-0.406144 0.29101,-0.681641 v -0.001953 c 0.18103,-0.543792 0.13369,-1.037511 -0.0644,-1.41210896 -0.19618,-0.369443 -0.54446,-0.635461 -0.98047,-0.728516 l -0.01,-0.002 z"
     id="path77" /><path
     style="color:#000000;fill:#ffffff;fill-rule:evenodd;-inkscape-stroke:none"
     d="m 12.903469,-3.2979194 h 0.17578 v 0.927735 h -0.17578 z"
     id="path76" /><path
     style="color:#000000;fill:#ffffff;fill-rule:evenodd;-inkscape-stroke:none"
     d="m 12.149569,-3.2979194 h 0.17773 v 0.927735 h -0.17773 z"
     id="path75" /><path
     style="color:#000000;fill:#ffffff;fill-rule:evenodd;-inkscape-stroke:none"
     d="m 11.397609,-3.2979194 h 0.17578 v 0.927735 h -0.17578 z"
     id="path74" /><path
     style="color:#000000;fill:#ffffff;fill-rule:evenodd;-inkscape-stroke:none"
     d="m 10.643709,-3.2979194 h 0.17578 v 0.927735 h -0.17578 z"
     id="path73" /><path
     style="color:#000000;fill:#ffffff;fill-rule:evenodd;-inkscape-stroke:none"
     d="m 9.891749,-3.2979194 h 0.17578 v 0.927735 h -0.17578 z"
     id="path72" /><path
     style="color:#000000;fill:#ffffff;fill-rule:evenodd;-inkscape-stroke:none"
     d="m 9.137849,-3.2979194 h 0.17578 v 0.927735 h -0.17578 z"
     id="path71" /><path
     style="color:#000000;fill:#ffffff;fill-rule:evenodd;-inkscape-stroke:none"
     d="m 8.383939,-3.2979194 h 0.17774 v 0.927735 h -0.17774 z"
     id="path70" /><path
     style="color:#000000;fill:#ffffff;fill-rule:evenodd;-inkscape-stroke:none"
     d="m 7.631989,-3.2979194 h 0.17578 v 0.927735 h -0.17578 z"
     id="path69" /><path
     style="color:#000000;fill:#ffffff;fill-rule:evenodd;-inkscape-stroke:none"
     d="m 12.702299,-3.4990914 v 1.330079 h 0.10156 0.47657 v -1.330079 z"
     id="path68" /><path
     style="color:#000000;fill:#ffffff;fill-rule:evenodd;-inkscape-stroke:none"
     d="m 11.950349,-3.4990914 v 1.330079 h 0.57617 v -1.330079 h -0.0996 z"
     id="path67" /><path
     style="color:#000000;fill:#ffffff;fill-rule:evenodd;-inkscape-stroke:none"
     d="m 11.196439,-3.4990914 v 1.330079 h 0.57617 v -1.330079 h -0.0996 z"
     id="path66" /><path
     style="color:#000000;fill:#ffffff;fill-rule:evenodd;-inkscape-stroke:none"
     d="m 10.444489,-3.4990914 v 1.330079 h 0.57617 v -0.09961 -1.230469 z"
     id="path65" /><path
     style="color:#000000;fill:#ffffff;fill-rule:evenodd;-inkscape-stroke:none"
     d="m 9.690579,-3.4990914 v 1.330079 h 0.57617 v -0.09961 -1.230469 z"
     id="path64" /><path
     style="color:#000000;fill:#ffffff;fill-rule:evenodd;-inkscape-stroke:none"
     d="m 8.938629,-3.4990914 v 1.330079 h 0.57617 v -0.09961 -1.230469 z"
     id="path63" /><path
     style="color:#000000;fill:#ffffff;fill-rule:evenodd;-inkscape-stroke:none"
     d="m 8.184719,-3.4990914 v 1.330079 h 0.0996 0.47656 v -1.330079 z"
     id="path62" /><path
     style="color:#000000;fill:#ffffff;fill-rule:evenodd;-inkscape-stroke:none"
     d="m 7.430819,-3.4990914 v 1.330079 h 0.57812 v -1.330079 h -0.10156 z"
     id="path61" /><path
     style="color:#000000;fill:#ffffff;fill-rule:evenodd;-inkscape-stroke:none"
     d="m 13.381989,-3.8623724 h 0.17383 c 0.2575,0 0.46484,0.20561 0.46484,0.462891 v 0.189453 c 0,0.202327 -0.18509,0.301234 -0.36523,0.365234 v -0.742187 c 0,-0.150769 -0.12591,-0.263813 -0.27344,-0.275391 z"
     id="path60" /><path
     style="color:#000000;fill:#ffffff;fill-rule:evenodd;-inkscape-stroke:none"
     d="m 8.573389,-4.0518254 h 3.56446 v 0.175781 h -3.56446 z"
     id="path59" /><path
     style="color:#000000;fill:#ffffff;fill-rule:evenodd;-inkscape-stroke:none"
     d="m 12.514799,-4.0635454 v 0.388672 h 0.85352 c 0.0493,0 0.0879,0.03701 0.0879,0.08789 v 1.041015 h 0.0996 c 0.0549,0 0.0485,-0.08699 0.0996,-0.09961 0.28994,-0.07164 0.5664,-0.253568 0.5664,-0.564453 v -0.189453 c 0,-0.365858 -0.30036,-0.664063 -0.66601,-0.664063 z"
     id="path58" /><path
     style="color:#000000;fill:#ffffff;fill-rule:evenodd;-inkscape-stroke:none"
     d="m 8.374179,-4.2510454 v 0.576172 h 3.96484 v -0.09961 -0.476563 z"
     id="path57" /><path
     style="color:#000000;fill:#ffffff;fill-rule:evenodd;-inkscape-stroke:none"
     d="m 9.973779,-4.8154984 v 0.09961 0.287109 h 0.76368 v -0.386719 z"
     id="path56" /><path
     style="color:#000000;fill:#ffffff;fill-rule:evenodd;-inkscape-stroke:none"
     d="m 9.503079,-5.3819044 v 0.09961 0.289063 h 1.70703 v -0.388673 z"
     id="path55" /><path
     style="color:#000000;fill:#ffffff;fill-rule:evenodd;-inkscape-stroke:none"
     d="m 9.415179,-5.7588574 c -0.15778,0 -0.28906,0.130827 -0.28906,0.289062 l 0.006,0.564371 0.19531,-0.564371 c 0,0 0.0385,-0.08789 0.0879,-0.08789 h 1.88086 c 0.0508,0 0.0898,0.03703 0.0898,0.08789 v 0.564453 c 0,0.05083 -0.039,0.08984 -0.0898,0.08984 h -0.38086 v 0.386719 h 1.51172 c 0.0508,0 0.0879,0.03898 0.0879,0.08984 v 0.09961 h 1.04102 c 0.46559,0 0.84179,0.374381 0.84179,0.839844 v 0.189453 c 0,0.465592 -0.37509,0.839844 -0.84179,0.839844 h -0.0996 v 0.289062 c 0,0.01906 -0.006,0.03717 -0.0156,0.05078 l -0.0566,0.08008 0.0801,0.05859 c 0.19775,0.142345 0.35987,0.327794 0.47656,0.546875 0.22475,0.42560896 0.27172,0.96616396 0.0762,1.55078196 -0.0952,0.288753 -0.20434,0.515272 -0.30273,0.707031 -0.0321,0.06214 -0.0623,0.11789504 -0.0898,0.16992204 h 0.002 c -0.0611,0.11398 -0.11144,0.209766 -0.15235,0.30664 -0.0544,0.131558 -0.0799,0.248137 -0.0625,0.365235 0.0174,0.120684 0.0799,0.25882 0.2168,0.441406 0.58346,0.777961 0.58203,1.555259 0.58203,2.835937 V 15.23918 c 0,0.674672 -0.54508,1.21875 -1.21875,1.21875 h -5.27148 c -0.67268,0 -1.21875,-0.543221 -1.21875,-1.216797 V 5.0321576 c 0,-1.280808 -4.3e-4,-2.058124 0.58203,-2.835937 0.13772,-0.182222 0.19924,-0.321645 0.2168,-0.441406 v -0.002 c 0.0168,-0.115825 -0.007,-0.231748 -0.0625,-0.363282 h 0.002 c -0.0404,-0.09802 -0.0927,-0.191448 -0.15234,-0.304687 v -0.002 c -0.0276,-0.05221 -0.0579,-0.10793104 -0.0899,-0.16992204 -0.0984,-0.191729 -0.20641,-0.418082 -0.30273,-0.707031 -0.19461,-0.584781 -0.14944,-1.125369 0.0762,-1.55078196 0.11562,-0.218827 0.27789,-0.40454 0.47656,-0.546875 l 0.0801,-0.05664 -0.0566,-0.08203 c -0.0104,-0.01485 -0.0156,-0.03343 -0.0156,-0.05078 v -1.505859 c 0,-0.05083 0.037,-0.08789 0.0879,-0.08789 h 0.85351 v -0.664062 c 0,-0.05083 0.0386,-0.08984 0.0879,-0.08984 h 1.51172 v -0.386719 h -0.38086 c -0.0493,0 -0.0879,-0.03897 -0.0879,-0.08984 v -0.565173 l -0.19567,0.565173 c 0,0.151853 0.12281,0.267354 0.27184,0.277344 h -1.11914 c -0.15779,0 -0.28711,0.130832 -0.28711,0.289063 v 0.46289 h -0.65429 c -0.15828,0 -0.28711,0.130832 -0.28711,0.289063 v 1.505859 c 0,0.03134 0.018,0.05594 0.0273,0.08398 -0.19624,0.153513 -0.37021,0.335126 -0.48828,0.558593 -0.25339,0.47780596 -0.29918,1.07799396 -0.0899,1.70703196 0.10058,0.30171 0.21387,0.540377 0.31446,0.73632804 0.0329,0.06387 0.0646,0.120484 0.0918,0.171875 0.0601,0.114081 0.10775,0.204486 0.14258,0.289062 v 0.002 c 0.0478,0.113379 0.0599,0.183442 0.0488,0.257813 -0.0111,0.07685 -0.0521,0.183342 -0.17773,0.349609 v 0.002 h -0.002 c -0.6212,0.829545 -0.62109,1.67427 -0.62109,2.955078 V 15.24115 c 0,0.781802 0.63729,1.416015 1.41797,1.416015 h 5.27148 c 0.78171,1e-6 1.41797,-0.635222 1.41797,-1.417968 V 5.0321576 c 0,-1.280678 0.001,-2.1254 -0.62109,-2.955078 -0.12487,-0.166513 -0.16871,-0.275447 -0.17969,-0.351562 -0.0109,-0.07315 0.002,-0.145199 0.0488,-0.257813 v -0.002 c 0.0361,-0.08537 0.0841,-0.174362 0.14453,-0.287109 v -0.002 c 0.0273,-0.05149 0.057,-0.108217 0.0898,-0.171875 0.10053,-0.19592104 0.21489,-0.43442304 0.31446,-0.73632804 0.21045,-0.629182 0.16435,-1.229362 -0.0879,-1.70703196 h -0.002 c -0.1189,-0.223237 -0.29098,-0.405155 -0.48633,-0.558593 0.009,-0.02804 0.0254,-0.05359 0.0254,-0.08398 v -0.128906 c 0.52067,-0.05735 0.94335,-0.465108 0.94335,-1 v -0.189453 c 0,-0.573796 -0.4693,-1.041016 -1.04296,-1.041016 h -0.94141 c -0.0513,-0.08178 -0.0849,-0.1875 -0.1875,-0.1875 h -1.11914 c 0.14953,-0.01 0.27734,-0.125528 0.27734,-0.277344 v -0.564453 c 0,-0.158275 -0.13083,-0.289062 -0.28906,-0.289062 z"
     id="path37" /></svg>
