<?xml version="1.0" encoding="UTF-8" standalone="no"?>
<svg
   version="1.1"
   viewBox="-5 -10 30.899993 30.899994"
   id="svg3"
   xml:space="preserve"
   width="30.899992"
   height="30.899994"
   xmlns="http://www.w3.org/2000/svg"
   xmlns:svg="http://www.w3.org/2000/svg"><defs
     id="defs3" /><circle
     style="fill:#83c9c3;fill-opacity:1;stroke:#ffffff;stroke-width:0.9;stroke-linejoin:bevel;stroke-dasharray:none;stroke-opacity:1"
     id="circle33"
     cx="10.450001"
     cy="5.4500051"
     r="15" /><g
     id="g41"
     style="fill:#ffffff;fill-opacity:1"
     transform="matrix(0.40779294,0,0,0.40779294,0.68797904,-5.861626)"><path
       d="m 9.5656128,32.215866 c 1.0999752,0 2.0000002,-0.890017 2.0000002,-2.000002 0,-0.850036 -1.190003,-2.690002 -1.7400515,-3.490051 -0.1300049,-0.190003 -0.3999634,-0.190003 -0.5299683,0 -0.539978,0.800049 -1.7299805,2.640014 -1.7299805,3.490051 1e-7,1.109985 0.8899537,2.000002 2.0000001,2.000002 z"
       id="path38"
       style="fill:#ffffff;fill-opacity:1" /><path
       d="m 50.165588,25.04582 c -0.390014,1.480042 -1.340027,2.710022 -2.659973,3.480042 -2.730041,1.589966 -6.210022,0.669983 -7.810058,-2.040039 0,0 0,0 -0.0099,-0.01996 -0.01001,0 -0.01001,-0.01001 -0.01001,-0.01001 C 39.205566,25.635847 28.325562,6.9558543 28.275574,6.8558177 27.235596,5.0758494 24.945557,4.4758128 23.175598,5.5058421 21.635559,6.4058665 20.885559,9.4058665 21.595581,11.325849 h 5.479981 c 0.630004,0 1.150024,0.609986 1.150024,1.380005 0,0.75 -0.52002,1.380005 -1.150024,1.380005 H 26.395569 V 25.345808 H 16.62561 v -4.73999 h -4.470031 c -0.349976,0 -0.630005,0.280029 -0.630005,0.630005 v 1.920044 c 0,0.139953 -0.109986,0.25 -0.25,0.25 h -3.26001 c -0.1399536,0 -0.25,-0.110047 -0.25,-0.25 v -3.490052 c 0,-1.559997 1.2600098,-2.820007 2.820007,-2.820007 H 16.62561 V 14.08586 h -0.690002 c -0.619995,0 -1.140015,-0.630005 -1.140015,-1.380005 0,-0.770019 0.52002,-1.380005 1.140015,-1.380005 h 3.579956 c -0.679993,-2.7700191 0.420044,-6.2499996 2.650024,-7.5499874 2.729981,-1.5900269 6.25,-0.6600342 7.830018,2.0699463 8.399963,14.4300531 10.690002,18.3600461 11.21997,19.2800291 0,0 0.01001,0.02002 0.03003,0.04999 0.01996,0.04004 0.03998,0.08002 0.07001,0.109985 0.0099,0.02002 0.01996,0.04004 0.02997,0.06 0.01001,0.01001 0.01001,0.02002 0.01001,0.02002 0.02002,0.03003 0.02997,0.04999 0.04999,0.09003 1.039978,1.779969 3.320007,2.380005 5.100036,1.339966 0.859986,-0.5 1.469971,-1.299988 1.729981,-2.26001 0.25,-0.96997 0.119995,-1.96997 -0.390015,-2.829956 -0.270019,-0.480041 -0.109985,-1.090027 0.369995,-1.369995 0.470032,-0.280029 1.080017,-0.119995 1.359986,0.359986 0.770019,1.320006 0.980041,2.869994 0.590026,4.349974 z"
       id="path39"
       style="fill:#ffffff;fill-opacity:1" /><path
       d="m 16.62561,40.555832 c 0.03998,-0.01001 0.07996,-0.01001 0.119995,-0.01001 h 9.519959 c 0.04004,0 0.09003,0 0.130005,0.01001 V 27.345808 H 16.62561 Z"
       id="path40"
       style="fill:#ffffff;fill-opacity:1" /><path
       d="M 49.5,48.000839 H 29.450195 C 29.22168,47.548325 28.756775,47.237961 28.221558,47.237717 V 44.6931 c 0,-1.199158 -0.876282,-2.150757 -1.953797,-2.150757 h -9.52063 c -1.077636,0 -1.953918,0.951599 -1.953918,2.150757 v 2.544739 c -0.534668,7.93e-4 -0.998963,0.310913 -1.227295,0.763 H 3.5 c -0.5527344,0 -1,0.447754 -1,1 0,0.552246 0.4472656,1 1,1 10.786294,1.2e-5 35.212738,3.8e-5 46,0 0.552734,0 1,-0.447754 1,-1 0,-0.552246 -0.447266,-1 -1,-1 z"
       id="path41"
       style="fill:#ffffff;fill-opacity:1" /></g></svg>
