<?xml version="1.0" encoding="UTF-8" standalone="no"?>
<svg
   version="1.1"
   viewBox="-5 -10 30.899993 30.899994"
   id="svg3"
   xml:space="preserve"
   width="30.899992"
   height="30.899994"
   xmlns="http://www.w3.org/2000/svg"
   xmlns:svg="http://www.w3.org/2000/svg"><defs
     id="defs3" /><circle
     style="fill:#68abc7;fill-opacity:1;stroke:#ffffff;stroke-width:0.9;stroke-linejoin:bevel;stroke-dasharray:none;stroke-opacity:1"
     id="circle41"
     cx="10.450001"
     cy="5.4499974"
     r="15" /><path
     style="fill:#fffffd;fill-opacity:1;stroke:none;stroke-width:0.3;stroke-linejoin:bevel;stroke-dasharray:none;stroke-opacity:1"
     d="m 0.00437904,10.993485 v 0 l 0.59244,-0.63297 0.80077996,-0.0195 h 18.74219 l 0.45936,0.20726 0.17678,0.44194 -0.40532,0.21556 -0.54007,0.19033 -0.79286,2.34534 v 0 l -0.88099,0.85855 -0.50867,0.11221 -0.11559,0.66754 -14.1654,9e-4 -0.11571,-0.66844 v 0 l -0.63497,-0.28134 -0.0478,0.0825 -1.07949,-1.62185 -0.11878,-0.58956 -0.34912,-0.78141 -0.33698996,-0.37012 -0.52719,-0.0412 z"
     id="path100" /><path
     style="fill:#ffffff;fill-opacity:1;stroke:none;stroke-width:0.3;stroke-linejoin:bevel;stroke-dasharray:none;stroke-opacity:1"
     d="m 8.159319,10.341015 c 0,0 -0.15172,-0.3986603 -0.0658,-0.5431903 0.0859,-0.14453 0.57514,-0.49569 0.79389,-0.63241 0.21875,-0.13672 0.59771,-0.44989 0.61334,-0.73895 0.0156,-0.28906 -1e-4,-0.25857 -0.17984,-0.38748 -0.17969,-0.1289 -0.49451,-0.10575 -0.61169,-0.25807 -0.11719,-0.15234 -0.0425,-0.42499 -0.007,-0.53046 0.0352,-0.10546 -0.165,-0.0155 -0.42673,-0.0976 -0.26172,-0.082 -0.57317,-0.25219 -0.76067,-0.41235 -0.1875,-0.16015 -0.79252,-1.31803 -1.00013,-1.97799 -0.10898,-0.34644 -0.11227,-0.39964 -0.30758,-0.54807 -0.19532,-0.14844 -0.82091,-0.19382 -0.82091,-0.19382 0,0 0.0234,-0.40625 0.25782,-0.51172 0.23437,-0.10547 0.24609,-0.1914 0.68359,-0.16797 0.4375,0.0234 2.94141,0 2.94141,0 0,0 -0.2008,-0.41849 -0.14999,-0.59036 0.0508,-0.17188 0.64234,-0.79315 0.72437,-0.97675 0.082,-0.18359 0.0448,-0.24248 -0.002,-0.35966 -0.0469,-0.11719 -0.0908,-0.0296 -0.0908,-0.0296 0,0 -0.12214,-0.17644 -0.14558,-0.30926 -0.0234,-0.13280997 -0.0964,-0.27860997 -0.0456,-0.33329997 0.0508,-0.0547 -0.15901,-0.0394 -0.2762,-0.10971 -0.11719,-0.0703 -0.36183,-0.31197 -0.5337,-0.64009 -0.17188,-0.32813 -0.3714,-0.70958 -0.48077,-0.76818 -0.10938,-0.0586 -0.49374,-0.14432 -0.49374,-0.14432 0,0 0.23282,-0.59414003 0.42424,-0.69180003 0.11044,-0.20837 0.52296,-0.0921 0.71827,-0.0843 0.19532,0.008 0.51954,-9.2e-4 0.51954,-9.2e-4 0,0 0.36475,-0.30306 0.48194,-0.45931 0.11718,-0.15625 0.19601,-0.4116 0.19601,-0.4116 0,0 -0.0842,-0.25352 -0.0647,-0.36042 -0.0885,-10e-4 0.15625,-0.30859 0.15625,-0.30859 0,0 -0.0781,-0.26172 -0.20313,-0.39453 -0.125,-0.13282 -0.37109,-0.32422 -0.47656,-0.35938 -0.10547,-0.0352 -0.35547,-0.0937 -0.35547,-0.0937 0,0 0.14844,-0.20703 0.26563,-0.24219 0.11718,-0.0352 0.41406,-0.0937 0.41406,-0.0937 0,0 -0.17188,-0.3789 -0.16016,-0.49218 0.0117,-0.11328 0.14453,-0.5 0.25,-0.56641 0.10547,-0.0664 0.42188,-0.23828 0.60156,-0.19922 0.17969,0.0391 0.46875,0.23438 0.54297,0.35938 0.0742,0.125 0.1211,0.39453 0.0859,0.53515 -0.0352,0.14063 -0.16406,0.39063 -0.16406,0.39063 0,0 0.32031,-0.0273 0.46875,0.0625 0.14843,0.0898 0.23828,0.26562 0.23828,0.26562 0,0 -0.26172,0.0156 -0.41797,0.11719 -0.15625,0.10156 -0.30469,0.1875 -0.39062,0.3125 -0.0859,0.125 -0.20313,0.42578 -0.20313,0.42578 0,0 0.14844,0.14453 0.11328,0.27344 -0.0352,0.12891 -0.16406,0.34766 -0.16406,0.34766 0,0 0.10937,0.36328 0.23437,0.48046 0.125,0.11719 0.44388,0.2567 0.44389,0.2567 0,0 0.34822,0.15422 0.57318,0.15422 h 0.44993 c 0,0 0.42753,0.1633 0.50566,0.30002 0.0781,0.13672 0.27042,0.47609003 0.27042,0.47609003 0,0 -0.44329,0.12391 -0.4433,0.12391 v 0 c 0,0 -0.41306,0.4 -0.54978,0.65 -0.13672,0.25 -0.29545,0.64709 -0.51811,0.7799 -0.22265,0.13281 -0.29829,0.40759997 -0.29829,0.40759997 l 0.0903,0.0164 -0.34702,0.35668 v 0 0 0 c 0,0 -0.18857,0.22071 -0.0714,0.41993 0.11719,0.19922 0.70823,0.52312 0.70373,0.71273 -0.005,0.18961 -0.0814,-0.69413 0,10e-6 0.0814,0.69413 0,0.92635 0,0.92635 l 1.83853,-0.23222 c 0,0 1.41283,0.23987 1.41284,0.23987 1e-5,0 0.38865,0.0369 0.46287,0.20873 0.0742,0.17187 0.0898,0.34766 0.0898,0.34766 l -0.80859,0.0117 c 0,0 -0.1875,0.28125 -0.30859,0.50391 -0.1211,0.22266 -0.17043,0.33229 -0.57285,1.26671 -0.40241,0.93441 0.005,0.83854 -0.77589,1.179 -0.78114,0.34046 -0.96376,0.22617 -0.96376,0.22617 0,0 0.14062,0.082 0.0742,0.29296 -0.0664,0.21094 -0.38676,0.31379 -0.60158,0.55534 -0.21483,0.24154 -0.22443,0.25467 -0.038,0.64068 0.18644,0.38602 1.12592,0.82993 1.26655,1.02134 0.14062,0.1914 0.18348,0.4813603 0.18348,0.6068003 0,0.12544 -4.79484,9e-5 -4.79484,9e-5 z"
     id="path101" /><path
     d="m 6.785679,-2.0188353 c 0.54842,-0.44631 1.27479,-0.54569 1.98854,-0.27194 0.0596,0.0225 0.0895,0.0895 0.0668,0.14906 -0.0225,0.0597 -0.0895,0.0896 -0.14907,0.0668 -0.63513,-0.24303 -1.27658,-0.15721 -1.75995,0.23581 -0.74083,0.60261 -1.02544,1.82138003 -0.77878,3.34463 0.0106,0.0632 -0.0325,0.12195 -0.0957,0.13281 -0.007,9e-4 -0.0133,0.001 -0.019,0.001 -0.0551,0 -0.10485,-0.0408 -0.11386,-0.0976 -0.2593,-1.60724997 0.0551,-2.90541 0.86101,-3.56135 z m -1.56749,1.96954003 c 0.004,9.2e-4 0.009,9.2e-4 0.0135,9.2e-4 0.0578,0 0.10842,-0.0433 0.11479,-0.1021 0.13914,-1.20793003 0.66676,-1.86655003 1.08506,-2.20717003 0.0497,-0.0408 0.0569,-0.11297 0.0163,-0.16261 -0.0407,-0.0498 -0.11294,-0.0569 -0.16263,-0.0163 -0.45173,0.36769 -1.02092,1.07511 -1.16999,2.35982003 -0.005,0.0623 0.0398,0.11929 0.10299,0.12738 z m 1.60995,-0.44539 c -0.0623,-0.0144 -0.12473,0.0226 -0.14003,0.084 -0.12552,0.50594 -0.13281,1.14018 -0.0208,1.83222997 0.009,0.0568 0.0578,0.0976 0.11387,0.0976 0.007,0 0.0133,-9.1e-4 0.019,-0.001 0.0632,-0.009 0.10564,-0.0696 0.0958,-0.13282 -0.10657,-0.66134997 -0.10113,-1.26304997 0.0171,-1.73914997 0.0144,-0.0614 -0.0235,-0.12474 -0.085,-0.14005 z M 9.387569,13.341815 c 0.0163,0.008 0.0325,0.0106 0.0497,0.0106 0.0433,0 0.085,-0.0243 0.10485,-0.066 0.16623,-0.35055 0.5222,-0.57641 0.90798,-0.57731 0.3858,9e-4 0.74174,0.22768 0.90799,0.57731 0.0199,0.0417 0.0614,0.066 0.10485,0.066 0.0163,0 0.0334,-0.003 0.0497,-0.0106 0.0578,-0.0271 0.0822,-0.0967 0.0551,-0.15358 -0.20329,-0.42915 -0.63875,-0.7065 -1.11037,-0.7092 -9.3e-4,0 -10e-4,-9e-4 -0.004,-9e-4 h -0.003 -0.003 c -9.3e-4,0 -10e-4,9e-4 -0.004,9e-4 -0.47162,0.003 -0.9071,0.28095 -1.11037,0.7092 -0.0289,0.0568 -0.004,0.12645 0.0533,0.15358 z m -3.46652,0 c 0.0569,0.0272 0.12645,0.002 0.15358,-0.0551 0.16624,-0.35143 0.524,-0.57819 0.91069,-0.57819 0.38669,0 0.74447,0.22675 0.91069,0.57819 0.0199,0.0417 0.0615,0.066 0.10485,0.066 0.0163,0 0.0334,-0.003 0.0497,-0.0106 0.0578,-0.0272 0.0822,-0.0967 0.0551,-0.15358 -0.20509,-0.43186 -0.64418,-0.71012 -1.11938,-0.71012 -0.47613,0 -0.91521,0.27826 -1.11939,0.71012 -0.0289,0.0568 -0.004,0.12645 0.0542,0.15358 z m -3.33378,0 c 0.0578,0.0272 0.12645,0.002 0.15359,-0.0551 0.16623,-0.35143 0.524,-0.57819 0.91069,-0.57819 0.38669,0 0.74446,0.22675 0.9107,0.57819 0.0199,0.0417 0.0614,0.066 0.10485,0.066 0.0163,0 0.0334,-0.003 0.0497,-0.0106 0.0578,-0.0272 0.0822,-0.0967 0.0551,-0.15358 -0.20509,-0.43186 -0.64418,-0.71012 -1.11938,-0.71012 -0.47613,0 -0.91521,0.27826 -1.11938,0.71012 -0.0289,0.0568 -0.004,0.12645 0.0542,0.15358 z m 5.17505,-16.8450803 h 0.009 c 0.0632,-0.003 0.11108,-0.0606 0.10657,-0.12381 -0.0469,-0.63062 0.23943,-0.90709 0.41379,-1.0164 0.21865,-0.13642 0.496,-0.15178 0.68845,-0.0389 0.0542,0.0315 0.12553,0.0144 0.15811,-0.0417 0.0325,-0.0552 0.0135,-0.12552 -0.0416,-0.1581 -0.26834,-0.15811 -0.63243,-0.14094 -0.92785,0.0423 -0.37224,0.23217 -0.56287,0.68029 -0.52221,1.2296 0.004,0.0597 0.0551,0.10654 0.11559,0.10654 z m 4.05654,-1.17995 c 0.19244,-0.11297 0.4689,-0.0976 0.68846,0.0389 0.17436,0.10936 0.46076,0.3858 0.41378,1.0164 -0.004,0.0632 0.0433,0.1193 0.10658,0.12382 h 0.009 c 0.0596,0 0.11108,-0.0461 0.11479,-0.10749 0.0407,-0.54932 -0.14997,-0.99744 -0.52219,-1.2296 -0.29454,-0.18341 -0.65864,-0.19969 -0.92696,-0.0423 -0.0551,0.0324 -0.0732,0.10305 -0.0416,0.1581 0.0317,0.0568 0.103,0.0741 0.15811,0.0423 z m -9.18557,9.16384 c -0.0623,-0.0199 -0.12645,0.0154 -0.14455,0.076 -0.55111,1.77441 -0.27194,4.16595 -0.17347,4.85703 0.008,0.0578 0.0578,0.0994 0.11387,0.0994 0.005,0 0.0106,-9.1e-4 0.0163,-9.1e-4 0.0632,-0.009 0.1075,-0.0677 0.0985,-0.13095 -0.0966,-0.67852 -0.37133,-3.02756 0.16533,-4.75575 0.019,-0.0613 -0.0154,-0.12552 -0.0758,-0.14453 z m 0.27737,-0.65502 c 0.018,0.009 0.0379,0.0154 0.0569,0.0154 0.0398,0 0.0795,-0.0208 0.10021,-0.0587 0.41831,-0.7318 1.02995,-1.17539 1.72381,-1.24948 0.56376,-0.0606 1.02454,0.14095 1.21426,0.35324 0.0424,0.0479 0.11558,0.0515 0.16353,0.009 0.0469,-0.0423 0.0514,-0.11554 0.009,-0.16352 -0.2837,-0.31622 -0.85197,-0.48879 -1.41122,-0.42826 -0.44542,0.0469 -1.28473,0.2873 -1.89998,1.36423 -0.0308,0.056 -0.0119,0.12645 0.0433,0.15811 z m -1.37237,4.22817 h 0.005 c 0.0632,-0.002 0.11293,-0.0568 0.11028,-0.12101 -0.0171,-0.35958 -0.0225,-0.71374 -0.0144,-1.05074 10e-4,-0.0642 -0.0497,-0.11745 -0.11293,-0.11837 -0.0632,0.003 -0.11744,0.0497 -0.11837,0.11297 -0.007,0.34331 -0.003,0.70199 0.0144,1.0679 0.003,0.0613 0.0542,0.10935 0.11558,0.10935 z m 1.63256,-2.65797 c -0.0606,-0.0119 -0.12288,0.0308 -0.13371,0.094 -0.1807,1.02815 -0.14004,2.17372 -0.0741,2.95261 0.004,0.0606 0.0551,0.10563 0.11479,0.10563 0.004,0 0.007,0 0.009,-9.2e-4 0.0632,-0.006 0.11108,-0.0616 0.10564,-0.12473 -0.0641,-0.76614 -0.10485,-1.88914 0.0714,-2.89387 0.0106,-0.0623 -0.0308,-0.12194 -0.094,-0.1328 z m -1.6172,0.82398 c 0.004,0 0.007,9.1e-4 0.009,9.1e-4 0.0596,0 0.11029,-0.0452 0.11479,-0.10562 0.0677,-0.79687 0.21323,-1.48893 0.43186,-2.05719 0.27827,-0.72006 0.67217,-1.28022 1.17089,-1.66419 0.0506,-0.0389 0.0597,-0.11203 0.0208,-0.16261 -0.0398,-0.0507 -0.11108,-0.0597 -0.16262,-0.0208 -0.53215,0.41017 -0.95136,1.00466 -1.24497,1.76536 -0.22677,0.58906 -0.37764,1.30279 -0.44722,2.12135 -0.004,0.0614 0.0433,0.11744 0.10657,0.12287 z m 7.23952,0.2087 c -0.39481,-0.17076 -0.55745,-0.62158 -0.55926,-0.6261 -0.0216,-0.0606 -0.0867,-0.0911 -0.14726,-0.0713 -0.0606,0.0208 -0.0921,0.0867 -0.0713,0.14727 0.008,0.0225 0.19606,0.5502 0.68572,0.76252 0.0144,0.007 0.0307,0.009 0.0461,0.009 0.0443,0 0.0876,-0.0262 0.10657,-0.0696 0.0244,-0.0578 -10e-4,-0.12645 -0.0606,-0.15178 z m 1.07601,0.22225 c 0.0253,0 0.0506,-0.008 0.0722,-0.0253 0.0497,-0.0398 0.0578,-0.11298 0.018,-0.16262 -0.21955,-0.27467 -0.26111,-0.63063 -0.26111,-0.63424 -0.007,-0.0632 -0.0668,-0.10935 -0.12738,-0.10294 -0.0632,0.007 -0.10935,0.0632 -0.10299,0.12739 0.001,0.0172 0.0469,0.42551 0.31079,0.75437 0.0235,0.028 0.0569,0.0433 0.0904,0.0433 z m 11.025,4.3419503 c 0,0.0642 -0.0516,0.11554 -0.11558,0.11554 h -0.0317 c -0.69116,0.0234 -0.95406,0.74083 -1.25673,1.57114 -0.33788,0.92425 -0.72097,1.96593 -1.84215,2.03281 v 0.55201 c 0,0.0642 -0.0514,0.11553 -0.11559,0.11553 l -14.1654,9e-4 c -0.0642,0 -0.11571,-0.0515 -0.11571,-0.11553 v -0.55291 c -1.12031,-0.0687 -1.50245,-1.10856 -1.84034,-2.03281 -0.30266,-0.82847 -0.56556996,-1.54492 -1.25401996,-1.57022 h -0.037 c -0.0642,0 -0.11558,-0.0515 -0.11558,-0.11566 0,-0.42825 0.34783,-0.77608 0.77608,-0.77608 H 8.025289 c -0.10657,-0.4562603 0.3668,-0.7453703 0.65681,-0.9215403 0.0353,-0.0217 0.0696,-0.0423 0.10034,-0.0623 0.45536,-0.29002 0.71917,-0.5195 0.71917,-0.83752 0,-0.26833 -0.21593,-0.43367 -0.42282,-0.44089 h -0.0163 c -0.24574,0 -0.44542,-0.19965 -0.44542,-0.44541 0,-0.0975 0.0325,-0.18612 0.0849,-0.25929 -1.49522,-0.22948 -1.83313,-1.33171 -2.08428,-2.162 -0.18522,-0.60983 -0.30628,-0.95496 -0.66495,-0.95496 l -9.3e-4,-9.1e-4 h -0.56826 c -0.0642,0 -0.11559,-0.0515 -0.11559,-0.11554 0,-0.42824 0.34783,-0.77608 0.77608,-0.77608 h 3.08353 c -0.15359,-0.5177 0.1572,-0.8321 0.41289,-1.08957 0.26924,-0.27013 0.41651,-0.44451 0.30085,-0.73723 -0.20146,-0.0423 -0.35414,-0.22134 -0.35414,-0.43634997 0,-0.0877 0.028,-0.16716 0.0722,-0.2358 -0.50323,-0.11111 -0.73272,-0.58455 -0.92244,-0.97576 -0.14817,-0.30628 -0.27647,-0.571 -0.47974,-0.571 h -0.26651 c -0.0642,0 -0.11572,-0.0515 -0.11572,-0.11554 0,-0.42827003 0.34783,-0.77610003 0.77608,-0.77610003 h 0.45083 l 9.3e-4,-8.9e-4 c 0.52944,0 0.98477,-0.36318 1.11216,-0.87094 -0.094,-0.0895 -0.15359,-0.21412 -0.15359,-0.35414 0,-0.11203 0.0398,-0.21413 0.103,-0.29725 -0.0569,-0.2873 -0.32343,-0.69116 -0.88178,-0.73813 -0.0398,-0.003 -0.075,-0.0272 -0.093,-0.0623 -0.018,-0.0352 -0.0172,-0.0778 0.004,-0.11204 0.16533,-0.27735 0.3912,-0.37404 0.59809,-0.38668 -0.0651,-0.12287 -0.10207,-0.2575 -0.10207,-0.39662 0,-0.47161 0.38669,-0.85557 0.86282,-0.85557 0.47523,0 0.86281,0.38399 0.86281,0.85557 0,0.13914 -0.037,0.27466 -0.10207,0.39662 0.2069,0.0136 0.43095,0.1111 0.59448,0.38758 0.0208,0.0343 0.0216,0.0768 0.004,0.11204 -0.018,0.0352 -0.0533,0.0587 -0.093,0.0623 -0.59718,0.0507 -0.82938,0.48244 -0.87999,0.73813 0.0632,0.0821 0.103,0.18431 0.103,0.29632 0,0.13914 -0.0596,0.26471 -0.15269,0.35325 0.12738,0.50774 0.58273,0.87093 1.11307,0.87093 l 9.1e-4,8.9e-4 h 0.44993 c 0.42825,0 0.77608,0.34785 0.77608,0.77611003 0,0.0642 -0.0514,0.11554 -0.11559,0.11554 h -0.2665 c -0.20328,0 -0.33157,0.2647 -0.47973,0.571 -0.18973,0.39028 -0.41921,0.86371 -0.92245,0.97574 0.0443,0.0687 0.0722,0.14817 0.0722,0.2358 0,0.21410997 -0.15179,0.39390997 -0.35415,0.43636997 -0.11559,0.29272 0.0325,0.46708 0.30087,0.73723 0.25568,0.2566 0.56646,0.57189 0.41288,1.08957 h 3.08352 c 0.42825,0 0.77609,0.34783 0.77609,0.77608 0,0.0642 -0.0515,0.11553 -0.11558,0.11553 h -0.56917 v 9e-4 c -0.35325,0 -0.46799,0.33974 -0.63965,0.93962 -0.23942,0.83932 -0.56196,1.95238 -2.10959,2.17826 0.0524,0.0732 0.0859,0.16082 0.0859,0.25748 0,0.24574 -0.19967,0.44543 -0.44542,0.44543 h -0.008 c -0.2087,0.003 -0.43095,0.16985 -0.43095,0.44087 0,0.31893 0.2638,0.5484 0.71916,0.83751 0.0308,0.0199 0.0642,0.0408 0.10034,0.0623 0.29001,0.17618 0.76342,0.46529 0.6568,0.9215503 h 7.24484 c 0.42282,0.001 0.77065,0.34964 0.77065,0.77699 z M 10.449249,-2.6622753 c 0.14185,0 0.25749,-0.11553 0.25749,-0.25749 0,-0.14184 -0.11559,-0.25748 -0.25749,-0.25748 -0.14186,0 -0.2575,0.11553 -0.2575,0.25748 0,0.14185 0.11559,0.25749 0.2575,0.25749 z m -0.63063,-2.25053 c 0,0.15088 0.0569,0.29905 0.15991,0.4156 0.004,0.006 0.007,0.0133 0.0106,0.018 0.004,0.001 0.009,0.001 0.0135,0.003 0.0614,-0.16803 0.19244,-0.44539 0.40837,-0.51587 0.0235,-0.007 0.0514,-0.007 0.0741,0 0.21501,0.0713 0.34603,0.34873 0.40745,0.51587 0.005,-10e-4 0.0133,-0.002 0.018,-0.003 0.004,-0.006 0.005,-0.0132 0.009,-0.0172 0.10299,-0.11648 0.15991,-0.26381 0.15991,-0.4156 0,-0.34423 -0.28278,-0.6243 -0.63152,-0.6243 -0.34784,-9e-4 -0.63063,0.28007 -0.63063,0.6243 z m 0.44361,1.54222 c 0.0578,-0.0244 0.12102,-0.0379 0.18702,-0.0379 0.0668,0 0.13004,0.0136 0.18792,0.0379 0.0921,-0.28822 0.34061,-0.66586 0.85648,-0.7833 -0.25388,-0.24305 -0.57642,-0.085 -0.61798,-0.0632 -0.0317,0.0163 -0.0687,0.018 -0.10034,0.003 -0.0325,-0.0144 -0.0569,-0.0423 -0.066,-0.0759 -0.0334,-0.12553 -0.13733,-0.38668 -0.262,-0.46527 -0.12473,0.0787 -0.22859,0.33971 -0.262,0.46527 -0.009,0.0343 -0.0334,0.0623 -0.066,0.0768 -0.0325,0.0136 -0.0696,0.0119 -0.10114,-0.003 -0.0407,-0.0217 -0.36228,-0.17889 -0.61707,0.0642 0.49149,0.11484 0.76073,0.47613 0.86101,0.78241 z m -0.49963,1.67684 h 1.37508 c -0.26561,-0.17528 -0.46709,-0.43909 -0.56196,-0.75621 -0.0407,0.0105 -0.0822,0.018 -0.12645,0.018 -0.0433,0 -0.085,-0.007 -0.12474,-0.018 -0.0949,0.31712 -0.29725,0.58183 -0.56195,0.75621 z m 3.11776,0.66044 c -0.0533,-0.24483 -0.27196,-0.42917 -0.53215,-0.42917 h -3.79913 c -0.2602,0 -0.47883,0.1843 -0.53214,0.42917 z m -3.09255,1.57022003 h 1.32269 c 0.52219,0 0.73632,-0.44181 0.94321,-0.86913 0.084,-0.17346 0.16623,-0.34152 0.26741,-0.46979 h -3.74477 c 0.10113,0.12831 0.18341,0.29633 0.26743,0.46979 0.20779,0.42735 0.4219,0.86913 0.9441,0.86913 z m 0.14455,0.65680997 h 1.03448 c 0.11837,0 0.21413,-0.0957 0.21413,-0.21410997 0,-0.11204 -0.0876,-0.20149 -0.19786,-0.21051 h -1.0679 c -0.11016,0.009 -0.19786,0.0985 -0.19786,0.21051 0,0.11742997 0.0966,0.21410997 0.21503,0.21410997 z m -0.55925,2.04726 h 2.15116 c 0.15992,-0.42644 -0.0651,-0.66045 -0.32977,-0.92605 -0.23219,-0.23399 -0.49058,-0.49509 -0.38488,-0.89082 h -0.72278 c 0.10564,0.39571 -0.15177,0.65773 -0.38488,0.89082 -0.2629,0.26651 -0.48877,0.49962 -0.32886,0.92605 z m -3.86226,0.66043 h 9.87666 c -0.0533,-0.24483 -0.27195,-0.42915 -0.53215,-0.42915 h -8.8125 c -0.2602,0 -0.47883,0.18432 -0.53214,0.42915 z m 3.78547,3.16217 h 2.30656 c 1.89548,0 2.22073,-1.13928 2.48172,-2.05448 0.0976,-0.34061 0.19334,-0.66766 0.37043,-0.87727 l -8.00739,9e-4 c 0.18249,0.21141 0.2855,0.54299 0.3903,0.88809 0.27465,0.9098 0.61797,2.04274 2.45834,2.04274 z m -0.23579,0.65954 h 2.77637 c 0.11837,0 0.21412,-0.0957 0.21412,-0.21413 0,-0.11838 -0.0994,-0.21411 -0.21683,-0.21411 l -2.77174,-10e-4 c -0.11837,0 -0.21593,0.0976 -0.21593,0.21592 0,0.11837 0.0966,0.21412 0.21412,0.21412 z m -0.79596,2.4935103 -0.003,9e-4 h 4.37364 l -0.003,-9e-4 c 0.11029,-0.2999603 -0.17798,-0.5050403 -0.53665,-0.7236803 -0.0371,-0.0226 -0.0722,-0.0433 -0.10392,-0.0642 -0.41831,-0.26561 -0.82577,-0.56467 -0.82577,-1.03357 0,-0.17979 0.066,-0.32888 0.16534,-0.44088 h -1.76718 c 0.0994,0.11203 0.16533,0.2611 0.16533,0.44088 0,0.46797 -0.40835,0.76703 -0.82576,1.03357 -0.0325,0.0208 -0.0668,0.0417 -0.10392,0.0642 -0.35779,0.21864 -0.646,0.42372 -0.53577,0.7236803 z m -8.01639996,0.66042 H 20.650229 c -0.0533,-0.24483 -0.27195,-0.42914 -0.53215,-0.42914 l -19.33766996,9e-4 c -0.26111,0 -0.47884,0.18341 -0.53215,0.42824 z M 17.415919,14.718515 H 3.482709 v 0.43006 h 13.93321 z m 2.6834,-3.61016 H 0.80210904 c 0.39752996,0.31712 0.61433996,0.91068 0.82665996,1.49161 0.33879,0.92786 0.68845,1.88736 1.73825,1.88736 h 14.1645 c 9.2e-4,0 0.001,8.9e-4 0.003,8.9e-4 1.04983,0 1.40036,-0.95947 1.73825,-1.88735 0.21141,-0.58093 0.42916,-1.17539 0.82667,-1.49251 z m -7.97572,-13.3994003 c -0.0596,0.0225 -0.0895,0.0895 -0.0668,0.14909 0.0225,0.0597 0.0904,0.0895 0.14908,0.0668 0.63604,-0.24305 1.27749,-0.1572 1.75996,0.23579 0.74083,0.60262 1.02544,1.82138003 0.77878,3.34464 -0.0106,0.0632 0.0325,0.12195 0.0957,0.13282 0.007,9e-4 0.0133,0.001 0.019,0.001 0.0551,0 0.10485,-0.0408 0.11387,-0.0976 0.2593,-1.60635997 -0.0542,-2.90475 -0.86191,-3.56067 -0.54751,-0.44721 -1.27298,-0.5466 -1.98764,-0.27284 z m 3.42861,2.13942003 c 0.007,0.0587 0.0569,0.1021 0.11479,0.1021 0.004,0 0.009,0 0.0135,-9.1e-4 0.0632,-0.008 0.10935,-0.0651 0.10113,-0.1283 -0.14817,-1.28475003 -0.71827,-1.99214003 -1.16999,-2.35982003 -0.0497,-0.0398 -0.12195,-0.0324 -0.16262,0.0163 -0.0407,0.0497 -0.0325,0.12195 0.0163,0.16261 0.42012,0.34153 0.94775,1.00104 1.08687,2.20807003 z m -1.45277,1.66868997 c 0.007,9e-4 0.0133,0.001 0.019,0.001 0.0551,0 0.10485,-0.0408 0.11387,-0.0976 0.112,-0.69204997 0.10485,-1.32538997 -0.0208,-1.83222997 -0.0154,-0.0623 -0.0777,-0.10033 -0.14004,-0.084 -0.0623,0.0154 -0.10021,0.0778 -0.084,0.14005 0.11837,0.47612 0.1238,1.07784 0.0171,1.73915997 -0.0106,0.0632 0.0317,0.12287 0.0949,0.13282 z m -1.25038,11.8245503 c 0.0569,0.0272 0.12646,0.002 0.15359,-0.0551 0.16624,-0.35143 0.52401,-0.57821 0.91069,-0.57821 0.3867,0 0.74447,0.22678 0.91069,0.57821 0.0199,0.0417 0.0614,0.0661 0.10485,0.0661 0.0163,0 0.0334,-0.003 0.0497,-0.0106 0.0578,-0.0271 0.0822,-0.0967 0.0551,-0.15359 -0.20509,-0.43185 -0.64418,-0.71011 -1.11938,-0.71011 -0.47613,0 -0.9152,0.27826 -1.11938,0.71011 -0.028,0.0568 -0.004,0.12645 0.0542,0.15359 z m 3.33378,0 c 0.0569,0.0272 0.12645,0.002 0.15359,-0.0551 0.16623,-0.35143 0.52399,-0.57821 0.91068,-0.57821 0.38669,0 0.74447,0.22678 0.91069,0.57821 0.0199,0.0417 0.0615,0.0661 0.10485,0.0661 0.0163,0 0.0334,-0.003 0.0497,-0.0106 0.0578,-0.0271 0.0822,-0.0967 0.0551,-0.15359 -0.20509,-0.43185 -0.64418,-0.71011 -1.11938,-0.71011 -0.47613,0 -0.91521,0.27826 -1.11939,0.71011 -0.028,0.0568 -0.004,0.12645 0.0542,0.15359 z m 2.26499,-3.8009603 c 0.005,9e-4 0.0119,9e-4 0.0171,9e-4 0.0559,0 0.10564,-0.0417 0.11387,-0.0995 0.10113,-0.69385 0.38668,-3.09623 -0.16896,-4.88686 -0.019,-0.0606 -0.0822,-0.0949 -0.14456,-0.076 -0.0614,0.0189 -0.0949,0.084 -0.0758,0.14455 0.54209,1.74369 0.2602,4.1035 0.16081,4.78486 -0.009,0.0642 0.0343,0.12288 0.0975,0.1319 z m -3.71956,-6.64582 c 0.0478,0.0423 0.12023,0.0389 0.16352,-0.009 0.18974,-0.21231 0.6505,-0.41289 1.21426,-0.35324 0.69296,0.0741 1.3055,0.51768 1.72381,1.24949 0.0217,0.0371 0.0606,0.0587 0.10033,0.0587 0.0199,0 0.0398,-0.003 0.0569,-0.0154 0.0551,-0.0318 0.075,-0.10211 0.0433,-0.15811 -0.61527,-1.07694 -1.45458,-1.31726 -1.89997,-1.36423 -0.55925,-0.0606 -1.12843,0.11204 -1.41122,0.42826 -0.0424,0.0479 -0.0379,0.12101 0.009,0.16352 z m 4.53184,3.98693 c 0.007,0.3379 0.003,0.69116 -0.0145,1.05074 -0.004,0.0642 0.0461,0.11837 0.11029,0.12102 h 0.005 c 0.0614,0 0.112,-0.0479 0.11558,-0.11029 0.0172,-0.36498 0.0227,-0.72456 0.0144,-1.06789 -0.001,-0.0632 -0.0497,-0.10936 -0.11837,-0.11298 -0.0641,0.001 -0.11479,0.0551 -0.11293,0.1193 z m -1.44916,1.66599 c 0.004,0 0.007,9.1e-4 0.009,9.1e-4 0.0596,0 0.11029,-0.0452 0.11479,-0.10562 0.066,-0.77879 0.10658,-1.92438 -0.0741,-2.95261 -0.0106,-0.0632 -0.0741,-0.10575 -0.1337,-0.094 -0.0632,0.0106 -0.10485,0.0713 -0.094,0.13372 0.17619,1.00467 0.13642,2.12767 0.0713,2.89386 -0.005,0.0623 0.0416,0.11838 0.10578,0.12381 z m 0.97666,-4.49113 c 0.21954,0.56917 0.365,1.26123 0.43186,2.05718 0.004,0.0606 0.0551,0.10561 0.11479,0.10561 0.004,0 0.007,0 0.009,-9.1e-4 0.0632,-0.006 0.11108,-0.0615 0.10564,-0.12473 -0.0696,-0.81855 -0.21955,-1.53227 -0.44722,-2.12135 -0.29361,-0.76071 -0.71283,-1.35429 -1.24497,-1.76536 -0.0516,-0.0389 -0.12288,-0.0289 -0.16262,0.0208 -0.0388,0.0507 -0.0298,0.12288 0.0208,0.16263 0.49962,0.38488 0.89353,0.94501 1.17179,1.66597 z m -6.63585,2.59389 c 0.0154,0 0.0308,-0.002 0.0461,-0.009 0.48967,-0.21141 0.67849,-0.73994 0.68572,-0.76254 0.0208,-0.0606 -0.0106,-0.12645 -0.0714,-0.14725 -0.0606,-0.0208 -0.12646,0.0105 -0.14727,0.0714 -10e-4,0.003 -0.16081,0.45443 -0.55925,0.62609 -0.0587,0.0253 -0.0859,0.093 -0.0606,0.15178 0.0199,0.0433 0.0623,0.0696 0.10657,0.0696 z m -1.12211,0 c 0.0334,0 0.0677,-0.0144 0.0904,-0.0433 0.2629,-0.32889 0.30896,-0.73723 0.31079,-0.7544 0.007,-0.0632 -0.0398,-0.1201 -0.10299,-0.12739 -0.0587,-0.007 -0.12009,0.0389 -0.12738,0.10294 -9.3e-4,0.003 -0.0416,0.35959 -0.26111,0.63424 -0.0398,0.0497 -0.0317,0.12288 0.018,0.16263 0.0208,0.0163 0.0461,0.0253 0.0722,0.0253 z"
     id="path42"
     style="fill:#abcbd6;fill-opacity:1;stroke:#ffffff;stroke-width:0.1;stroke-dasharray:none;stroke-opacity:1" /></svg>
