<?xml version="1.0" encoding="UTF-8" standalone="no"?>
<svg
   version="1.1"
   viewBox="-5 -10 30.899993 30.900009"
   id="svg3"
   xml:space="preserve"
   width="30.899992"
   height="30.900009"
   xmlns="http://www.w3.org/2000/svg"
   xmlns:svg="http://www.w3.org/2000/svg"><defs
     id="defs3" /><circle
     style="fill:#92bbe2;fill-opacity:1;stroke:#ffffff;stroke-width:0.9;stroke-linejoin:bevel;stroke-dasharray:none;stroke-opacity:1"
     id="circle43"
     cx="10.450001"
     cy="5.4499974"
     r="15" /><g
     id="path43"
     style="fill:#9c5b9f;fill-opacity:1;stroke:none"
     transform="translate(144.60854,-225.1862)"><path
       style="color:#000000;fill:#9c5b9f;fill-opacity:1;stroke:none;-inkscape-stroke:none"
       d="m -127.02162,236.00162 a 2.5139969,2.5139969 0 0 1 -1.63564,-0.6208 0.34341813,0.34341813 0 0 1 -0.11887,-0.25976 v -2.01868 a 0.60098174,0.60098174 0 0 0 -0.59878,-0.59878 h -11.51992 l -1.23718,1.16894 a 0.57896775,0.57896775 0 0 1 -0.39405,0.1563 h -0.18492 a 0.34341813,0.34341813 0 0 1 -0.34342,-0.34342 v -5.49029 a 0.34341813,0.34341813 0 0 1 0.34342,-0.34341 h 0.18492 a 0.57676635,0.57676635 0 0 1 0.39845,0.1585 l 1.23718,1.16894 h 5.14247 a 0.35002233,0.35002233 0 0 1 0.28398,-0.22014 1.320839,1.320839 0 0 0 0.91578,-0.54375 v -2.01868 a 0.57896775,0.57896775 0 0 1 0.4689,-0.57016 c 0.13429,-0.0264 0.26857,-0.0462 0.40506,-0.0616 v -2.90585 a 1.03906,1.03906 0 0 1 -0.14309,-0.14309 l -3.00051,0.12328 a 0.31479996,0.31479996 0 0 1 -0.23775,-0.0903 0.32140415,0.32140415 0 0 1 -0.0991,-0.23334 v -0.92459 a 0.32360555,0.32360555 0 0 1 0.33681,-0.32361 l 3.00491,0.11888 a 1.0412614,1.0412614 0 0 1 1.61583,0 l 3.00491,-0.11888 a 0.32580695,0.32580695 0 0 1 0.23555,0.10347 0.32140415,0.32140415 0 0 1 0.0991,0.22014 v 0.91358 a 0.32360555,0.32360555 0 0 1 -0.33682,0.3236 l -3.0005,-0.11447 a 1.03906,1.03906 0 0 1 -0.14309,0.14309 v 2.91686 c 0.13648,0.0154 0.27077,0.0374 0.40505,0.0616 a 0.57896775,0.57896775 0 0 1 0.4689,0.57017 v 2.00987 a 1.320839,1.320839 0 0 0 0.91578,0.53494 0.35002233,0.35002233 0 0 1 0.28398,0.22014 h 1.35607 a 3.6499184,3.6499184 0 0 1 3.64551,3.66093 v 2.48978 a 0.34341813,0.34341813 0 0 1 -0.11887,0.25976 2.5161983,2.5161983 0 0 1 -1.63124,0.6208 z m -13.96347,-3.71596 h 11.60357 a 0.81671877,0.81671877 0 0 1 0.81452,0.81452 v 2.01868 a 0.1276811,0.1276811 0 0 0 0.044,0.0969 2.2982598,2.2982598 0 0 0 1.49915,0.56796 v 0 a 2.3004612,2.3004612 0 0 0 1.49035,-0.56796 0.1276811,0.1276811 0 0 0 0.044,-0.0969 v -2.48758 a 3.4341813,3.4341813 0 0 0 -3.41877,-3.42978 h -1.54098 v -0.0969 a 0.13868809,0.13868809 0 0 0 -0.11887,-0.12768 1.5409788,1.5409788 0 0 1 -1.08529,-0.66042 l -0.0198,-0.0286 v -2.09133 a 0.36323072,0.36323072 0 0 0 -0.29279,-0.35663 c -0.1585,-0.0308 -0.32141,-0.055 -0.48211,-0.0704 h -0.0969 v -3.21844 l 0.044,-0.033 a 0.83873275,0.83873275 0 0 0 0.17611,-0.17831 l 0.033,-0.0462 3.11498,0.12768 a 0.11667411,0.11667411 0 0 0 0.0793,-0.0308 0.10786852,0.10786852 0 0 0 0.033,-0.0793 v -0.92018 a 0.10786852,0.10786852 0 0 0 -0.033,-0.0705 0.11227131,0.11227131 0 0 0 -0.0793,-0.0308 l -3.11718,0.12328 -0.033,-0.0462 a 0.82552436,0.82552436 0 0 0 -1.33845,0 l -0.055,0.0484 -3.10617,-0.12327 a 0.11227131,0.11227131 0 0 0 -0.0793,0.0308 0.10786852,0.10786852 0 0 0 -0.033,0.077 v 0.91358 a 0.10786852,0.10786852 0 0 0 0.033,0.0792 0.11006991,0.11006991 0 0 0 0.0793,0.0308 l 3.10617,-0.12988 0.033,0.0462 a 0.82992716,0.82992716 0 0 0 0.17611,0.17831 l 0.044,0.033 v 3.20743 h -0.0969 c -0.1607,0.0154 -0.3236,0.0396 -0.4843,0.0704 a 0.36323072,0.36323072 0 0 0 -0.29279,0.35662 v 2.09574 l -0.0198,0.0286 a 1.5409788,1.5409788 0 0 1 -1.08529,0.66042 0.13868809,0.13868809 0 0 0 -0.11887,0.12989 v 0.0969 h -5.41985 l -1.29442,-1.22398 a 0.36102932,0.36102932 0 0 0 -0.24655,-0.0991 h -0.18492 a 0.1276811,0.1276811 0 0 0 -0.12768,0.12768 v 5.48368 a 0.1276811,0.1276811 0 0 0 0.12768,0.12768 h 0.18492 a 0.36323072,0.36323072 0 0 0 0.24875,-0.0991 z m 13.93486,8.17819 a 1.4088949,1.4088949 0 0 1 -0.47771,-0.0836 1.2459914,1.2459914 0 0 1 -0.74627,-0.74848 1.2966236,1.2966236 0 0 1 0.0947,-1.10069 l 1.12932,-1.95044 1.12931,1.95704 a 1.2966236,1.2966236 0 0 1 0.0947,1.1007 1.2459914,1.2459914 0 0 1 -0.74627,0.74847 1.4110963,1.4110963 0 0 1 -0.4755,0.0837 z m 0,-3.44298 -0.94661,1.62243 a 1.0808866,1.0808866 0 0 0 -0.0792,0.91358 1.0302544,1.0302544 0 0 0 0.6164,0.61859 1.1909565,1.1909565 0 0 0 0.40505,0.0704 v 0 a 1.1975607,1.1975607 0 0 0 0.40286,-0.0704 1.0302544,1.0302544 0 0 0 0.61639,-0.61859 1.0808866,1.0808866 0 0 0 -0.0792,-0.91358 z"
       id="path53" /><path
       style="color:#000000;fill:#9c5b9f;fill-opacity:1;stroke:none;-inkscape-stroke:none"
       d="m -127.05055,237.32031 0.80664,1.39844 c 0.13842,0.23923 0.16355,0.52762 0.0684,0.78711 -0.0885,0.24563 -0.28203,0.43988 -0.52735,0.5293 -0.11306,0.0406 -0.23143,0.0604 -0.35156,0.0605 -0.12068,1.7e-4 -0.23996,-0.0197 -0.35351,-0.0605 -0.24532,-0.0894 -0.4388,-0.28366 -0.52735,-0.5293 -0.0952,-0.25949 -0.0701,-0.54788 0.0684,-0.78711 z"
       id="path93" /><path
       style="color:#000000;fill:#9c5b9f;fill-opacity:1;stroke:none;-inkscape-stroke:none"
       d="m -130.59547,229.11914 c 0.004,5.1e-4 0.006,0.005 0.01,0.006 h -0.004 c -0.003,-3.8e-4 -0.004,-0.003 -0.006,-0.006 z"
       id="path92" /><path
       style="color:#000000;fill:#9c5b9f;fill-opacity:1;stroke:none;-inkscape-stroke:none"
       d="m -132.99586,221.17187 c 0.20576,0 0.41076,0.0948 0.54687,0.28321 l 0.0801,0.11133 3.1543,-0.125 v 0.82812 l -3.15235,-0.12891 -0.0801,0.11133 h 0.002 c -0.0406,0.0558 -0.0893,0.1052 -0.14453,0.14649 h -0.002 l -0.10351,0.0781 v 3.44336 h 0.24609 c 0.15106,0.0149 0.30552,0.0374 0.45508,0.0664 0.10086,0.0199 0.17196,0.10812 0.17187,0.21094 v 2.13671 l 0.0449,0.0664 c 0.27095,0.39669 0.70206,0.65163 1.17773,0.71484 3.5e-4,5e-5 -3.5e-4,0.002 0,0.002 v 0.23437 h 1.69141 c 1.80814,0.008 3.26723,1.47114 3.26953,3.2793 v 2.47461 c -0.38506,0.33442 -0.87469,0.52174 -1.38477,0.52734 -0.51359,-0.003 -1.00697,-0.19054 -1.39453,-0.52734 v -2.00586 c -0.001,-0.53013 -0.43276,-0.96342 -0.96289,-0.96484 h -11.66406 l -0.043,0.043 -1.29297,1.22657 c -0.0391,0.0369 -0.0908,0.058 -0.14453,0.0586 h -0.16406 v -5.43945 h 0.16211 c 0.0537,2.8e-4 0.10557,0.0216 0.14453,0.0586 l 1.33789,1.26563 h 5.6289 v -0.23633 c 0.47678,-0.0626 0.90626,-0.31934 1.17774,-0.7168 l 0.0469,-0.0664 v -2.14257 c -8e-5,-0.10282 0.071,-0.18905 0.17188,-0.20899 0.15656,-0.03 0.31332,-0.0535 0.46875,-0.0684 h 0.23242 v -3.43164 l -0.10351,-0.0781 c -0.0552,-0.0411 -0.10411,-0.0908 -0.14454,-0.14649 l -0.0801,-0.11133 -3.14258,0.13086 v -0.82812 l 3.12304,0.125 0.11133,-0.0996 0.01,-0.0137 c 0.1361,-0.18845 0.34307,-0.28321 0.54883,-0.28321 z"
       id="path91" /><path
       style="color:#000000;fill:#ffffff;fill-opacity:1;stroke:none;-inkscape-stroke:none"
       d="m -133.00586,220.6543 c -0.30062,0 -0.57913,0.15921 -0.80859,0.38281 l -2.99805,-0.11914 c -0.26706,-0.0109 -0.49241,0.20537 -0.49219,0.47265 v 0.92579 c 3e-5,0.12843 0.0517,0.25097 0.14453,0.33984 0.093,0.0918 0.21913,0.13971 0.34961,0.13281 l 2.9336,-0.12109 c 0.017,0.0181 0.0346,0.0358 0.0527,0.0527 v 2.71485 c -0.0947,0.0129 -0.1886,0.0244 -0.2832,0.043 -0.34268,0.0663 -0.5909,0.3697 -0.58985,0.71875 v 1.94726 c -0.19122,0.25259 -0.46972,0.42654 -0.78515,0.46484 -0.12796,0.0155 -0.20281,0.12473 -0.2832,0.22071 h -5.06446 l -1.19336,-1.12891 h -0.002 c -0.13482,-0.12735 -0.31454,-0.19916 -0.5,-0.19922 h -0.18555 c -0.27072,0 -0.49413,0.22342 -0.49414,0.49414 v 5.49024 c 0,0.27073 0.22341,0.49219 0.49414,0.49219 h 0.18555 c 0.18427,-5.2e-4 0.36157,-0.0713 0.49609,-0.19727 l 1.19336,-1.12695 h 11.46094 c 0.24952,9.1e-4 0.44831,0.1997 0.44922,0.44922 v 2.01757 c 3e-5,0.14322 0.0616,0.27941 0.16992,0.37305 0.48033,0.41969 1.09459,0.6535 1.73242,0.6582 h 0.002 l -0.008,0.16602 -0.0215,-0.0371 -1.25781,2.17383 c -0.21652,0.37302 -0.25509,0.82399 -0.10547,1.22851 0.14065,0.38901 0.4452,0.69648 0.83398,0.83789 h 0.002 c 0.13312,0.048 0.27331,0.0617 0.41407,0.0723 l 0.01,0.0273 h 0.10742 c 0.17937,-4.1e-4 0.35667,-0.0329 0.5254,-0.0937 0.38923,-0.14158 0.6955,-0.44824 0.83593,-0.83789 0.14962,-0.40452 0.11105,-0.85353 -0.10547,-1.22656 l -1.23242,-2.13477 0.0117,-0.17578 c 0.63616,-0.006 1.24932,-0.23975 1.72852,-0.6582 0.10836,-0.0936 0.16989,-0.22983 0.16992,-0.37305 v -2.49023 c 0.006,-2.09953 -1.69538,-3.80802 -3.79492,-3.81055 h -1.33985 c -0.0803,-0.0948 -0.15426,-0.20338 -0.28125,-0.21875 h -0.002 c -0.31413,-0.0365 -0.59063,-0.20932 -0.7832,-0.45898 v -1.9375 c 0.001,-0.34905 -0.24716,-0.65044 -0.58985,-0.7168 h -0.002 c -0.0922,-0.0166 -0.18676,-0.0296 -0.28125,-0.043 v -2.72656 c 0.0181,-0.017 0.0357,-0.0346 0.0527,-0.0527 l 2.93555,0.11132 c 0.26634,0.01 0.49241,-0.20592 0.49219,-0.47265 v -0.91602 -0.004 c -0.005,-0.12087 -0.058,-0.23404 -0.14453,-0.31836 -0.0888,-0.0933 -0.21089,-0.14741 -0.33985,-0.14844 h -0.004 l -3.00196,0.11914 c -0.2293,-0.22283 -0.50849,-0.38281 -0.80859,-0.38281 z"
       id="path54" /></g></svg>
