<?xml version="1.0" encoding="UTF-8" standalone="no"?>
<svg
   version="1.1"
   viewBox="-5 -10 30.899993 30.899994"
   id="svg3"
   xml:space="preserve"
   width="30.899992"
   height="30.899994"
   xmlns="http://www.w3.org/2000/svg"
   xmlns:svg="http://www.w3.org/2000/svg"><defs
     id="defs3" /><circle
     style="fill:#99d4d9;fill-opacity:1;stroke:#ffffff;stroke-width:0.9;stroke-linejoin:bevel;stroke-dasharray:none;stroke-opacity:1"
     id="circle42"
     cx="10.450001"
     cy="5.4499974"
     r="15" /><path
     fill-rule="evenodd"
     clip-rule="evenodd"
     d="m 9.932139,-4.2168569 c 0.0387,-0.17875 0.2149,-0.29232 0.39364,-0.25367 0.26405,0.0571 1.22221,0.3298 2.22891,1.13514 0.45372,0.36295 0.73055,0.63854 0.91326,0.82042 l 0.0464,0.0461 c 0.0657,0.0651 0.10762,0.10483 0.13663,0.12961 0.45411,-0.14926 1.28744,-0.36029 2.21878,-0.24202 0.1349,0.0172 0.24563,0.11501 0.2792,0.2468 0.17531,0.68879 0.41584,2.42444004 -1.13445,3.48339 0.0329,0.29714 0.052,0.63008 0.052,1.00393 0,2.21368 -0.90942,3.35707 -1.79553,4.02616 -0.071,0.0536 -0.14549,0.10265 -0.22265,0.14749 0.1908,0.33524 0.461,0.84047 0.65021,1.29174 0.85922,0.0207 1.65983,0.19185 2.32123,0.42941 0.69723,0.25047 1.27128,0.5863 1.59069,0.92604 l 0.0247,0.0264 0.0185,0.031 c 0.94273,1.5830699 1.27671,3.3723799 1.36426,3.9102699 0.0747,0.45907 -0.17994,0.83954 -0.52783,1.12127 -0.34967,0.28325 -0.85067,0.51894 -1.43273,0.70862 -1.16989,0.38119 -2.76197,0.60683 -4.40133,0.60683 -2.04765,0 -3.73059,-0.37868 -4.89975,-0.85352 -0.58279,-0.2367 -1.04948,-0.50193 -1.37115,-0.76525 -0.16033,-0.13119 -0.29522,-0.27053 -0.38853,-0.41543 -0.0913,-0.14166 -0.16245,-0.32027 -0.136,-0.51425 0.0672,-0.49259 0.32347,-1.31386 0.60258,-2.0707 0.27865,-0.75564 0.6027,-1.5082999 0.82422,-1.8563799 l 0.0328,-0.0517 0.0492,-0.0365 c 0.55312,-0.4104 1.30678,-0.68597 1.9854,-0.85703 0.46418,-0.11696 0.91471,-0.19027 1.27114,-0.22133 -0.10834,-0.35617 -0.17715,-0.70412 -0.21378,-0.98087 -2.0399,-0.19465 -3.52568,-1.7362 -4.05049,-3.32655 -0.0428,-0.12967 -0.0874,-0.30477 -0.12749,-0.5102 -0.29064,0.0852 -0.6611,0.23616 -1.00896,0.51451 -0.48888,0.3912 -0.96013,1.05545 -1.07393,2.22314 -0.2409,2.4715 0.14755,4.4470199 0.41963,5.0931999 0.13588,0.32271 0.25679,0.73669 0.26271,1.13769 0.006,0.40074 -0.10539,0.84889 -0.50641,1.13089 -0.38262,0.26901 -0.85566,0.35179 -1.25176,0.36093 -0.39817,0.009 -0.76732,-0.055 -0.97988,-0.12583 -0.17351,-0.0578 -0.26733,-0.2453 -0.20954,-0.41875 0.0578,-0.17351 0.24528,-0.26736 0.41879,-0.20961 0.13257,0.0442 0.42492,0.0997 0.75536,0.0921 0.3325,-0.008 0.65517,-0.0782 0.88611,-0.24066 0.15002,-0.10544 0.22939,-0.29212 0.22514,-0.57928 -0.004,-0.28689 -0.0944,-0.61372 -0.21088,-0.89048 -0.32685,-0.7763 -0.71648,-2.8693099 -0.46842,-5.4144499 0.13067,-1.34062 0.68701,-2.17004 1.31931,-2.67601 0.47064,-0.37662 0.9682,-0.56193 1.32516,-0.65795 -0.009,-0.0867 -0.0167,-0.17517 -0.0229,-0.26504 -0.0332,-0.48127 -0.025,-1.02419996 0.0792,-1.52250996 -0.35433,-0.39946 -0.48199,-0.96056 -0.51102,-1.43868 -0.0322,-0.53028004 0.0509,-1.06338004 0.18022,-1.35078004 l 0.0511,-0.11362 0.11336,-0.0517 0.13744,0.30126 c -0.13744,-0.30126 -0.1376,-0.30118 -0.13744,-0.30126 l 6.4e-4,-2.9e-4 6.6e-4,-3.1e-4 0.001,-6.3e-4 0.003,-8.8e-4 0.007,-0.004 c 0.005,-0.002 0.0116,-0.004 0.0189,-0.007 0.0147,-0.005 0.0335,-0.0121 0.0569,-0.0194 0.0467,-0.0144 0.11152,-0.0314 0.19746,-0.0476 0.17175,-0.0324 0.42855,-0.0618 0.79531,-0.0618 0.37749,0 0.69419,0.0484 0.97783,0.15636 0.28517,0.10861 0.51829,0.27038 0.7369,0.47183 0.13451,0.12393 0.14305,0.33342 0.0191,0.4679 -0.12391,0.13448 -0.33338,0.14303 -0.46789,0.019 -0.17371,-0.16009 -0.33649,-0.26861 -0.52378,-0.3399 -0.18881,-0.0719 -0.42113,-0.11303 -0.74213,-0.11303 -0.33173,1e-5 -0.54696,0.0266 -0.67269,0.0503 l -0.0157,0.004 c -0.0544,0.20349 -0.099,0.53804 -0.0769,0.90233 0.0283,0.46749004 0.16048,0.87953004 0.41116,1.10577004 0.50339,0.45428 0.8632,0.57708 1.00856,0.60938 0.17855,0.0397 0.29107,0.21656 0.2514,0.39507996 -0.0397,0.17853 -0.21656,0.29108 -0.39504,0.25141 -0.19106,-0.0424 -0.47756,-0.14631 -0.83346,-0.38814996 -0.0339,0.31789996 -0.0336,0.65596996 -0.0111,0.98213996 0.0385,0.5563 0.13894,1.03982 0.21623,1.27399 0.47411,1.43678 1.8397,2.79574 3.658,2.8874 l 0.006,3.2e-4 0.005,4.7e-4 c 0.24531,0.0208 0.60372,0.023 0.98075,-0.0266 0.0451,-0.26881 0.0659,-0.44908 0.0714,-0.65908 -0.10828,-0.15258 -0.21272,-0.33981 -0.30034,-0.51067 -0.11881,-0.23166 -0.22212,-0.46398 -0.28192,-0.60962 -0.0368,-0.0898 -0.0325,-0.19119 0.012,-0.27748 0.0444,-0.0863 0.12457,-0.14868 0.21907,-0.17073 0.29517,-0.0688 0.68233,-0.0481 0.99485,-0.01 0.31418,0.0386 0.62028,0.10417 0.76571,0.15967 0.1706,0.0651 0.2563,0.25609 0.19153,0.42683 -0.24166,0.63696 -0.62942,0.99154 -0.94465,1.14631 -0.007,0.11364 -0.0174,0.2247 -0.0338,0.34682 0.20238,-0.07 0.3861,-0.16046 0.53729,-0.27464 0.73637,-0.55603 1.53234,-1.51095 1.53234,-3.49767 0,-1.60167996 -0.37318,-2.33886996 -0.60392,-2.72344996 -0.0941,-0.15682 -0.0433,-0.36022 0.11358,-0.45431004 0.15683,-0.0941 0.36021,-0.0432 0.45431,0.11357004 0.16868,0.28113 0.37723,0.68761 0.52233,1.31787 0.80068,-0.71801 0.78511,-1.72082004 0.6663,-2.35254004 -0.76147,-0.0481 -1.43426,0.14276 -1.7846,0.26486 l -0.0258,0.009 -0.0268,0.004 c -0.16662,0.0288 -0.30298,-0.0272 -0.40669,-0.0973 -0.0894,-0.0605 -0.17961,-0.14911 -0.26491,-0.23364 l -0.0466,-0.0463 c -0.1794,-0.17853 -0.43523,-0.43316 -0.86054,-0.77343 -0.90816,-0.72652 -1.76506,-0.96386 -1.95513,-1.00498 -0.17874,-0.0387 -0.29232,-0.21488 -0.25371,-0.39363 z m 0.93816,12.60027 c -0.31597,0.013 -0.81432,0.0802 -1.35367,0.21611 -0.55014,0.13867 -1.10935,0.34059 -1.54221,0.6053 0.099,0.13172 0.25623,0.29292 0.48544,0.46107 0.1712,-0.0478 0.30232,-0.10517 0.44882,-0.16934 0.0648,-0.0284 0.13265,-0.0581 0.20834,-0.089 0.30551,-0.1243 0.65558,-0.22338 1.25618,-0.22894 0.48345,-0.004 0.82558,0.0251 1.07598,0.0517 -0.24941,-0.23596 -0.43815,-0.54424 -0.57888,-0.84703 z m 2.75984,0.68373 c 0.25365,0.0518 0.57849,0.10655 1.05942,0.12748 0.27968,0.0121 0.48895,0.0449 0.66253,0.0963 0.17669,0.0523 0.30239,0.11994 0.4106,0.18212 0.0151,0.009 0.03,0.0175 0.0449,0.026 0.14934,0.0871 0.29603,0.17259 0.61524,0.24107 0.11431,-0.0813 0.21199,-0.16172 0.29286,-0.23861 0.10503,-0.0999 0.17218,-0.18464 0.21351,-0.24994 -0.25318,-0.19292 -0.63994,-0.40352 -1.13333,-0.58074 -0.55802,-0.2004 -1.22909,-0.34967 -1.95043,-0.38465 10e-4,0.27531 -0.0682,0.54855 -0.2153,0.78088 z m 2.02109,1.1025999 c -0.0656,-0.0337 -0.12298,-0.0671 -0.17742,-0.0987 l -0.0414,-0.0239 c -0.0904,-0.052 -0.16424,-0.0904 -0.26834,-0.1211899 -0.10716,-0.0317 -0.25981,-0.0591 -0.50326,-0.0697 -0.64782,-0.0281 -1.05372,-0.1157 -1.3334,-0.1761 -0.0498,-0.0107 -0.0956,-0.0206 -0.13801,-0.0292 -0.13901,-0.0279 -0.21696,-0.0358 -0.28497,-0.029 -0.0623,0.006 -0.13881,0.0274 -0.2606,0.0963 -0.17093,0.0968 -0.32491,0.16007 -0.48716,0.19126 -0.161,0.031 -0.31021,0.0262 -0.46014,0.0131 -0.0671,-0.006 -0.13663,-0.0136 -0.21193,-0.0219 -0.25775,-0.0285 -0.58279,-0.0646 -1.10531,-0.0598 -0.51385,0.004 -0.78147,0.086 -1.01267,0.1801399 -0.0511,0.0207 -0.10404,0.044 -0.1602,0.0687 -0.002,6.7e-4 -0.004,8.9e-4 -0.005,0.003 0.77346,0.35153 1.91613,0.63849 3.52668,0.63849 1.2173,0 2.20368,-0.24464 2.92369,-0.56101 z m -8.56669,0.81829 c 0.16795,-0.45551 0.34458,-0.88704 0.49763,-1.2198899 0.27238,0.3001999 0.68888,0.6170299 1.26227,0.8887499 0.87723,0.4157 2.14083,0.73611 3.88311,0.73611 1.45042,0 2.62023,-0.32378 3.45058,-0.73915 0.41444,-0.20735 0.74988,-0.44027 0.99399,-0.6723899 0.056,-0.0533 0.1094,-0.10861 0.15881,-0.16551 0.692,1.3520199 0.95756,2.7663399 1.03326,3.2317099 0.0199,0.12186 -0.0292,0.28835 -0.29093,0.50034 -0.25987,0.21047 -0.67425,0.4153 -1.22115,0.59352 -1.08803,0.35451 -2.60792,0.57425 -4.19609,0.57425 -1.96943,0 -3.56694,-0.36478 -4.65054,-0.80485 -0.54358,-0.22073 -0.94637,-0.45577 -1.20088,-0.66412 -0.12775,-0.10457 -0.20768,-0.1939 -0.25126,-0.26159 -0.0278,-0.0431 -0.0342,-0.0666 -0.0356,-0.0734 0.0581,-0.41543 0.28948,-1.17207 0.56677,-1.92386 z m 4.00112,-4.2031099 c 0.0553,0.35152 0.16425,0.80656 0.33935,1.21651 0.23994,0.56172 0.54789,0.91246 0.89471,0.97027 0.41213,0.0687 0.63578,-0.0781 0.74995,-0.25736 0.12854,-0.20178 0.1551,-0.50318 0.0433,-0.77888 -0.18709,-0.46159 -0.48643,-1.01511 -0.67756,-1.34671 -0.1002,0.0308 -0.201,0.057 -0.30106,0.0792 0.10834,0.31451 0.27887,0.77484 0.42497,1.06657 0.0818,0.16352 0.0156,0.36246 -0.14788,0.44432 -0.16352,0.0819 -0.36246,0.0157 -0.44432,-0.14782 -0.18536,-0.37027 -0.39239,-0.94691 -0.49868,-1.26426 -0.13298,0.0109 -0.26166,0.0166 -0.38279,0.0182 z m 0.91538,-2.17421 c -0.0234,-0.0456 -0.0462,-0.0914 -0.0681,-0.13636 0.10815,0.004 0.22418,0.014 0.34193,0.0284 0.0899,0.0111 0.17477,0.024 0.25139,0.0375 -0.12059,0.19398 -0.2494,0.31351 -0.35053,0.38398 -0.0557,-0.0903 -0.11523,-0.1977 -0.17471,-0.31359 z"
     fill="black"
     id="path44"
     style="fill:#ffffff;fill-opacity:1;stroke-width:0.662262" /><path
     style="fill:#ffffff;fill-opacity:1;stroke:none;stroke-width:0.1;stroke-linejoin:bevel;stroke-dasharray:none;stroke-opacity:1"
     d="m 6.139789,12.997363 c 0,0 0.36719,-1.76563 0.71875,-2.47657 0.35156,-0.7109299 0.625,-1.2968699 0.625,-1.2968699 0,0 0.74219,0.71094 0.98438,0.8749999 0.24218,0.16406 2.0625,0.90625 2.66406,0.89844 0.60156,-0.008 2.74219,0.125 3.46875,-0.10157 0.72656,-0.22656 1.79687,-0.71093 2.10156,-0.9296799 0.30469,-0.21875 0.69531,-0.6875 0.69531,-0.6875 0,0 0.66407,1.3046799 0.76563,1.5390599 0.10156,0.23437 0.40625,1.55469 0.46875,1.82031 0.0625,0.26563 0.0703,0.78125 -0.0234,0.91406 -0.0937,0.13282 -0.67187,0.66407 -0.90625,0.73438 -0.23437,0.0703 -2.38281,0.65625 -2.82031,0.6875 -0.4375,0.0312 -4.10156,0.0703 -4.80469,-0.0781 -0.70312,-0.14843 -1.51562,-0.41406 -1.83594,-0.53906 -0.32031,-0.125 -1.04687,-0.4375 -1.32812,-0.61719 -0.28125,-0.17968 -0.58594,-0.375 -0.67188,-0.45312 -0.0859,-0.0781 -0.10156,-0.28906 -0.10156,-0.28906 z"
     id="path108" /></svg>
