<?xml version="1.0" encoding="UTF-8" standalone="no"?>
<svg
   version="1.1"
   viewBox="-5 -10 30.899993 30.900024"
   id="svg3"
   xml:space="preserve"
   width="30.899992"
   height="30.900024"
   xmlns="http://www.w3.org/2000/svg"
   xmlns:svg="http://www.w3.org/2000/svg"><defs
     id="defs3" /><circle
     style="fill:#97d6ec;fill-opacity:1;stroke:#ffffff;stroke-width:0.9;stroke-linejoin:bevel;stroke-dasharray:none;stroke-opacity:1"
     id="circle44"
     cx="10.450001"
     cy="5.4500127"
     r="15" /><g
     id="g45"
     style="fill:#ffffff;fill-opacity:1;stroke:#ffffff;stroke-width:0.0177099;stroke-dasharray:none;stroke-opacity:1;image-rendering:optimizeQuality;shape-rendering:geometricPrecision;text-rendering:geometricPrecision"
     transform="matrix(2.8232779,0,0,2.8232779,-1.501781,-6.5019929)"><path
       class="fil0"
       d="m 4.2333,2.23 c 0.1811,0 0.3457,0.0737 0.4649,0.1928 l 8e-4,8e-4 c 0.1189,0.1191 0.1925,0.2836 0.1925,0.4646 0,0.1813 -0.0738,0.3458 -0.1928,0.465 C 4.5797,3.4727 4.415,3.5465 4.2333,3.5465 4.0516,3.5465 3.8869,3.4727 3.7679,3.3537 L 3.7607,3.3458 C 3.6459,3.2273 3.5751,3.0658 3.5751,2.8882 c 0,-0.1811 0.0737,-0.3457 0.1928,-0.4649 l 8e-4,-8e-4 C 3.8878,2.3036 4.0523,2.23 4.2333,2.23 Z M 7.4386,2.1811 C 7.453,2.2725 7.4439,2.357 7.4161,2.4305 7.3882,2.5042 7.3415,2.5664 7.2812,2.6135 7.2226,2.6593 7.1515,2.6908 7.0726,2.7044 6.9747,2.7213 6.8638,2.7112 6.7501,2.6681 6.6736,2.6392 6.5878,2.6124 6.4953,2.6029 6.4055,2.5937 6.3064,2.6003 6.1989,2.6364 6.1326,2.6586 6.0608,2.6228 6.0386,2.5565 6.0233,2.5108 6.0356,2.4625 6.0664,2.4296 6.2684,2.189 6.5351,1.9705 6.7762,1.8811 6.8648,1.8483 6.9527,1.8316 7.0358,1.8358 7.1276,1.8406 7.2119,1.8702 7.2837,1.9303 L 7.2915,1.9374 C 7.3497,1.9885 7.3975,2.0585 7.4313,2.1496 7.4352,2.16 7.4376,2.1706 7.4386,2.1811 Z M 7.1789,2.3413 C 7.191,2.3096 7.1949,2.2712 7.1891,2.2276 7.1714,2.183 7.1501,2.1505 7.1264,2.129 L 7.1209,2.1247 C 7.0938,2.102 7.0603,2.0907 7.023,2.0888 6.977,2.0865 6.923,2.0977 6.8646,2.1193 6.7471,2.1629 6.6202,2.2457 6.4999,2.349 L 6.5211,2.3509 C 6.6407,2.3631 6.7465,2.3958 6.8393,2.4309 6.909,2.4573 6.9745,2.464 7.03,2.4544 7.0674,2.448 7.1,2.4339 7.1254,2.4141 7.1491,2.3956 7.1678,2.3707 7.1789,2.3413 Z m 0.7487,1.682 C 7.8582,4.0904 7.781,4.1324 7.7022,4.1514 L 7.6956,4.1528 C 7.621,4.1695 7.5459,4.1657 7.4753,4.1432 7.4042,4.1205 7.3381,4.0791 7.2823,4.0214 l -8e-4,-9e-4 C 7.213,3.9492 7.1591,3.852 7.1309,3.7341 7.1121,3.6553 7.0858,3.5698 7.0412,3.487 6.9985,3.408 6.9375,3.33 6.8471,3.2616 6.7913,3.2195 6.7802,3.1398 6.8223,3.084 6.8514,3.0454 6.8986,3.0282 6.9434,3.0352 7.2553,3.0668 7.5856,3.1644 7.7957,3.3135 7.8733,3.3686 7.9366,3.4318 7.9795,3.5023 8.0272,3.5808 8.05,3.667 8.0409,3.76 8.0332,3.8399 8.0017,3.9224 7.9425,4.0059 Z M 7.6426,3.9054 C 7.6758,3.8974 7.71,3.879 7.7428,3.8494 7.7709,3.8075 7.7857,3.7697 7.7889,3.7362 7.7923,3.7008 7.7828,3.6665 7.7633,3.6343 7.7389,3.5942 7.6992,3.5556 7.6489,3.5199 7.5469,3.4475 7.4071,3.3894 7.254,3.3482 L 7.2644,3.367 C 7.3208,3.4718 7.3536,3.578 7.3769,3.6755 7.3941,3.7473 7.4253,3.8047 7.4641,3.845 l 8e-4,8e-4 C 7.4913,3.8731 7.5211,3.8922 7.5517,3.902 7.5798,3.9109 7.6096,3.9126 7.6392,3.9063 Z M 1.2775,2.2276 C 1.2717,2.2712 1.2756,2.3096 1.2877,2.3413 1.2988,2.3707 1.3175,2.3956 1.3412,2.4141 1.3666,2.4339 1.3992,2.448 1.4366,2.4544 1.4921,2.464 1.5576,2.4573 1.6273,2.4309 1.7201,2.3958 1.8259,2.3631 1.9455,2.3509 L 1.9667,2.349 C 1.8464,2.2457 1.7195,2.1629 1.602,2.1193 1.5436,2.0977 1.4896,2.0865 1.4436,2.0888 1.4063,2.0907 1.3728,2.102 1.3457,2.1247 L 1.3402,2.129 C 1.3165,2.1505 1.2952,2.183 1.2775,2.2276 Z M 1.0505,2.4305 C 1.0227,2.357 1.0136,2.2725 1.028,2.1811 1.029,2.1706 1.0314,2.16 1.0353,2.1496 1.0691,2.0585 1.1169,1.9885 1.1751,1.9374 L 1.1829,1.9303 C 1.2547,1.8702 1.339,1.8406 1.4308,1.8358 1.5139,1.8316 1.6018,1.8483 1.6904,1.8811 1.9315,1.9705 2.1982,2.189 2.4002,2.4296 2.431,2.4625 2.4433,2.5108 2.428,2.5565 2.4058,2.6228 2.334,2.6586 2.2677,2.6364 2.1602,2.6003 2.0611,2.5937 1.9713,2.6029 1.8788,2.6124 1.793,2.6392 1.7165,2.6681 1.6028,2.7112 1.4919,2.7213 1.394,2.7044 1.3151,2.6908 1.244,2.6593 1.1854,2.6135 1.1251,2.5664 1.0784,2.5042 1.0505,2.4305 Z M 0.7238,3.8494 c 0.0328,0.0296 0.067,0.048 0.1002,0.056 l 0.0034,9e-4 C 0.857,3.9126 0.8868,3.9109 0.9149,3.902 0.9455,3.8922 0.9753,3.8731 1.0017,3.8458 l 8e-4,-8e-4 C 1.0413,3.8047 1.0725,3.7473 1.0897,3.6755 1.113,3.578 1.1458,3.4718 1.2022,3.367 L 1.2126,3.3482 C 1.0595,3.3894 0.9197,3.4475 0.8177,3.5199 0.7674,3.5556 0.7277,3.5942 0.7033,3.6343 0.6838,3.6665 0.6743,3.7008 0.6777,3.7362 0.6809,3.7697 0.6957,3.8075 0.7238,3.8494 Z m 0.0406,0.302 C 0.6856,4.1324 0.6084,4.0904 0.539,4.0233 L 0.5241,4.0059 C 0.4649,3.9224 0.4334,3.8399 0.4257,3.76 0.4166,3.667 0.4394,3.5808 0.4871,3.5023 0.53,3.4318 0.5933,3.3686 0.6709,3.3135 0.881,3.1644 1.2113,3.0668 1.5232,3.0352 1.568,3.0282 1.6152,3.0454 1.6443,3.084 1.6864,3.1398 1.6753,3.2195 1.6195,3.2616 1.5291,3.33 1.4681,3.408 1.4254,3.487 1.3808,3.5698 1.3545,3.6553 1.3357,3.7341 1.3075,3.852 1.2536,3.9492 1.1851,4.0205 l -8e-4,9e-4 C 1.1285,4.0791 1.0624,4.1205 0.9913,4.1432 0.9207,4.1657 0.8456,4.1695 0.771,4.1528 Z M 0.4953,5.4042 C 0.4526,5.3489 0.4628,5.2693 0.5181,5.2266 0.5734,5.1839 0.653,5.1941 0.6957,5.2494 0.7709,5.3464 0.8666,5.4236 0.9736,5.4761 1.0803,5.5284 1.1997,5.5568 1.323,5.5568 1.4464,5.5568 1.5658,5.5284 1.6725,5.4761 1.7797,5.4236 1.8753,5.3464 1.9505,5.2494 2.0495,5.1215 2.1757,5.0199 2.3175,4.9503 2.4596,4.8806 2.617,4.8429 2.7781,4.8429 c 0.1612,0 0.3187,0.0377 0.4608,0.1074 0.1418,0.0695 0.268,0.1711 0.3671,0.2991 0.0307,0.0397 0.0649,0.076 0.1018,0.1087 V 5.052 L 2.1766,4.1023 C 2.0632,4.0308 1.9885,3.9198 1.9601,3.7985 1.9314,3.6763 1.9494,3.5428 2.0207,3.4277 L 2.0618,3.3619 C 2.1334,3.2515 2.2427,3.1789 2.3619,3.151 2.484,3.1224 2.6176,3.1403 2.7327,3.2116 L 4.2333,4.1423 5.744,3.2055 C 5.8568,3.1393 5.9862,3.1232 6.1047,3.151 6.2232,3.1787 6.3319,3.2505 6.4036,3.3599 L 6.4519,3.4378 C 6.5181,3.5506 6.5343,3.68 6.5065,3.7985 6.4788,3.9171 6.4069,4.0256 6.2976,4.0974 L 4.7588,5.052 V 5.3581 C 4.7958,5.3254 4.8299,5.2891 4.8606,5.2494 4.9597,5.1214 5.0858,5.0199 5.2276,4.9503 5.3697,4.8806 5.5272,4.8429 5.6883,4.8429 c 0.1612,0 0.3187,0.0377 0.4608,0.1074 0.1418,0.0696 0.268,0.1712 0.367,0.2991 0.0752,0.097 0.1709,0.1742 0.2779,0.2267 0.1067,0.0523 0.2261,0.0807 0.3494,0.0807 0.1234,0 0.2428,-0.0284 0.3495,-0.0807 C 7.6001,5.4236 7.6957,5.3464 7.7709,5.2494 7.8136,5.1941 7.8932,5.1839 7.9485,5.2266 8.0038,5.2693 8.014,5.3489 7.9713,5.4042 7.8723,5.532 7.746,5.6337 7.6041,5.7033 7.462,5.773 7.3045,5.8108 7.1434,5.8108 6.9824,5.8108 6.8249,5.773 6.6828,5.7033 6.5411,5.6338 6.4148,5.532 6.3157,5.4042 6.2405,5.3071 6.1449,5.23 6.0379,5.1775 5.9312,5.1252 5.8118,5.0969 5.6883,5.0969 5.5649,5.0969 5.4455,5.1252 5.3388,5.1775 5.2318,5.23 5.1362,5.3071 5.061,5.4042 4.9633,5.5305 4.8388,5.6313 4.6989,5.7008 4.6911,5.7057 4.6828,5.7097 4.674,5.7128 4.5372,5.7764 4.3868,5.8108 4.2332,5.8108 4.0795,5.8108 3.9291,5.7764 3.7922,5.7127 3.7837,5.7097 3.7757,5.7058 3.7681,5.7011 3.6281,5.6315 3.5035,5.5306 3.4056,5.4042 3.3304,5.3071 3.2348,5.23 3.1277,5.1775 3.021,5.1252 2.9016,5.0969 2.7781,5.0969 2.6547,5.0969 2.5354,5.1252 2.4287,5.1775 2.3217,5.23 2.2261,5.3071 2.1509,5.4042 2.0518,5.532 1.9256,5.6337 1.7837,5.7033 1.6416,5.773 1.4841,5.8108 1.323,5.8108 1.162,5.8108 1.0045,5.773 0.8624,5.7033 0.7206,5.6337 0.5944,5.532 0.4953,5.4042 Z m 3.4665,0.1051 c 0.0856,0.0311 0.1773,0.0475 0.2714,0.0475 0.0942,0 0.186,-0.0165 0.2716,-0.0476 V 4.9818 C 4.5053,4.9394 4.5266,4.898 4.5653,4.8741 L 6.1539,3.8888 C 6.2092,3.8545 6.2456,3.8003 6.2595,3.7409 6.2733,3.6819 6.2649,3.6174 6.2313,3.5621 L 6.1949,3.5035 C 6.1607,3.4482 6.1065,3.4119 6.0471,3.398 5.988,3.3842 5.9235,3.3926 5.8683,3.4262 L 4.2998,4.3989 c -0.0395,0.0243 -0.0909,0.026 -0.133,0 L 2.5923,3.4226 C 2.5385,3.392 2.4765,3.3847 2.4195,3.398 2.3626,3.4113 2.3105,3.4453 2.2761,3.4966 L 2.2317,3.5682 C 2.201,3.622 2.1937,3.684 2.2071,3.7409 2.2204,3.7978 2.2545,3.85 2.3058,3.8844 l 1.5868,0.9843 c 0.0411,0.021 0.0692,0.0638 0.0692,0.1131 z M 0.4953,6.225 C 0.4526,6.1697 0.4628,6.0901 0.5181,6.0474 0.5734,6.0047 0.653,6.0149 0.6957,6.0702 0.7709,6.1672 0.8666,6.2444 0.9736,6.2969 1.0803,6.3492 1.1997,6.3776 1.323,6.3776 1.4464,6.3776 1.5658,6.3492 1.6725,6.2969 1.7797,6.2444 1.8753,6.1672 1.9505,6.0702 2.0496,5.9424 2.1758,5.8407 2.3176,5.7711 2.4598,5.7015 2.6171,5.6637 2.7781,5.6637 c 0.1611,0 0.3185,0.0378 0.4607,0.1074 C 3.3807,5.8407 3.507,5.9424 3.606,6.0702 3.6811,6.1674 3.7767,6.2444 3.8837,6.2969 3.9904,6.3492 4.1098,6.3776 4.2332,6.3776 4.3567,6.3776 4.4761,6.3493 4.5829,6.297 4.6899,6.2445 4.7855,6.1674 4.8606,6.0702 4.9596,5.9424 5.086,5.8408 5.2277,5.7711 5.3699,5.7015 5.5273,5.6637 5.6883,5.6637 c 0.1611,0 0.3185,0.0378 0.4606,0.1074 0.1419,0.0696 0.2682,0.1713 0.3672,0.2991 0.0752,0.097 0.1709,0.1742 0.2779,0.2267 0.1067,0.0523 0.2261,0.0807 0.3494,0.0807 0.1234,0 0.2428,-0.0284 0.3495,-0.0807 C 7.6001,6.2444 7.6957,6.1672 7.7709,6.0702 7.8136,6.0149 7.8932,6.0047 7.9485,6.0474 8.0038,6.0901 8.014,6.1697 7.9713,6.225 7.8723,6.3528 7.746,6.4545 7.6041,6.5241 7.462,6.5938 7.3045,6.6316 7.1434,6.6316 6.9824,6.6316 6.8249,6.5938 6.6828,6.5241 6.5411,6.4546 6.4148,6.3528 6.3157,6.225 6.2405,6.128 6.1449,6.0508 6.0377,5.9983 5.9311,5.946 5.8117,5.9177 5.6883,5.9177 5.565,5.9177 5.4456,5.946 5.3389,5.9983 5.2319,6.0509 5.1362,6.128 5.061,6.225 4.9621,6.3529 4.8359,6.4546 4.6941,6.5242 4.5518,6.5939 4.3944,6.6316 4.2332,6.6316 4.0721,6.6316 3.9146,6.5938 3.7725,6.5241 3.6307,6.4545 3.5045,6.3529 3.4056,6.225 3.3304,6.128 3.2348,6.0508 3.1276,5.9983 3.0209,5.946 2.9015,5.9177 2.7781,5.9177 2.6548,5.9177 2.5355,5.946 2.4288,5.9983 2.3218,6.0508 2.2261,6.128 2.1509,6.225 2.0518,6.3528 1.9256,6.4545 1.7837,6.5241 1.6416,6.5938 1.4841,6.6316 1.323,6.6316 1.162,6.6316 1.0045,6.5938 0.8624,6.5241 0.7206,6.4545 0.5944,6.3528 0.4953,6.225 Z M 4.5193,2.6021 C 4.4464,2.5291 4.3452,2.484 4.2333,2.484 4.1214,2.484 4.0202,2.5291 3.9475,2.6019 3.8742,2.6751 3.8291,2.7763 3.8291,2.8882 c 0,0.1089 0.043,0.2079 0.1126,0.2805 L 3.9475,3.1741 C 4.0206,3.2472 4.1217,3.2925 4.2333,3.2925 4.3449,3.2925 4.446,3.2472 4.5191,3.1741 4.5922,3.1013 4.6375,3 4.6375,2.8882 4.6375,2.7763 4.5924,2.6751 4.5193,2.6021 Z"
       id="path45"
       style="fill:#ffffff;fill-opacity:1;fill-rule:nonzero;stroke:#ffffff;stroke-width:0.0177099;stroke-dasharray:none;stroke-opacity:1" /></g><circle
     style="fill:#ffffff;fill-opacity:1;stroke:none;stroke-width:0.1;stroke-linejoin:bevel;stroke-dasharray:none;stroke-opacity:1"
     id="path109"
     cx="10.450001"
     cy="1.6356207"
     r="1.1965258" /><path
     style="fill:#ffffff;fill-opacity:1;stroke:none;stroke-width:0.1;stroke-linejoin:bevel;stroke-dasharray:none;stroke-opacity:1"
     d="m 5.479219,2.6789071 c -0.67396,0.28726 -0.81759,0.23202 -0.99437,0.56348 -0.17677,0.33145 -0.28726,0.76235 -0.0552,1.1159 0.23202,0.35355 1.66833,1.25953 1.66833,1.25953 l 3.15554,1.97769 v 1.5247 c 0,0 0.58944,0.43192 1.26912,0.37723 0.67969,-0.0547 1.125,-0.34375 1.125,-0.34375 l 0.0312,-1.64063 1.16407,-0.75 2.92968,-1.85156 c 0,0 0.53907,-0.25781 0.65625,-0.54687 0.11719,-0.28907 0.0625,-0.6875 -0.0469,-0.90625 -0.10938,-0.21875 -0.3125,-0.51027 -0.58594,-0.62623 -0.27344,-0.11596 -0.78906,-0.0535 -1.04687,0.0559 -0.25782,0.10938 -4.29917,2.56196 -4.29917,2.56196 z"
     id="path110" /><path
     style="fill:#ffffff;fill-opacity:1;stroke:none;stroke-width:0.1;stroke-linejoin:bevel;stroke-dasharray:none;stroke-opacity:1"
     d="m 2.639749,2.3916471 c 0,0 -1.32583,0.0884 -1.71252996,0.47509 -0.3867,0.3867 -1.04961,0.78444 -0.81759,1.29268 0.23202,0.50823 0.68501,0.99437 0.96121996,0.79549 0.27622,-0.19887 0.95589,-0.47385 0.67396,-0.62976 -0.28192,-0.15592 0.0663,-0.69606 0.26517,-1.01647 0.19887,-0.32041 0.62977,-0.91703 0.62977,-0.91703 z"
     id="path111" /><path
     style="fill:#ffffff;fill-opacity:1;stroke:none;stroke-width:0.1;stroke-linejoin:bevel;stroke-dasharray:none;stroke-opacity:1"
     d="m 2.175709,-0.8566229 c -0.29831,0.39775 -0.54138,0.47509 -0.3867,0.87283 0.15468,0.39775 0.38669,0.7513 0.61872,0.78445 0.23202,0.0331 1.02751,-0.22097 1.17114,-0.23202 0.14363,-0.011 0.65187,-0.0442 0.8176,-0.011 0.16572,0.0331 0.49718,0.0221 0.49718,0.0221 l -0.51928,-0.65187 c 0,0 -0.57453,-0.60767 -0.86179,-0.69605 -0.28726,-0.0884 -0.60767,-0.28727 -0.7734,-0.27622 -0.16572,0.0111 -0.56347,0.18783 -0.56347,0.18783 z"
     id="path112" /><path
     style="fill:#ffffff;fill-opacity:1;stroke:none;stroke-width:0.1;stroke-linejoin:bevel;stroke-dasharray:none;stroke-opacity:1"
     d="m 16.141069,0.2592771 0.97227,-0.79549 c 0,0 1.00542,-0.50824 1.27058,-0.4088 0.26517,0.0994 0.61872,0.23202 0.69606,0.51928 0.0773,0.28726 0.14363,0.58557 -0.011,0.78445 -0.15468,0.19887 -0.32041,0.35355 -0.56347,0.3867 -0.24307,0.0331 -0.41985,0 -0.67397,-0.0884 -0.25411,-0.0884 -0.41984,-0.21793 -0.62976,-0.21793 -0.20993,0 -0.4639,-0.0914 -0.58558,-0.10248 -0.12167,-0.0111 -0.47508,-0.0773 -0.47508,-0.0773 z"
     id="path113" /><path
     style="fill:#ffffff;fill-opacity:1;stroke:none;stroke-width:0.1;stroke-linejoin:bevel;stroke-dasharray:none;stroke-opacity:1"
     d="m 18.273439,2.4026971 c 0,0 0.58557,1.08276 0.64081,1.27058 0.0552,0.18783 0.18783,0.76235 0.41985,0.92808 0.23202,0.16573 0.60767,0.33145 0.88388,0.22097 0.27621,-0.11049 0.56348,-0.30936 0.55243,-0.55243 -0.011,-0.24307 0.0221,-0.64081 -0.20993,-0.85074 -0.23202,-0.20992 -0.60767,-0.38669 -0.77339,-0.56347 -0.16573,-0.17678 -0.7513,-0.34251 -0.7513,-0.34251 z"
     id="path114" /></svg>
