<?xml version="1.0" encoding="UTF-8" standalone="no"?>
<svg
   version="1.1"
   viewBox="-5 -10 30.899993 30.899998"
   id="svg3"
   xml:space="preserve"
   width="30.899992"
   height="30.899998"
   xmlns="http://www.w3.org/2000/svg"
   xmlns:svg="http://www.w3.org/2000/svg"><defs
     id="defs3" /><circle
     style="fill:#89abb7;fill-opacity:1;stroke:#ffffff;stroke-width:0.9;stroke-linejoin:bevel;stroke-dasharray:none;stroke-opacity:1"
     id="circle35"
     cx="10.450001"
     cy="5.4500008"
     r="15" /><g
     id="g36"
     style="fill:#ffffff;stroke:#ffffff;stroke-width:0.970888"
     transform="matrix(0.17826764,0,0,0.17826764,1.538079,-3.4630285)"><g
       id="path35"><path
         style="color:#000000;stroke:none;-inkscape-stroke:none"
         d="m 50.102,100 c -10.801,0 -21.301,-5.8008 -27.5,-15.102 -5.8984,-8.6992 -7.1992,-19.102 -3.8008,-30.102 4.8984,-15.801 13.898,-33 26.699,-51.199 0.19922,-0.30078 0.5,-0.60156 0.69922,-1 0.19922,-0.30078 0.39844,-0.60156 0.69922,-1 0.80078,-1.1016 2,-1.6016 3.3008,-1.6016 1.3008,0 2.3984,0.60156 3.1992,1.6016 10.5,14 19.801,30.898 26.199,47.699 2.1016,5.3008 3.1992,10.699 3.3984,15.898 0.30078,7.3984 -1.6016,14.301 -5.6016,20.301 -5.9961,9.1055 -16.195,14.504 -27.293,14.504 z M 50.19966,2.898 c -0.19922,0 -0.60156,0.10156 -0.89844,0.5 -0.30078,0.30078 -0.5,0.60156 -0.69922,0.90234 -0.19922,0.30078 -0.39844,0.60156 -0.69922,1 -12.703,17.898 -21.504,34.898 -26.301,50.301 -3.1992,10.102 -2,19.602 3.3984,27.602 5.6992,8.5 15.301,13.801 25.102,13.801 10.102,0 19.398,-4.8984 24.898,-13.199 3.6992,-5.5 5.3984,-11.801 5.1016,-18.602 -0.19922,-4.8984 -1.3008,-9.8984 -3.1992,-15 -6.3008,-16.5 -15.5,-33.199 -25.801,-47 C 50.8008,3.00022 50.39846,2.89865 50.19924,2.89865 Z"
         id="path86" /><path
         style="color:#000000;stroke:none;-inkscape-stroke:none"
         d="m 50.199219,-0.49023438 c -1.425195,0 -2.798124,0.57119627 -3.69336,1.80273438 -0.30547,0.4052458 -0.513274,0.7171949 -0.710937,1.015625 l -0.01563,0.025391 -0.01367,0.027344 C 45.610108,2.6918935 45.336865,2.9640217 45.095703,3.328125 32.277447,21.553357 23.255631,38.788955 18.337891,54.652344 14.903703,65.768183 16.2205,76.349384 22.201172,85.169922 l -0.0039,-0.002 c 6.287633,9.434188 16.929499,15.318358 27.904296,15.318358 h 0.828125 v -0.0527 c 10.929662,-0.26412 20.933304,-5.657589 26.869141,-14.669915 l 0.002,-0.002 C 81.855314,79.678911 83.784662,72.667763 83.480469,65.175781 83.279223,59.923384 82.171134,54.47309 80.050781,49.123047 v -0.002 C 73.635649,32.2756 64.316689,15.346081 53.787109,1.3066406 l -0.0039,-0.00781 -0.0059,-0.00586 c -0.876672,-1.09483452 -2.127628,-1.78320498 -3.57809,-1.78320498 z m 0,0.97070313 c 1.149194,0 2.091998,0.51361334 2.816406,1.41601565 0.0012,0.00152 0.0027,0.00238 0.0039,0.00391 10.466397,13.9577496 19.745982,30.8172046 26.125,47.5683596 v 0.0039 l 0.002,0.002 c 2.081325,5.249659 3.168155,10.594614 3.365235,15.738282 0.296907,7.303137 -1.577402,14.097547 -5.521485,20.013671 l -0.002,0.002 C 71.236235,93.963485 61.540243,99.144104 50.931635,99.4122 l 0.0039,-2.023437 c 9.926744,-0.268113 19.031583,-5.111342 24.466797,-13.3125 l 0.002,-0.002 c 3.755194,-5.58428 7.39814,-12.205619 7.097711,-19.09861 -0.201662,-4.957637 -3.231473,-9.801217 -5.144621,-14.94245 v -0.002 l -0.002,-0.002 C 71.03744,33.484179 61.820634,16.752498 51.490234,2.9121094 l -0.04883,-0.064453 -0.06836,-0.046875 c -0.09714,-0.065602 -0.184682,-0.045843 -0.28125,-0.09375 v -0.294922 l -0.002,0.2949219 c -0.05351,-0.02649 -0.103183,-0.029428 -0.15625,-0.050781 l 0.158203,-0.2441406 h -0.892578 c -0.362029,0 -0.881376,0.1637936 -1.279297,0.6914062 -0.311788,0.3223371 -0.533298,0.6437972 -0.722656,0.9296875 -0.19922,0.3007797 -0.389539,0.5876649 -0.681641,0.9746094 l -0.0039,0.00586 -0.0039,0.00586 C 34.782104,22.949526 29.530985,25.027449 24.714019,40.494559 c -3.235433,10.218087 -5.595446,34.860485 -0.116363,42.98005 5.787654,8.631924 15.527877,14.015625 25.503906,14.015625 0.149672,0 0.288182,-0.05062 0.4375,-0.05273 l -0.01172,2.025391 c -0.145454,0.0019 -0.280001,0.05078 -0.425782,0.05078 -10.62718,0 -20.985348,-5.716573 -27.095703,-14.884766 l -0.002,-0.002 V 84.625 C 17.18779,76.047156 15.90302,65.823592 19.265625,54.939453 24.143726,39.203931 33.116701,22.045789 45.896484,3.8769531 l 0.0039,-0.00586 0.0039,-0.00586 c 0.157291,-0.2374548 0.485606,-0.5649349 0.728528,-1.05078 l -0.0293,0.050781 C 46.802731,2.5644544 46.99305,2.275616 47.285152,1.8886716 l 0.0039,-0.00195 0.002,-0.00391 c 0.706323,-0.97165969 1.7318,-1.40234375 2.908203,-1.40234375 z m -0.0039,2.90429685 h 0.0039 c 0.03134,0 -1.077693,18.4832874 -0.870007,18.5978114 0.105039,0.140919 1.648011,-18.0948023 1.752819,-17.9532801 l 0.0078,38.8849791 c 4.399612,-37.1646253 -21.554294,-8.3052 -29.025425,7.083425 -5.111297,10.527968 8.950626,41.303955 3.339891,32.935896 l -0.002,-0.002 c -5.317367,-7.879916 -6.5001,-17.1984 -3.337891,-27.183594 v -0.002 C 26.841478,40.407234 35.618562,23.448001 48.298828,5.5820312 48.602547,5.1788478 48.808884,4.8657507 49.005859,4.5683594 49.205079,4.2675797 49.382386,4.0043326 49.644531,3.7421875 l 0.02539,-0.025391 0.02148,-0.029297 C 49.88491,3.4277936 50.157752,3.3854018 50.195307,3.3847651 Z M 61.899488,29.657153 c 2.335231,8.631347 4.284033,17.50104 7.255437,25.2823 1.882694,5.060506 0,8.566898 0,8.566898 l -3.80452,5.472721 c 0,0 7.954669,13.954525 9.247251,14.556131 a 0.59520378,0.59520378 179.7753 0 0 1.169617,-0.0046 C 71.127725,74.475379 72.395646,39.434535 72.395646,39.434535 L 65.513328,28.00089 c -7.965866,-13.233752 -7.624373,-13.167232 -3.61384,1.656263 z"
         id="path87" /></g><g
       id="path36"><path
         style="color:#000000;stroke:none;-inkscape-stroke:none"
         d="m 74.102,66.199 c -0.69922,7.8984 -4.8008,15.199 -11,20 -0.69922,0.5 -0.60156,1.6992 0,2.1992 0.69922,0.69922 1.6016,0.5 2.1992,0 6.8984,-5.3008 11.199,-13.602 11.898,-22.199 0.19922,-2 -2.8984,-2 -3.0977,0 z"
         id="path88" /><path
         style="color:#000000;stroke:none;-inkscape-stroke:none"
         d="m 75.798828,64.212891 c -0.983365,0 -2.055431,0.690568 -2.179687,1.9375 v 0.0059 l -0.002,0.0059 c -0.68842,7.756107 -4.72132,14.935001 -10.8125,19.652344 l 0.01563,-0.0098 c -0.507673,0.363029 -0.707169,0.959294 -0.691406,1.507813 0.01555,0.541049 0.226864,1.07583 0.652344,1.439453 0.436519,0.425016 0.985512,0.612497 1.490234,0.580078 0.510563,-0.03279 0.969991,-0.253805 1.335938,-0.558594 7.006143,-5.388898 11.362104,-13.80138 12.074219,-22.52539 0.0621,-0.623467 -0.148797,-1.176415 -0.521485,-1.527344 -0.372687,-0.350929 -0.869645,-0.507812 -1.361328,-0.507812 z m 0,0.972656 c 0.282732,0 0.537,0.09312 0.695313,0.242187 0.158313,0.149071 0.260162,0.346125 0.222656,0.722657 l -0.002,0.0059 v 0.0039 c -0.688011,8.461848 -4.927458,16.642523 -11.708985,21.853516 l -0.0078,0.0059 -0.0078,0.0059 c -0.230906,0.193195 -0.51859,0.321019 -0.78125,0.33789 -0.26266,0.01687 -0.504195,-0.04912 -0.763672,-0.308594 l -0.01563,-0.01563 -0.01758,-0.01367 c -0.163996,-0.136309 -0.303847,-0.439155 -0.3125,-0.740235 -0.0087,-0.30108 0.09361,-0.554435 0.285157,-0.691406 l 0.0078,-0.0059 0.0059,-0.0059 c 6.303986,-4.882151 10.472357,-12.298033 11.185547,-20.333984 1.08e-4,-0.0011 0.0018,-8.75e-4 0.002,-0.002 1.14e-4,-0.0013 -1.13e-4,-0.0026 0,-0.0039 0.0781,-0.74763 0.649306,-1.05664 1.212891,-1.05664 z"
         id="path89" /></g></g><g
     id="layer1"
     transform="translate(186.32784,-36.045834)"><path
       style="fill:#ffffff;fill-opacity:1;stroke:none;stroke-width:0.259617;stroke-linejoin:bevel;stroke-dasharray:none;stroke-opacity:1"
       d="m -175.84086,32.668457 c 0,0 -3.7156,5.532651 -4.54319,7.133218 -0.82759,1.600566 -1.40855,4.800363 -1.12571,6.047054 0.28285,1.246691 2.7223,3.823159 3.65249,4.094954 0.9302,0.271795 2.75887,0.547283 3.82925,0.07578 1.07039,-0.471501 2.37485,-1.651896 2.74511,-2.545853 0.37028,-0.893958 1.4328,-3.267166 0.94624,-4.401156 -0.48656,-1.13399 -2.22572,-5.541062 -3.03183,-6.367255 -0.80611,-0.826194 -2.47236,-4.036743 -2.47236,-4.036742 z"
       id="path94" /></g><path
     style="color:#000000;fill:#abcbd6;fill-opacity:1;stroke-width:0.86539;-inkscape-stroke:none"
     d="m 15.050729,8.2001475 c 0.0411,0 0.076,0.01453 0.0947,0.03211 0.0187,0.01759 0.0309,0.03684 0.0254,0.09296 v 0.0017 c -0.12167,1.496428 -0.87201,2.9445745 -2.07051,3.8655205 l -0.002,0.0017 -0.003,0.0017 c -0.0351,0.02938 -0.0775,0.04842 -0.11325,0.0507 -0.0357,0.0022 -0.0649,-0.0041 -0.1031,-0.04226 l -0.003,-0.0051 -0.005,-0.0034 c -0.0171,-0.01417 -0.0394,-0.05708 -0.0406,-0.09972 -8.7e-4,-0.04265 0.012,-0.07186 0.0321,-0.0862 l 0.003,-0.0017 0.002,-0.0017 c 1.13314,-0.877565 1.88128,-2.2111215 2.00966,-3.6559345 0.0112,-0.112242 0.0919,-0.15043 0.17409,-0.15043 z"
     id="path98" /><path
     style="color:#000000;fill:#abcbd6;fill-opacity:1;stroke-width:0.86539;-inkscape-stroke:none"
     d="m 15.050729,7.9415455 c -0.12647,0 -0.22672,0.08364 -0.31199,0.192839 v 1e-6 l -0.0339,0.05196 c -0.0247,0.04613 -0.081,0.08024 -0.0868,0.138883 v 0.0017 c -0.12134,1.370612 -0.83328,2.6395645 -1.90995,3.4733915 l 0.003,-0.0017 c -0.10459,0.07479 -0.14341,0.195428 -0.14028,0.304239 0.003,0.107013 0.0447,0.212532 0.13183,0.287337 0.0855,0.0814 0.1961,0.121338 0.29579,0.114934 0.1012,-0.0065 0.18933,-0.04962 0.26029,-0.108174 1.25946,-0.968696 2.04235,-2.4790465 2.17024,-4.0463735 0.0121,-0.122148 -0.0305,-0.236066 -0.10648,-0.307619 -0.076,-0.07155 -0.17517,-0.101413 -0.27213,-0.101413 z"
     id="path2-7" /></svg>
