<?xml version="1.0" encoding="UTF-8" standalone="no"?>
<svg
   version="1.1"
   viewBox="-5 -10 100 100"
   id="svg2"
   sodipodi:docname="home-icon.svg"
   inkscape:version="1.3.2 (091e20e, 2023-11-25)"
   inkscape:export-filename="home-icon"
   inkscape:export-xdpi="96"
   inkscape:export-ydpi="96"
   width="100"
   height="100"
   xmlns:inkscape="http://www.inkscape.org/namespaces/inkscape"
   xmlns:sodipodi="http://sodipodi.sourceforge.net/DTD/sodipodi-0.dtd"
   xmlns="http://www.w3.org/2000/svg"
   xmlns:svg="http://www.w3.org/2000/svg">
  <defs
     id="defs2" />
  <sodipodi:namedview
     id="namedview2"
     pagecolor="#505050"
     bordercolor="#ffffff"
     borderopacity="1"
     inkscape:showpageshadow="0"
     inkscape:pageopacity="0"
     inkscape:pagecheckerboard="1"
     inkscape:deskcolor="#d1d1d1"
     inkscape:zoom="1.8446336"
     inkscape:cx="56.37976"
     inkscape:cy="35.23735"
     inkscape:window-width="1312"
     inkscape:window-height="449"
     inkscape:window-x="0"
     inkscape:window-y="38"
     inkscape:window-maximized="0"
     inkscape:current-layer="svg2" />
  <path
     d="m 53.21055,33.264225 c 3.6797,0.04297 6.6445,3.0352 6.6445,6.7227 v 25.113 c 0,1.3047 -1.0586,2.3633 -2.3633,2.3633 v -0.0039 c -1.3047,0 -2.3594,-1.0547 -2.3594,-2.3594 v -25.113 c 0,-1.1016 -0.89453,-1.9961 -1.9961,-2 h -16.277 c -1.1016,0.0039 -1.9961,0.89844 -1.9961,2 v 25.113 c 0,1.3047 -1.0547,2.3594 -2.3555,2.3633 l -0.0039,-0.0039 v 0.0039 c -1.3047,0 -2.3633,-1.0586 -2.3633,-2.3633 v -25.113 c 0,-3.6875 2.9688,-6.6797 6.6445,-6.7227 z m -8.2148,-27.641 v 0.0039 c -0.0039,-0.0039 -0.0039,-0.0039 -0.0078,-0.0039 -1.2383,0 -2.4023,0.33984 -3.3984,0.92578 l -29.902,17.262 c -0.83984,0.48437 -1.1641,1.4141 -1.1641,2.3164 v 41.523 c 0,3.6875 2.9648,6.6836 6.6406,6.7266 h 55.668 c 3.6758,-0.04297 6.6445,-3.0391 6.6445,-6.7266 0,-0.0078 -0.0078,-41.551 -0.0078,-41.551 0,-0.92578 -0.33594,-1.8086 -1.168,-2.2891 l -29.871,-17.242 c -1.0039,-0.60156 -2.1797,-0.94531 -3.4336,-0.94531 z"
     id="path1"
     style="fill:#f29b37;fill-opacity:1" />
</svg>
