<?xml version="1.0" encoding="UTF-8" standalone="no"?>
<svg
   version="1.1"
   x="0px"
   y="0px"
   viewBox="0 0 90 90"
   xml:space="preserve"
   id="svg11"
   sodipodi:docname="noun-layers-4920433.svg"
   width="90"
   height="90"
   inkscape:version="1.3.2 (091e20e, 2023-11-25)"
   xmlns:inkscape="http://www.inkscape.org/namespaces/inkscape"
   xmlns:sodipodi="http://sodipodi.sourceforge.net/DTD/sodipodi-0.dtd"
   xmlns="http://www.w3.org/2000/svg"
   xmlns:svg="http://www.w3.org/2000/svg"><defs
     id="defs11" /><sodipodi:namedview
     id="namedview11"
     pagecolor="#505050"
     bordercolor="#ffffff"
     borderopacity="1"
     inkscape:showpageshadow="0"
     inkscape:pageopacity="0"
     inkscape:pagecheckerboard="1"
     inkscape:deskcolor="#d1d1d1"
     inkscape:zoom="2.0977778"
     inkscape:cx="44.809322"
     inkscape:cy="56.25"
     inkscape:window-width="1312"
     inkscape:window-height="449"
     inkscape:window-x="0"
     inkscape:window-y="38"
     inkscape:window-maximized="0"
     inkscape:current-layer="svg11" /><g
     id="g10"
     style="fill:#f29b37;fill-opacity:1"><path
       d="m 68.691,58.509 -2.642,1.422 c -0.729,0.394 -1.002,1.303 -0.61,2.032 0.271,0.503 0.788,0.789 1.322,0.789 0.24,0 0.483,-0.058 0.709,-0.179 l 2.642,-1.422 c 0.729,-0.394 1.002,-1.303 0.61,-2.032 -0.393,-0.729 -1.302,-1.002 -2.031,-0.61 z"
       id="path1"
       style="fill:#f29b37;fill-opacity:1" /><path
       d="m 53.621,66.624 -4.143,2.23 c -0.729,0.393 -1.002,1.302 -0.61,2.031 0.271,0.503 0.788,0.789 1.322,0.789 0.24,0 0.483,-0.058 0.709,-0.18 l 4.143,-2.23 c 0.729,-0.393 1.002,-1.302 0.61,-2.031 -0.392,-0.729 -1.302,-1.004 -2.031,-0.609 z"
       id="path2"
       style="fill:#f29b37;fill-opacity:1" /><path
       d="m 61.906,62.162 -4.143,2.23 c -0.729,0.393 -1.002,1.302 -0.61,2.031 0.271,0.503 0.788,0.789 1.322,0.789 0.24,0 0.483,-0.058 0.709,-0.18 l 4.143,-2.23 c 0.729,-0.393 1.002,-1.302 0.61,-2.031 -0.392,-0.729 -1.301,-1.003 -2.031,-0.609 z"
       id="path3"
       style="fill:#f29b37;fill-opacity:1" /><path
       d="m 45.335,71.084 -1.931,1.04 -1.931,-1.04 c -0.729,-0.391 -1.639,-0.118 -2.032,0.61 -0.393,0.729 -0.12,1.639 0.61,2.032 l 2.642,1.422 c 0.222,0.119 0.466,0.179 0.711,0.179 0.245,0 0.489,-0.06 0.711,-0.179 l 2.642,-1.422 c 0.729,-0.394 1.002,-1.303 0.61,-2.032 -0.393,-0.729 -1.304,-1.002 -2.032,-0.61 z"
       id="path4"
       style="fill:#f29b37;fill-opacity:1" /><path
       d="m 29.046,64.394 -4.143,-2.231 c -0.729,-0.393 -1.639,-0.12 -2.032,0.609 -0.393,0.729 -0.12,1.639 0.609,2.031 l 4.143,2.231 c 0.227,0.122 0.47,0.18 0.71,0.18 0.534,0 1.051,-0.285 1.322,-0.789 0.393,-0.73 0.12,-1.639 -0.609,-2.031 z"
       id="path5"
       style="fill:#f29b37;fill-opacity:1" /><path
       d="m 37.331,68.854 -4.143,-2.23 c -0.729,-0.395 -1.639,-0.119 -2.032,0.609 -0.393,0.729 -0.12,1.639 0.61,2.031 l 4.143,2.23 c 0.226,0.122 0.47,0.18 0.709,0.18 0.534,0 1.051,-0.286 1.322,-0.789 0.393,-0.729 0.121,-1.638 -0.609,-2.031 z"
       id="path6"
       style="fill:#f29b37;fill-opacity:1" /><path
       d="m 20.759,59.931 -2.642,-1.422 c -0.729,-0.391 -1.639,-0.118 -2.032,0.61 -0.393,0.729 -0.12,1.639 0.61,2.032 l 2.642,1.422 c 0.226,0.121 0.47,0.179 0.709,0.179 0.534,0 1.051,-0.286 1.322,-0.789 0.394,-0.73 0.121,-1.639 -0.609,-2.032 z"
       id="path7"
       style="fill:#f29b37;fill-opacity:1" /><path
       d="M 68.691,48.51 43.404,62.124 18.118,48.51 c -0.729,-0.395 -1.639,-0.119 -2.032,0.609 -0.393,0.729 -0.12,1.639 0.61,2.031 l 25.998,13.997 c 0.222,0.12 0.466,0.18 0.711,0.18 0.245,0 0.489,-0.06 0.711,-0.18 L 70.113,51.15 c 0.729,-0.393 1.002,-1.302 0.61,-2.031 C 70.329,48.39 69.42,48.114 68.691,48.51 Z"
       id="path8"
       style="fill:#f29b37;fill-opacity:1" /><path
       d="m 70.9,39.81 c 0.01,0.56 -0.29,1.07 -0.79,1.34 l -25.99,14 c -0.23,0.12 -0.47,0.18 -0.72,0.18 -0.24,0 -0.48,-0.06 -0.71,-0.18 l -25.99,-14 c -0.5,-0.27 -0.8,-0.78 -0.79,-1.34 0.01,-0.56 0.32,-1.07 0.83,-1.32 l 25.99,-13 c 0.43,-0.21 0.92,-0.21 1.35,0 l 25.99,13 c 0.5,0.25 0.82,0.76 0.83,1.32 z"
       id="path9"
       style="fill:#f29b37;fill-opacity:1" /><path
       d="M 58.5,24 H 60 v 1.5 c 0,0.829 0.671,1.5 1.5,1.5 0.829,0 1.5,-0.671 1.5,-1.5 V 24 h 1.5 C 65.329,24 66,23.329 66,22.5 66,21.671 65.329,21 64.5,21 H 63 V 19.5 C 63,18.671 62.329,18 61.5,18 60.671,18 60,18.671 60,19.5 V 21 h -1.5 c -0.829,0 -1.5,0.671 -1.5,1.5 0,0.829 0.671,1.5 1.5,1.5 z"
       id="path10"
       style="fill:#f29b37;fill-opacity:1" /></g></svg>
