<?xml version="1.0" encoding="UTF-8" standalone="no"?>
<svg
   version="1.1"
   x="0px"
   y="0px"
   viewBox="0 0 100 100"
   xml:space="preserve"
   id="svg3"
   sodipodi:docname="search-icon3 copy.svg"
   width="100"
   height="100"
   inkscape:version="1.3.2 (091e20e, 2023-11-25)"
   xmlns:inkscape="http://www.inkscape.org/namespaces/inkscape"
   xmlns:sodipodi="http://sodipodi.sourceforge.net/DTD/sodipodi-0.dtd"
   xmlns="http://www.w3.org/2000/svg"
   xmlns:svg="http://www.w3.org/2000/svg"><defs
     id="defs3" /><sodipodi:namedview
     id="namedview3"
     pagecolor="#505050"
     bordercolor="#ffffff"
     borderopacity="1"
     inkscape:showpageshadow="0"
     inkscape:pageopacity="0"
     inkscape:pagecheckerboard="1"
     inkscape:deskcolor="#d1d1d1"
     inkscape:zoom="16.170174"
     inkscape:cx="50.710648"
     inkscape:cy="54.173814"
     inkscape:window-width="1512"
     inkscape:window-height="839"
     inkscape:window-x="0"
     inkscape:window-y="38"
     inkscape:window-maximized="1"
     inkscape:current-layer="svg3" /><rect
     style="fill:#f29b37;fill-opacity:1;stroke:none;stroke-width:0.27918;stroke-linecap:square;stroke-miterlimit:4.7;stroke-dasharray:none;stroke-opacity:1;paint-order:stroke fill markers"
     id="rect3"
     width="20"
     height="20"
     x="40"
     y="40"
     ry="0.76018196" /><g
     id="g3"><path
       style="fill:#ffffff;fill-opacity:1;stroke-width:0.256674"
       d="m 56.083162,56.416838 c -0.179671,0.179671 -0.462012,0.28234 -0.77002,0.28234 0,0 0,0 0,0 -0.308009,0 -0.564682,-0.102669 -0.770021,-0.28234 l -2.361396,-2.361397 -0.231006,0.128337 c -0.847023,0.462012 -1.771048,0.718686 -2.72074,0.718686 -3.105749,0 -5.62115,-2.515401 -5.62115,-5.62115 0,-3.105749 2.515401,-5.62115 5.62115,-5.62115 3.10575,0 5.62115,2.515401 5.62115,5.62115 0,1.103696 -0.308008,2.156058 -0.924024,3.080082 l -0.154005,0.256674 2.335729,2.335729 c 0.179672,0.205338 0.308009,0.462012 0.308009,0.744353 -0.02567,0.256673 -0.128337,0.513347 -0.333676,0.718686 z"
       id="path3" /><path
       d="m 49.229979,45.508213 c -2.079055,0 -3.747433,1.694046 -3.747433,3.747434 0,2.079055 1.694045,3.747433 3.747433,3.747433 2.079056,0 3.747434,-1.694045 3.747434,-3.747433 0,-2.053388 -1.668378,-3.747434 -3.747434,-3.747434 z"
       id="path1"
       style="fill:#f29b37;fill-opacity:1;stroke-width:0.256674" /></g></svg>
