<?xml version="1.0" encoding="UTF-8" standalone="no"?>
<!-- Created with Inkscape (http://www.inkscape.org/) -->

<svg
   width="21.655602mm"
   height="21.831703mm"
   viewBox="0 0 21.655602 21.831703"
   version="1.1"
   id="svg1"
   xmlns="http://www.w3.org/2000/svg"
   xmlns:svg="http://www.w3.org/2000/svg">
  <defs
     id="defs1" />
  <g
     id="layer1"
     transform="translate(-61.912504,-108.74375)">
    <path
       style="fill:#a07200;fill-opacity:1;fill-rule:evenodd;stroke-width:0.264583"
       d="m 72.479415,114.60597 c -0.02894,-0.001 -0.05788,0 -0.08682,-0.001 -0.165365,-0.002 -0.334857,0.0217 -0.450612,0.0424 -0.976683,0.1757 -1.690847,0.8568 -2.201413,1.6795 -0.675931,1.09243 -1.03042,2.54145 -0.866087,3.85815 0.15503,1.25367 0.79375,2.3895 2.116667,2.92391 0.528134,0.21291 1.119319,0.29766 1.684655,0.31213 0.704876,0.0176 1.418007,-0.0744 2.068089,-0.35658 1.962678,-0.85164 3.067578,-3.39937 2.308912,-5.42608 -0.658363,-1.75802 -2.382281,-2.88977 -4.234391,-2.88977 -0.132292,0 -0.253214,-0.0548 -0.338984,-0.14263 z"
       id="path16" />
    <path
       style="fill:#fbc976;fill-opacity:1;fill-rule:evenodd;stroke:#000000;stroke-width:0.926042;stroke-dasharray:none;stroke-opacity:1"
       d="m 73.080919,113.80499 c -0.147794,-0.0786 -0.328665,-0.12609 -0.520912,-0.14262 -0.279056,-0.0238 -0.587057,0.0134 -0.785495,0.0496 -1.249547,0.22324 -2.190035,1.06142 -2.842154,2.1146 -1.598877,2.58278 -1.58234,6.83789 1.703255,8.16372 0.632513,0.25528 1.338422,0.3638 2.016416,0.38034 0.842328,0.0217 1.693942,-0.0972 2.471155,-0.43408 2.398819,-1.04076 3.7465,-4.15369 2.8194,-6.63099 -0.764804,-2.04742 -2.719123,-3.39936 -4.861718,-3.50043 z"
       id="path1" />
    <path
       d="m 71.555332,119.43982 c 0.169497,-0.0723 0.287311,-0.24081 0.287311,-0.43614 0,-0.26251 -0.212908,-0.47543 -0.47543,-0.47543 0.02273,0 0.07131,0.006 0.07131,0.006 0,0 -0.420635,0.0661 -0.507471,0.17776 -0.05684,0.0744 -0.157096,0.21291 -0.07131,0.47128 0.08268,0.24804 0.352425,0.38343 0.601504,0.29972 0.03307,-0.0103 0.06511,-0.0258 0.09405,-0.0434 z m 0.221175,-0.31419 c 0.01654,-0.063 0.0186,-0.14263 -0.01447,-0.24288 0.02687,0.0806 0.03101,0.16433 0.01447,0.24288 z"
       id="path2"
       style="fill-rule:evenodd;stroke-width:0.264583" />
    <path
       d="m 73.788944,117.40597 -0.02376,-10e-4 c -0.257349,0 -0.46818,0.20671 -0.474398,0.46302 0.0011,0.008 0.04444,0.22324 0.05374,0.24081 0.05581,0.10749 0.133326,0.16743 0.208772,0.20464 0.07751,0.0393 0.162263,0.0589 0.25528,0.0496 0.161232,-0.008 0.315225,-0.0992 0.395843,-0.25218 0.122989,-0.23151 0.03514,-0.51985 -0.197402,-0.64286 -0.08578,-0.0455 -0.158131,-0.061 -0.218075,-0.062 z m -0.204639,0.91363 c 0.07958,0.0372 0.144695,0.0465 0.198437,0.0434 -0.06718,0 -0.134358,-0.0145 -0.198437,-0.0434 z m 0.332793,0.0176 c 0.134358,-0.0465 0.226343,-0.1602 0.226343,-0.1602 0,0 -0.16433,0.12712 -0.226343,0.1602 z m -0.626322,-0.46922 v -0.001 c 0,0 -0.0011,0.007 -0.0011,0.0134 z"
       id="path3"
       style="fill-rule:evenodd;stroke-width:0.264583" />
    <path
       d="m 72.227373,120.55928 c -0.01241,-0.0217 -0.02585,-0.0434 -0.04134,-0.0631 -0.08165,-0.10645 -0.148828,-0.13229 -0.160197,-0.13849 -0.25735,-0.13746 -0.437171,-0.0258 -0.535358,0.0599 -0.03411,0.0289 -0.288343,0.25735 -0.104386,0.59119 0.01344,0.0238 0.124023,0.185 0.173633,0.24184 0.120922,0.13436 0.264583,0.24805 0.419602,0.34108 0.411348,0.24701 0.908474,0.31832 1.380808,0.28421 1.401471,-0.10128 2.344049,-1.07487 2.186939,-2.48872 -0.02894,-0.26045 -0.264583,-0.44855 -0.525039,-0.41961 -0.260447,0.0289 -0.448548,0.26355 -0.419602,0.52504 0.09199,0.82889 -0.488871,1.37563 -1.310508,1.43455 -0.280088,0.0207 -0.578776,-0.004 -0.822695,-0.14986 -0.07338,-0.0434 -0.142626,-0.0951 -0.198438,-0.15917 -0.01035,-0.0103 -0.02894,-0.0372 -0.04341,-0.0589 z m -0.782373,0.53123 -0.01138,-0.0134 c 0.0041,0.005 0.0083,0.0103 0.01138,0.0134 z"
       id="path4"
       style="fill-rule:evenodd;stroke-width:0.264583" />
    <path
       d="m 68.523207,113.37213 -0.163299,-0.18293 c -0.265615,-0.31935 -0.49403,-0.66971 -0.740013,-1.00357 -0.595312,-0.80615 -1.234043,-1.59887 -1.776624,-2.4412 -0.141594,-0.22118 -0.436139,-0.28525 -0.656299,-0.14366 -0.221176,0.14263 -0.285247,0.43717 -0.142626,0.65733 0.551894,0.8599 1.203034,1.66915 1.810755,2.49185 0.256315,0.34829 0.496094,0.71416 0.773086,1.04695 0.01241,0.0145 0.1757,0.20981 0.278024,0.30385 0.07648,0.0703 0.148829,0.11059 0.193271,0.12816 0.274928,0.11369 0.458893,-0.006 0.56843,-0.1447 0.162264,-0.2067 0.128157,-0.5054 -0.07855,-0.66765 -0.02066,-0.0176 -0.04341,-0.032 -0.06615,-0.0444 z m -0.308002,-0.0517 c -0.124023,0.0165 -0.220141,0.0816 -0.293529,0.17363 0.07648,-0.0961 0.181901,-0.15503 0.293529,-0.17363 z"
       id="path5"
       style="fill-rule:evenodd;stroke-width:0.264583" />
    <path
       d="m 71.851136,112.35613 c 0.0062,0.0496 0.01963,0.0992 0.04134,0.14677 0.11162,0.23771 0.394811,0.34004 0.632513,0.22841 0.02066,-0.009 0.328665,-0.16124 0.264583,-0.53227 -0.01963,-0.10955 -0.14056,-0.64801 -0.146762,-0.68212 -0.132291,-0.78549 -0.219106,-1.57924 -0.33692,-2.36781 -0.03928,-0.25941 -0.28112,-0.43926 -0.540544,-0.39997 -0.259416,0.0393 -0.439261,0.28112 -0.39997,0.54054 0.119888,0.79479 0.205671,1.59473 0.340042,2.38641 0.0052,0.032 0.131257,0.61082 0.145727,0.68006 z"
       id="path6"
       style="fill-rule:evenodd;stroke-width:0.264583" />
    <path
       d="m 76.12786,112.96388 0.108522,-0.22324 c 0.112654,-0.23254 0.224276,-0.46612 0.331761,-0.70279 0.296624,-0.65939 0.59944,-1.31672 0.904345,-1.97299 0.110588,-0.23772 0.0072,-0.52092 -0.23151,-0.63149 -0.237712,-0.10955 -0.520912,-0.006 -0.631481,0.23152 -0.305911,0.65939 -0.609785,1.31982 -0.908473,1.98231 -0.103352,0.22841 -0.211873,0.45476 -0.320384,0.68006 -0.0052,0.009 -0.121957,0.24701 -0.141595,0.29559 -0.165364,0.42582 0.25735,0.62116 0.309034,0.63664 0.241845,0.0703 0.495062,-0.061 0.579808,-0.29559 z"
       id="path7"
       style="fill-rule:evenodd;stroke-width:0.264583" />
    <path
       d="m 78.658864,114.52651 c -0.198437,0.062 -0.338984,0.25115 -0.331761,0.46921 0.0021,0.0517 0.147794,0.58809 0.62529,0.43511 0.03204,-0.0103 0.191204,-0.0755 0.199472,-0.0796 0.142626,-0.0641 0.276992,-0.1447 0.411348,-0.22428 0.312129,-0.185 0.619072,-0.37518 0.915696,-0.58393 0.214974,-0.1509 0.266647,-0.44752 0.115755,-0.66249 -0.151929,-0.21394 -0.448548,-0.26562 -0.663522,-0.11472 -0.27596,0.1943 -0.562239,0.37102 -0.852672,0.54364 -0.105421,0.062 -0.209807,0.12609 -0.320384,0.17673 z m 0.617009,0.41238 0.0021,0.0238 c 0,-0.008 -0.001,-0.0155 -0.0021,-0.0238 z m -0.11679,-0.2739 c 0.06511,0.0744 0.108521,0.16847 0.11679,0.27284 -0.0083,-0.10232 -0.04754,-0.19223 -0.114721,-0.27077 z m -0.275961,-0.15503 c 0.107487,0.0186 0.202573,0.0734 0.272839,0.1509 -0.05064,-0.0568 -0.133326,-0.12816 -0.272839,-0.1509 z m -0.01964,-0.002 0.01757,0.002 -0.01344,-0.002 z"
       id="path8"
       style="fill-rule:evenodd;stroke-width:0.264583" />
    <path
       d="m 80.127566,118.62861 c -0.216008,-0.0589 -0.450612,0.0424 -0.551894,0.25011 -0.0217,0.0444 -0.136425,0.58809 0.36277,0.68316 0.152961,0.0279 0.944642,0.11885 1.00666,0.12506 0.679027,0.0713 1.360117,0.17673 2.019512,0.3607 0.25218,0.0703 0.514694,-0.0775 0.585999,-0.33073 0.07028,-0.25218 -0.07752,-0.51469 -0.330729,-0.58496 -0.710036,-0.19844 -1.443831,-0.3142 -2.176621,-0.39069 -0.05374,-0.005 -0.81235,-0.0992 -0.915697,-0.11265 z m 0.279056,0.20774 c 0.08268,0.13436 0.09715,0.308 0.02274,0.45993 0.07028,-0.14366 0.08062,-0.29869 -0.02274,-0.45993 z"
       id="path9"
       style="fill-rule:evenodd;stroke-width:0.264583" />
    <path
       d="m 79.751329,122.51561 c -0.112654,-0.16537 -0.323506,-0.24702 -0.526071,-0.18707 -0.210841,0.062 -0.323506,0.20257 -0.341075,0.42063 -0.0041,0.0568 -0.0093,0.18294 0.09405,0.32454 0.05788,0.0806 0.470244,0.45371 0.500221,0.47646 0.293529,0.22634 0.596344,0.44133 0.89916,0.65424 0.214974,0.15089 0.511598,0.0982 0.66249,-0.11576 0.150895,-0.21497 0.09818,-0.5116 -0.115755,-0.66249 -0.291465,-0.20567 -0.582903,-0.41135 -0.865055,-0.62942 -0.01654,-0.0114 -0.243914,-0.2222 -0.308002,-0.28112 z m 0.01137,0.52091 c -0.05891,0.0951 -0.151929,0.1695 -0.268711,0.2036 0.127124,-0.0372 0.211873,-0.10955 0.268711,-0.2036 z"
       id="path10"
       style="fill-rule:evenodd;stroke-width:0.264583" />
    <path
       d="m 76.962885,125.34744 -0.0021,-0.0186 c -0.02997,-0.26045 -0.266647,-0.44752 -0.527103,-0.41754 -0.110587,0.0124 -0.198437,0.0579 -0.270774,0.12299 -0.07235,0.0651 -0.136425,0.15813 -0.15503,0.29559 -0.0083,0.0579 -0.0083,0.16226 0.03514,0.28731 0.04754,0.13539 0.1788,0.37518 0.190169,0.39791 0.201539,0.37415 0.417539,0.73795 0.608754,1.11622 0.510566,1.01285 0.904346,2.05775 1.278466,3.12526 0.08578,0.24805 0.357611,0.37828 0.604626,0.2925 0.248047,-0.0868 0.379307,-0.35865 0.292497,-0.60566 -0.38653,-1.10794 -0.797877,-2.19107 -1.327044,-3.24009 -0.194305,-0.38653 -0.414443,-0.75758 -0.62013,-1.13895 -0.0052,-0.0103 -0.07235,-0.14573 -0.107487,-0.21704 z m -0.15503,0.38862 c -0.06511,0.0589 -0.147793,0.10129 -0.240813,0.11679 0.09818,-0.0155 0.177768,-0.0558 0.240813,-0.11679 z"
       id="path11"
       style="fill-rule:evenodd;stroke-width:0.264583" />
    <path
       d="m 72.8039,126.06076 c -0.0083,0.0682 -0.0186,0.14986 -0.0186,0.18603 v 0.5643 c 0,0.50954 0.0011,1.02114 -0.03307,1.52961 -0.01757,0.26252 0.180867,0.48887 0.442357,0.50644 0.262517,0.0176 0.488871,-0.18086 0.506439,-0.44235 0.03514,-0.5302 0.03514,-1.06247 0.03514,-1.5937 v -0.55398 c 0.0031,-0.0207 0.02791,-0.1819 0.03101,-0.23874 0.0083,-0.11576 -0.01757,-0.20154 -0.03617,-0.24702 -0.09405,-0.22737 -0.265615,-0.29972 -0.444421,-0.29972 -0.07958,-0.001 -0.236677,0.005 -0.385498,0.18604 -0.09612,0.11679 -0.127124,0.26664 -0.09715,0.40306 z m 0.79891,0.23667 c -0.02585,0.0258 -0.05374,0.0476 -0.08372,0.0661 0.02687,-0.0155 0.05581,-0.0372 0.08372,-0.0661 z m 0.0155,-0.0155 -0.01447,0.0145 z"
       id="path12"
       style="fill-rule:evenodd;stroke-width:0.264583" />
    <path
       d="m 69.610379,125.25563 c 0.103352,-0.0692 0.179835,-0.17983 0.203605,-0.31316 0.06718,-0.38034 -0.185002,-0.50644 -0.274928,-0.54674 -0.108522,-0.0486 -0.258382,-0.0786 -0.434076,0.0196 -0.03927,0.0207 -0.108521,0.0703 -0.1788,0.15916 -0.05788,0.0734 -0.157096,0.23772 -0.212907,0.30385 -0.179835,0.21601 -0.364834,0.42685 -0.548799,0.63873 -0.617008,0.71107 -1.233011,1.43867 -1.803506,2.18797 -0.159163,0.20878 -0.118856,0.50748 0.08992,0.66662 0.208772,0.15813 0.507471,0.11782 0.666618,-0.0909 0.558112,-0.73173 1.161679,-1.44486 1.765273,-2.14042 0.188103,-0.21601 0.376211,-0.43202 0.560176,-0.65215 0.03721,-0.0434 0.112654,-0.15296 0.167431,-0.23254 z m -0.738981,-0.42892 c -0.0031,0.0434 -0.0011,0.0827 0.0062,0.11679 -0.0072,-0.0382 -0.0093,-0.0775 -0.0062,-0.11679 z m 0.0011,-0.0124 -0.0011,0.0103 0.0021,-0.0176 z"
       id="path13"
       style="fill-rule:evenodd;stroke-width:0.264583" />
    <path
       d="m 65.337623,120.68125 c -0.06821,-0.003 -0.148828,-0.007 -0.187068,-0.005 -0.21704,0.0114 -0.434075,0.0289 -0.651113,0.0465 -0.701755,0.0579 -1.406631,0.0806 -2.111507,0.0806 -0.262517,0 -0.47543,0.2129 -0.47543,0.47543 0,0.26148 0.212907,0.47543 0.47543,0.47543 0.730699,0 1.462431,-0.0238 2.190035,-0.0837 0.20774,-0.0176 0.414443,-0.0341 0.621162,-0.0444 0.07648,-0.004 0.234612,0.0165 0.316257,0.0114 0.129191,-0.008 0.221176,-0.0517 0.273897,-0.0868 0.149862,-0.0971 0.211873,-0.23254 0.220141,-0.37827 0.0062,-0.0951 -0.0021,-0.24598 -0.161229,-0.39688 -0.14056,-0.13333 -0.342107,-0.16433 -0.510567,-0.0941 z m -0.161232,0.76584 c 0.0052,0.006 0.01138,0.0124 0.01654,0.0176 z m -0.01447,-0.0155 0.0093,0.009 -0.0093,-0.0103 z"
       id="path14"
       style="fill-rule:evenodd;stroke-width:0.264583" />
    <path
       d="m 66.842573,116.43866 c -0.05374,-0.0165 -0.117821,-0.0372 -0.146761,-0.0465 -0.198438,-0.0672 -0.39378,-0.14677 -0.587058,-0.22635 -0.622194,-0.25631 -1.230921,-0.54467 -1.856211,-0.79478 -0.242879,-0.0971 -0.519853,0.0217 -0.61804,0.26458 -0.09715,0.24392 0.0217,0.52092 0.265615,0.61805 0.622194,0.24908 1.226794,0.53535 1.845892,0.79065 0.211873,0.0878 0.426853,0.17363 0.64389,0.24805 0.08062,0.0269 0.258382,0.0868 0.34933,0.10542 0.107487,0.0217 0.190169,0.0124 0.232545,0.004 0.131257,-0.0269 0.213939,-0.093 0.267679,-0.15503 0.07855,-0.0899 0.119888,-0.19637 0.118856,-0.32247 -0.0011,-0.0682 -0.0041,-0.22738 -0.19017,-0.37931 -0.09509,-0.0775 -0.211873,-0.11265 -0.325569,-0.10645 z m -0.293528,0.82785 c 0.0062,0.005 0.01241,0.0103 0.0186,0.0155 z m -0.01344,-0.0134 0.0083,0.008 -0.01035,-0.009 z m -0.01447,-0.0145 0.0031,0.003 z"
       id="path15"
       style="fill-rule:evenodd;stroke-width:0.264583" />
  </g>
</svg>
