<?xml version="1.0" encoding="UTF-8" standalone="no"?>
<svg
   version="1.1"
   viewBox="-5 -10 30.899993 30.899998"
   id="svg3"
   xml:space="preserve"
   width="30.899992"
   height="30.899998"
   xmlns="http://www.w3.org/2000/svg"
   xmlns:svg="http://www.w3.org/2000/svg"><defs
     id="defs3" /><circle
     style="fill:#a96f1b;fill-opacity:1;stroke:#ffffff;stroke-width:0.9;stroke-linejoin:bevel;stroke-dasharray:none;stroke-opacity:1"
     id="circle122"
     cx="10.449999"
     cy="5.4500008"
     r="15" /><path
     fill="#000000"
     d="m 7.3514566,9.8098965 3.4492204,0.1913185 c 0.24121,0.01163 0.48856,-0.094069 0.64119,-0.3039945 l 0.0586,-0.08012 0.98979,-1.357407 -0.14079,1.532235 -3.0625804,3.0946995 c -0.22112,0.22472 -0.24247,0.587272 -0.037,0.835457 0.21944,0.265098 0.61222,0.302093 0.8771004,0.08245 l 3.62152,-2.99957 c 0.12873,-0.106758 0.22302,-0.258332 0.25537,-0.435909 l 0.0144,-0.07843 0.81707,-4.4698635 c 0.005,-0.03002 0.01,-0.06237 0.0129,-0.09323 0.005,-0.06109 0.003,-0.120921 -0.002,-0.180325 l 0.0383,-0.0049 -0.23275,-3.804585 5.17827,-1.94277601 c 0.32809,-0.123036 0.49404,-0.488759 0.37101,-0.81643099 -0.12305,-0.328095 -0.48939,-0.494679 -0.81644,-0.371009 l -4.96813,1.86392299 -1.45718,0.187936 c 0.42871,-0.369529 0.59952,-0.982381 0.37924,-1.538366 -0.27735,-0.70227399 -1.07264,-1.04664699 -1.77471,-0.76886599 -0.70269,0.277782 -1.04685,1.07264899 -0.76907,1.77534599 0.13064,0.330209 0.37629,0.579874 0.67224,0.724472 l -0.2488,0.03192 0.019,0.09535 -1.9191004,-0.442886 1.1115504,-2.99851299 c 0.12156,-0.328517 -0.0461,-0.693396 -0.37439,-0.815163 -0.3278804,-0.120921 -0.6931904,0.04629 -0.8151704,0.374392 l -1.36183,3.67478399 c -0.0632,0.171235 -0.0499,0.36107501 0.0366,0.52152701 0.0865,0.160454 0.23804,0.27609 0.41561,0.316891 l 3.1769304,0.73335 0.57311,2.893658 c -0.0182,0.02579 -0.0389,0.04884 -0.0549,0.07674 l -1.73962,3.039313 -2.9448104,0.212035 c -0.30865,0.02198 -0.56,0.270383 -0.57755,0.587272 -0.0196,0.344162 0.24374,0.638221 0.58769,0.657246 z"
     id="path1-49"
     style="fill:#ffffff;fill-opacity:1;stroke-width:0.211402" /><circle
     fill="#000000"
     cx="15.334185"
     cy="-3.1589241"
     r="1.2559338"
     id="circle1"
     style="fill:#ffffff;fill-opacity:1;stroke-width:0.211402" /><path
     fill="#000000"
     d="m 16.974657,13.829899 -0.25791,0.118807 c -0.9215,0.428087 -1.38384,0.642871 -2.55605,0.162145 -1.18026,-0.48453 -1.96772,-0.219012 -2.72961,0.03763 -1.02636,0.345641 -2.0878004,0.702908 -4.4747304,-0.455991 -2.38609,-1.158267 -4.48699,-1.617219 -6.24352005,-1.367766 l 0.0897,0.628074 c 1.62947005,-0.233177 3.60671005,0.208017 5.87694005,1.310262 1.3312,0.646254 2.32013,0.851735 3.10696,0.851735 0.7623204,0 1.3354304,-0.19301 1.8470104,-0.365301 0.74076,-0.249664 1.32549,-0.446267 2.28652,-0.05201 1.42823,0.586004 2.11444,0.267634 3.06405,-0.173348 l 0.25347,-0.117117 c 0.91071,-0.41498 2.24993,-0.845815 3.45577,-0.544568 l 0.15411,-0.615178 c -1.38426,-0.346697 -2.86976,0.125995 -3.87265,0.582621 z"
     id="path2-5"
     style="fill:#ffffff;fill-opacity:1;stroke-width:0.211402" /><path
     fill="#000000"
     d="m 3.0845366,-0.78150951 c 0.85639,0 1.55296,-0.69656499 1.55296,-1.55295199 0,-0.856386 -0.69657,-1.552952 -1.55296,-1.552952 -0.85638,0 -1.55295,0.696566 -1.55295,1.552952 0,0.856387 0.69657,1.55295199 1.55295,1.55295199 z m 0,-2.47170199 c 0.50652,0 0.91876,0.412023 0.91876,0.91875 0,0.506729 -0.41203,0.918749 -0.91876,0.918749 -0.50672,0 -0.91875,-0.41202 -0.91875,-0.918749 0,-0.506727 0.41203,-0.91875 0.91875,-0.91875 z"
     id="path3-4"
     style="fill:#ffffff;fill-opacity:1;stroke-width:0.211402" /><rect
     x="2.7674117"
     fill="#000000"
     width="0.6342032"
     height="0.93164462"
     id="rect3"
     style="fill:#ffffff;fill-opacity:1;stroke-width:0.211402"
     y="-5.2602539" /><rect
     x="-2.3954628"
     y="-4.1488843"
     transform="rotate(45)"
     fill="#000000"
     width="0.93163562"
     height="0.63419712"
     id="rect4"
     style="fill:#ffffff;fill-opacity:1;stroke-width:0.211399" /><rect
     y="-2.6515656"
     fill="#000000"
     width="0.93164462"
     height="0.6342032"
     id="rect5"
     style="fill:#ffffff;fill-opacity:1;stroke-width:0.211402"
     x="0.15873872" /><rect
     x="-0.84744197"
     y="0.9061172"
     transform="rotate(-135)"
     fill="#000000"
     width="0.63419712"
     height="0.93142414"
     id="rect6"
     style="fill:#ffffff;fill-opacity:1;stroke-width:0.211399" /><rect
     x="2.7672286"
     y="-0.34031668"
     fill="#000000"
     width="0.6342032"
     height="0.93143314"
     id="rect7"
     style="fill:#ffffff;fill-opacity:1;stroke-width:0.211402" /><rect
     x="-3.4566426"
     y="3.514384"
     transform="rotate(-135.0081)"
     fill="#000000"
     width="0.93142414"
     height="0.63419712"
     id="rect8"
     style="fill:#ffffff;fill-opacity:1;stroke-width:0.211399" /><rect
     x="5.078691"
     y="-2.6515656"
     fill="#000000"
     width="0.93143314"
     height="0.6342032"
     id="rect9"
     style="fill:#ffffff;fill-opacity:1;stroke-width:0.211402" /><rect
     x="0.21340878"
     y="-6.7574658"
     transform="rotate(45)"
     fill="#000000"
     width="0.63419712"
     height="0.93142414"
     id="rect10"
     style="fill:#ffffff;fill-opacity:1;stroke-width:0.211399" /></svg>
