<?xml version="1.0" encoding="UTF-8" standalone="no"?>
<svg
   version="1.1"
   viewBox="-5 -10 30.899993 30.899994"
   id="svg3"
   xml:space="preserve"
   width="30.899992"
   height="30.899994"
   xmlns="http://www.w3.org/2000/svg"
   xmlns:svg="http://www.w3.org/2000/svg"><defs
     id="defs3" /><circle
     style="fill:#f29b37;fill-opacity:1;stroke:#ffffff;stroke-width:0.9;stroke-linejoin:bevel;stroke-dasharray:none;stroke-opacity:1"
     id="circle181"
     cx="10.449999"
     cy="5.4499969"
     r="15" /><circle
     fill="#000000"
     cx="10.287798"
     cy="7.1790009"
     r="1.64265"
     id="circle1-7"
     style="fill:#ffffff;fill-opacity:1;stroke-width:0.255705" /><path
     fill="#000000"
     d="m 21.516857,2.5126346 c 0.31272,0.111234 0.62723,0.246246 0.94303,0.408106 -0.0946,-0.168251 -0.19867,-0.330368 -0.31451,-0.484051 -0.22579,-0.108419 -0.45133,-0.202259 -0.67481,-0.283576 0.0147,0.10766 0.0308,0.22809 0.0463,0.359521 z"
     id="path1-51"
     style="fill:#ffffff;fill-opacity:1;stroke-width:0.255705" /><path
     fill="#000000"
     d="m 21.543957,2.7463516 c 0.098,0.900082 0.18,2.209036 0.079,3.646869 0.33677,0.103302 0.67967,0.22911 1.02641,0.379462 0.23267,-0.531864 0.36309,-1.118705 0.36309,-1.736234 0,-0.663046 -0.14959,-1.291056 -0.41552,-1.852587 l -0.0203,0.03656 c -0.34571,-0.191522 -0.69066,-0.347247 -1.0328,-0.474074 z"
     id="path2-20"
     style="fill:#ffffff;fill-opacity:1;stroke-width:0.255705" /><path
     fill="#000000"
     d="m 21.835717,2.0692426 c -0.13732,-0.146009 -0.28435,-0.282552 -0.44136,-0.40887 0.0119,0.06572 0.0259,0.152397 0.0417,0.257494 0.13297,0.04627 0.26594,0.09639 0.39968,0.151376 z"
     id="path3-05"
     style="fill:#ffffff;fill-opacity:1;stroke-width:0.255705" /><path
     fill="#000000"
     d="m 15.726657,6.5919036 c -0.53621,0.161856 -0.874,0.314259 -0.94203,0.34622 0.0467,0.0959 0.0974,0.188713 0.1509,0.280508 0.18408,-0.0762 0.46229,-0.180779 0.82156,-0.286131 -0.0114,-0.114301 -0.0211,-0.228344 -0.0305,-0.340597 z"
     id="path4-3"
     style="fill:#ffffff;fill-opacity:1;stroke-width:0.255705" /><path
     fill="#000000"
     d="m 16.349817,2.6159416 c -0.11046,0.03094 -0.21582,0.06291 -0.31607,0.09512 -0.10892,0.877834 -0.20813,2.174009 -0.11659,3.606469 0.0921,-0.02506 0.18846,-0.04986 0.29024,-0.07441 -0.0731,-1.395637 0.0266,-2.69104 0.14242,-3.627176 z"
     id="path5-1"
     style="fill:#ffffff;fill-opacity:1;stroke-width:0.255705" /><path
     fill="#000000"
     d="m 15.985947,1.6424706 c -0.1744,0.138593 -0.33726,0.289459 -0.4884,0.452857 0.13195,-0.04961 0.27718,-0.101259 0.43547,-0.152402 0.021,-0.126572 0.0389,-0.227581 0.0529,-0.300455 z"
     id="path6-3"
     style="fill:#ffffff;fill-opacity:1;stroke-width:0.255705" /><path
     fill="#000000"
     d="m 21.297197,2.4384806 c -0.0164,-0.1345 -0.0335,-0.256214 -0.0487,-0.363099 -0.0901,-0.02938 -0.17925,-0.05651 -0.26876,-0.08208 0.0164,0.111999 0.0335,0.233969 0.0506,0.365148 0.0888,0.02483 0.17746,0.05113 0.26696,0.08002 z"
     id="path7-98"
     style="fill:#ffffff;fill-opacity:1;stroke-width:0.255705" /><path
     fill="#000000"
     d="m 21.002617,6.2231756 c 0.0675,-1.420187 -0.0447,-2.764173 -0.16184,-3.699801 -1.38235,-0.363354 -2.66855,-0.284087 -3.6144,-0.111488 -0.23167,0.04247 -0.45209,0.09179 -0.65768,0.144729 -0.11865,0.923862 -0.22579,2.228216 -0.15445,3.638942 0.20866,-0.04627 0.43341,-0.08924 0.67301,-0.125554 0.99009,-0.151885 2.37297,-0.214021 3.91536,0.153172 z"
     id="path8-4"
     style="fill:#ffffff;fill-opacity:1;stroke-width:0.255705" /><path
     fill="#000000"
     d="m 21.212807,1.8442226 c -0.0299,-0.18385 -0.0498,-0.28741 -0.0515,-0.293039 l 0.0717,-0.01458 c -0.11813,-0.08668 -0.24138,-0.166975 -0.36847,-0.241383 0.0183,0.09794 0.0475,0.258007 0.0805,0.46973 0.089,0.02428 0.17798,0.05113 0.26798,0.07927 z"
     id="path9-7"
     style="fill:#ffffff;fill-opacity:1;stroke-width:0.255705" /><path
     fill="#000000"
     d="m 16.433957,2.0135016 c -0.10997,0.02968 -0.21481,0.06035 -0.31505,0.09154 -0.0168,0.110974 -0.0365,0.236527 -0.055,0.375884 0.10099,-0.03094 0.20635,-0.06162 0.31604,-0.09103 0.0177,-0.13501 0.0358,-0.260818 0.0541,-0.376395 z"
     id="path10-4"
     style="fill:#ffffff;fill-opacity:1;stroke-width:0.255705" /><path
     fill="#000000"
     d="m 17.181367,2.2073256 c 0.95251,-0.175162 2.24075,-0.257243 3.62973,0.09179 -0.0178,-0.13271 -0.0358,-0.255193 -0.0524,-0.366427 -1.35831,-0.347245 -2.61791,-0.267979 -3.54688,-0.09716 -0.1951,0.03578 -0.3805,0.07671 -0.5577,0.120435 -0.0181,0.114812 -0.0373,0.24062 -0.0563,0.376907 0.18513,-0.04501 0.37946,-0.08796 0.58353,-0.125547 z"
     id="path11-3"
     style="fill:#ffffff;fill-opacity:1;stroke-width:0.255705" /><path
     fill="#000000"
     d="m 15.895427,2.1771486 c -0.27386,0.09206 -0.50555,0.184109 -0.6853,0.261078 -0.11634,0.155213 -0.22194,0.318862 -0.31681,0.489165 0.19741,-0.09333 0.52317,-0.234226 0.94919,-0.376398 0.0178,-0.136293 0.0365,-0.261078 0.0529,-0.373845 z"
     id="path12-58"
     style="fill:#ffffff;fill-opacity:1;stroke-width:0.255705" /><path
     fill="#000000"
     d="m 21.346547,7.1022856 c -0.0649,-0.01788 -0.12989,-0.03607 -0.19485,-0.05191 -0.0572,0.57994 -0.14779,1.16167 -0.28459,1.724985 0.10996,-0.06418 0.21632,-0.132964 0.31911,-0.206864 l -0.0777,-0.01664 c 0.10661,-0.485328 0.18411,-0.971932 0.23806,-1.449595 z"
     id="path13-38"
     style="fill:#ffffff;fill-opacity:1;stroke-width:0.255705" /><path
     fill="#000000"
     d="m 20.946367,7.0000086 c -1.54343,-0.363105 -2.90583,-0.298159 -3.87136,-0.146779 -0.21378,0.03324 -0.41553,0.07236 -0.60399,0.113792 0.0624,0.633892 0.16518,1.279551 0.32245,1.912417 l -0.079,0.01944 c 0.5899,0.300454 1.25703,0.47101 1.96406,0.47101 0.73515,0 1.42709,-0.183339 2.03362,-0.506296 l -0.0769,-0.01943 c 0.15265,-0.600652 0.25162,-1.224063 0.31119,-1.844147 z"
     id="path14-0"
     style="fill:#ffffff;fill-opacity:1;stroke-width:0.255705" /><path
     fill="#000000"
     d="m 15.048027,7.3999276 c 0.25518,0.390973 0.57175,0.738734 0.93588,1.028703 -0.089,-0.43086 -0.15522,-0.860194 -0.20382,-1.283897 -0.31271,0.09384 -0.5605,0.185897 -0.73206,0.255194 z"
     id="path15-7"
     style="fill:#ffffff;fill-opacity:1;stroke-width:0.255705" /><path
     fill="#000000"
     d="m 15.984917,7.0866926 c 0.0522,0.472029 0.12837,0.95301 0.23295,1.432972 l -0.0889,0.01944 c 0.13885,0.101259 0.28334,0.194593 0.4342,0.278717 -0.14321,-0.597836 -0.23859,-1.205393 -0.29766,-1.80374 -0.0976,0.02376 -0.19176,0.04832 -0.28051,0.07262 z"
     id="path16-0"
     style="fill:#ffffff;fill-opacity:1;stroke-width:0.255705" /><path
     fill="#000000"
     d="m 21.345267,8.4506216 c 0.37027,-0.290224 0.69271,-0.63824 0.95277,-1.032028 -0.25189,-0.09768 -0.50119,-0.183592 -0.74641,-0.257491 -0.0501,0.425492 -0.11788,0.857634 -0.20636,1.289519 z"
     id="path17-84"
     style="fill:#ffffff;fill-opacity:1;stroke-width:0.255705" /><path
     fill="#000000"
     d="m 21.208727,6.2753386 c 0.0693,0.01765 0.13833,0.03708 0.20762,0.05677 0.10002,-1.459564 0.008,-2.781305 -0.0918,-3.663235 -0.089,-0.02968 -0.17721,-0.05804 -0.26569,-0.08387 0.1156,0.949438 0.22043,2.283958 0.14986,3.69034 z"
     id="path18-7"
     style="fill:#ffffff;fill-opacity:1;stroke-width:0.255705" /><path
     fill="#000000"
     d="m 15.814107,2.7839386 c -0.64411,0.222466 -1.03175,0.432909 -1.03816,0.436232 l -0.0174,-0.03199 c -0.26441,0.560508 -0.41322,1.187239 -0.41322,1.848238 0,0.607809 0.12556,1.185959 0.35159,1.711175 0.0834,-0.03963 0.44263,-0.20277 1.01439,-0.371279 -0.094,-1.41303 -0.003,-2.697692 0.10282,-3.592405 z"
     id="path19-60"
     style="fill:#ffffff;fill-opacity:1;stroke-width:0.255705" /><path
     fill="#000000"
     d="m 17.126897,6.2761036 c -0.25032,0.03784 -0.48405,0.08336 -0.70063,0.132455 0.007,0.114813 0.0158,0.23065 0.0261,0.34699 0.18232,-0.03909 0.37614,-0.07644 0.58199,-0.108928 0.98114,-0.154447 2.36348,-0.221693 3.93095,0.141405 0.01,-0.117365 0.0177,-0.234737 0.0253,-0.352103 -1.52171,-0.368982 -2.88769,-0.309147 -3.8637,-0.159819 z"
     id="path20-1"
     style="fill:#ffffff;fill-opacity:1;stroke-width:0.255705" /><path
     fill="#000000"
     d="m 21.196707,6.4885946 c -0.007,0.116348 -0.0159,0.233205 -0.0261,0.350059 0.0657,0.01664 0.13194,0.03454 0.19818,0.05293 0.0121,-0.116347 0.0226,-0.231668 0.0315,-0.346225 -0.0675,-0.02021 -0.13552,-0.03886 -0.20354,-0.05677 z"
     id="path21-90"
     style="fill:#ffffff;fill-opacity:1;stroke-width:0.255705" /><path
     fill="#000000"
     d="m 16.690927,1.7312026 c 0.15216,-0.03607 0.31068,-0.06981 0.47535,-0.100491 0.93358,-0.172349 2.19345,-0.254939 3.55634,0.07697 -0.0484,-0.299176 -0.0841,-0.473058 -0.0859,-0.481242 l 0.0762,-0.01611 c -0.60679,-0.32321104 -1.29925,-0.50706604 -2.0349,-0.50706604 -0.70575,0 -1.37084,0.16979 -1.95975,0.46896604 l 0.0751,0.01688 c -0.002,0.0087 -0.0447,0.20456 -0.1025,0.542097 z"
     id="path22-32"
     style="fill:#ffffff;fill-opacity:1;stroke-width:0.255705" /><path
     fill="#000000"
     d="m 16.157257,1.8731206 c 0.10002,-0.02939 0.20432,-0.05857 0.31248,-0.08694 0.0407,-0.244198 0.0759,-0.426258 0.0974,-0.533398 -0.15214,0.08489 -0.29789,0.178736 -0.43777,0.280509 l 0.089,0.01966 c -0.002,0.0059 -0.0263,0.119415 -0.0612,0.320148 z"
     id="path23-54"
     style="fill:#ffffff;fill-opacity:1;stroke-width:0.255705" /><path
     fill="#000000"
     d="m 21.606087,6.6067316 c -0.01,0.113277 -0.02,0.227835 -0.0317,0.342643 0.27411,0.08182 0.55334,0.176697 0.83641,0.288181 0.0523,-0.0895 0.10207,-0.181041 0.14881,-0.274627 -0.32141,-0.140126 -0.64002,-0.258008 -0.95351,-0.356197 z"
     id="path24-86"
     style="fill:#ffffff;fill-opacity:1;stroke-width:0.255705" /><path
     fill="#000000"
     d="m 15.932507,6.5323236 c 0.008,0.112507 0.0184,0.22783 0.0296,0.342131 0.0905,-0.02453 0.18564,-0.04832 0.28384,-0.07186 -0.01,-0.115578 -0.0186,-0.230899 -0.0266,-0.345713 -0.10022,0.02483 -0.19586,0.05011 -0.28688,0.07544 z"
     id="path25-38"
     style="fill:#ffffff;fill-opacity:1;stroke-width:0.255705" /><path
     fill="#000000"
     d="m 7.1086266,-2.1815994 c -0.66893,0.128362 -1.0829,0.281788 -1.0893,0.284088 l -0.0128,-0.03377 c -0.34163,0.517035 -0.57816,1.11589796 -0.67174,1.77024596 -0.0862,0.601677 -0.0442,1.19209704 0.10488,1.74390704 0.088,-0.02709 0.46691,-0.137313 1.05656,-0.223227 0.10769,-1.41200404 0.38024,-2.670843 0.61241,-3.541261 z"
     id="path26-2"
     style="fill:#ffffff;fill-opacity:1;stroke-width:0.255705" /><path
     fill="#000000"
     d="m 7.2756166,-2.7710004 c -0.28461,0.05217 -0.52625,0.109954 -0.71521,0.161095 -0.13732,0.137058 -0.26518,0.284087 -0.38356,0.439302 0.20916,-0.06418 0.55104,-0.157514 0.9934,-0.237296 0.0372,-0.132965 0.0723,-0.254169 0.10532,-0.363101 z"
     id="path27-0"
     style="fill:#ffffff;fill-opacity:1;stroke-width:0.255705" /><path
     fill="#000000"
     d="m 6.9539366,2.0733376 c -0.10045,0.0095 -0.19663,0.02019 -0.28845,0.03146 -0.0146,0.473564 -0.008,0.959148 0.027,1.448569 l -0.0905,0.0061 c 0.12273,0.12018 0.25313,0.232688 0.3902,0.337531 -0.056,-0.610373 -0.0645,-1.224063 -0.0382,-1.82369 z"
     id="path28-7"
     style="fill:#ffffff;fill-opacity:1;stroke-width:0.255705" /><path
     fill="#000000"
     d="m 7.4410566,-3.2870154 c -0.19204,0.112005 -0.37537,0.238577 -0.54799,0.378448 0.13733,-0.03069 0.28844,-0.06087 0.45261,-0.08899 0.0382,-0.12197 0.0712,-0.219394 0.0954,-0.289461 z"
     id="path29-32"
     style="fill:#ffffff;fill-opacity:1;stroke-width:0.255705" /><path
     fill="#000000"
     d="m 13.739827,-0.78851644 c -0.31425,-0.23857596 -0.6339,-0.44160296 -0.95428,-0.61599496 -0.0312,0.90468596 -0.13527,2.21159496 -0.44059,3.620529 0.31862,0.150867 0.64055,0.324235 0.96171,0.522408 0.30633,-0.493515 0.51857,-1.055807 0.60628,-1.667453 0.094,-0.65614404 0.0355,-1.29872604 -0.1478,-1.89273104 z"
     id="path30-62"
     style="fill:#ffffff;fill-opacity:1;stroke-width:0.255705" /><path
     fill="#000000"
     d="m 6.4550466,2.1331726 c -0.32296,0.04728 -0.58122,0.102026 -0.76123,0.14575 0.19713,0.423194 0.4613,0.811862 0.78067,1.150415 -0.027,-0.437252 -0.0319,-0.87144 -0.0194,-1.296165 z"
     id="path31-1"
     style="fill:#ffffff;fill-opacity:1;stroke-width:0.255705" /><path
     fill="#000000"
     d="m 6.4806166,1.5775216 c -0.55514,0.0826 -0.90981,0.184619 -0.9814,0.206355 0.0327,0.101259 0.0693,0.200727 0.10945,0.298661 0.19281,-0.04909 0.48328,-0.113274 0.85379,-0.166461 0.005,-0.113532 0.011,-0.226555 0.0183,-0.338555 z"
     id="path32-6"
     style="fill:#ffffff;fill-opacity:1;stroke-width:0.255705" /><path
     fill="#000000"
     d="m 7.5773366,-3.0343744 c 0.10304,-0.01511 0.2107,-0.02915 0.32168,-0.0417 0.0747,-0.236011 0.13502,-0.41143 0.17182,-0.514477 -0.16236,0.06265 -0.32014,0.134755 -0.47305,0.215561 l 0.0852,0.03199 c -0.002,0.0059 -0.0422,0.114557 -0.10564,0.308638 z"
     id="path33-8"
     style="fill:#ffffff;fill-opacity:1;stroke-width:0.255705" /><path
     fill="#000000"
     d="m 13.170127,-2.0332904 c -0.11482,-0.164162 -0.24114,-0.320397 -0.3782,-0.467171 0.002,0.06698 0.005,0.154447 0.005,0.260817 0.12479,0.06444 0.24907,0.133225 0.37332,0.206354 z"
     id="path34-4"
     style="fill:#ffffff;fill-opacity:1;stroke-width:0.255705" /><path
     fill="#000000"
     d="m 12.792447,-1.6395034 c 0.29304,0.154191 0.58582,0.332671 0.87528,0.538003 -0.0694,-0.180272 -0.15061,-0.355689 -0.24266,-0.523939 -0.2079,-0.139106 -0.41783,-0.264146 -0.62777,-0.376654 -2.5e-4,0.108929 -0.002,0.23039 -0.005,0.36259 z"
     id="path35-6"
     style="fill:#ffffff;fill-opacity:1;stroke-width:0.255705" /><path
     fill="#000000"
     d="m 12.586347,-2.3444874 c -0.005,-0.186152 -0.01,-0.291499 -0.01,-0.297381 l 0.073,-0.0042 c -0.10488,-0.102794 -0.21531,-0.199962 -0.33065,-0.291757 0.005,0.09972 0.01,0.262095 0.0136,0.476637 0.0838,0.03679 0.16876,0.07593 0.25364,0.116596 z"
     id="path36-5"
     style="fill:#ffffff;fill-opacity:1;stroke-width:0.255705" /><path
     fill="#000000"
     d="m 8.1265966,-3.0990684 c 0.15546,-0.01405 0.31708,-0.02506 0.48481,-0.0317 0.94893,-0.0381 2.2077604,0.05907 3.5097904,0.581474 -0.006,-0.303014 -0.0166,-0.479961 -0.0169,-0.488657 l 0.078,-0.0051 c -0.55488,-0.406316 -1.21435,-0.686825 -1.94233,-0.791407 -0.6983404,-0.100232 -1.3813204,-0.02684 -2.0067804,0.185643 l 0.0723,0.02762 c -0.003,0.0084 -0.0738,0.196126 -0.17899,0.522154 z"
     id="path37-6"
     style="fill:#ffffff;fill-opacity:1;stroke-width:0.255705" /><path
     fill="#000000"
     d="m 11.952457,2.0408606 c 0.0657,0.02761 0.13168,0.05626 0.19766,0.08566 0.30582,-1.43066704 0.40298,-2.75215304 0.42908,-3.638941 -0.0832,-0.04219 -0.16699,-0.08285 -0.25035,-0.121199 -0.021,0.95658696 -0.10716,2.29213796 -0.37639,3.67448 z"
     id="path38-70"
     style="fill:#ffffff;fill-opacity:1;stroke-width:0.255705" /><path
     fill="#000000"
     d="m 6.6925966,1.5483746 c -0.008,0.112253 -0.0139,0.225786 -0.0189,0.339827 0.0928,-0.01125 0.19023,-0.02121 0.29123,-0.03094 0.006,-0.114557 0.0141,-0.228859 0.0228,-0.341878 -0.10282,0.01 -0.20148,0.02121 -0.29506,0.033 z"
     id="path39-3"
     style="fill:#ffffff;fill-opacity:1;stroke-width:0.255705" /><path
     fill="#000000"
     d="m 11.834577,2.5934396 c 0.0628,0.02608 0.1258,0.05242 0.18869,0.07978 0.0283,-0.113019 0.055,-0.225787 0.0805,-0.338041 -0.065,-0.02915 -0.12966,-0.05754 -0.19434,-0.0849 -0.0235,0.114298 -0.0478,0.228599 -0.075,0.343157 z"
     id="path40-8"
     style="fill:#ffffff;fill-opacity:1;stroke-width:0.255705" /><path
     fill="#000000"
     d="m 8.5594966,-2.3488294 c -0.23549,0.009 -0.46053,0.0266 -0.67173,0.04986 -0.2488,0.897271 -0.54004,2.17349196 -0.66995,3.579621 0.21351,-0.01588 0.44185,-0.02636 0.68401,-0.02837 1.00184,-0.01027 2.3796004,0.125037 3.8534704,0.707792 0.26876,-1.39564204 0.34904,-2.74192804 0.36618,-3.684968 -1.31689,-0.55616 -2.6012904,-0.661001 -3.5619804,-0.623921 z"
     id="path41-75"
     style="fill:#ffffff;fill-opacity:1;stroke-width:0.255705" /><path
     fill="#000000"
     d="m 7.8312566,-2.8564044 c -0.11277,0.01405 -0.22094,0.02939 -0.325,0.04604 -0.0329,0.107141 -0.0693,0.22911 -0.10791,0.364123 0.10434,-0.01611 0.21274,-0.03146 0.32577,-0.04526 0.0373,-0.13092 0.0731,-0.252891 0.10714,-0.364889 z"
     id="path42-8"
     style="fill:#ffffff;fill-opacity:1;stroke-width:0.255705" /><path
     fill="#000000"
     d="m 7.1994166,1.4972306 c -0.008,0.113789 -0.0171,0.228345 -0.0241,0.343158 0.18642,-0.01278 0.38356,-0.02198 0.59172,-0.02482 0.99442,-0.01326 2.3719104,0.116856 3.8713504,0.699099 0.0263,-0.115581 0.0508,-0.230649 0.075,-0.345971 C 9.9884066,1.4793186 8.3585366,1.4082326 7.1994266,1.4972146 Z"
     id="path43-79"
     style="fill:#ffffff;fill-opacity:1;stroke-width:0.255705" /><path
     fill="#000000"
     d="m 7.6632466,-2.2718614 c -0.11378,0.0151 -0.22271,0.0317 -0.32679,0.04909 -0.23217,0.853542 -0.51498,2.12234996 -0.62801,3.553532 0.0948,-0.01151 0.19408,-0.02251 0.29789,-0.03247 0.12557,-1.39231904 0.40862,-2.660104 0.65691,-3.570156 z"
     id="path44-9"
     style="fill:#ffffff;fill-opacity:1;stroke-width:0.255705" /><path
     fill="#000000"
     d="m 12.332437,-1.8617114 c 0.0838,0.03733 0.16824,0.07645 0.25237,0.117367 0.002,-0.136034 0.003,-0.258519 0.003,-0.366423 -0.0843,-0.04218 -0.16926,-0.08157 -0.25365,-0.119671 4.8e-4,0.113532 0,0.236782 -0.002,0.368727 z"
     id="path45-6"
     style="fill:#ffffff;fill-opacity:1;stroke-width:0.255705" /><path
     fill="#000000"
     d="m 8.5438866,-2.5579984 c 0.96762,-0.03757 2.2548204,0.06393 3.5801504,0.607299 0.002,-0.133989 0.002,-0.258004 0,-0.370262 -1.29796,-0.538001 -2.5588404,-0.637981 -3.5041904,-0.600395 -0.19536,0.0076 -0.38305,0.02151 -0.56204,0.03964 -0.034,0.110974 -0.0705,0.233202 -0.10869,0.365144 0.18873,-0.01866 0.3874,-0.03348 0.59477,-0.04143 z"
     id="path46"
     style="fill:#ffffff;fill-opacity:1;stroke-width:0.255705" /><path
     fill="#000000"
     d="m 12.218137,2.7606706 c 0.26006,0.119926 0.52265,0.253662 0.78654,0.403504 0.0655,-0.08082 0.12784,-0.164677 0.18667,-0.250591 -0.29815,-0.183599 -0.59657,-0.345718 -0.89343,-0.487888 -0.0253,0.111234 -0.0515,0.222718 -0.0798,0.334975 z"
     id="path47"
     style="fill:#ffffff;fill-opacity:1;stroke-width:0.255705" /><path
     fill="#000000"
     d="M 11.589607,2.7207796 C 9.8830266,2.0523646 8.3009966,1.9736086 7.1643766,2.0562026 c -0.0283,0.635428 -0.0184,1.287218 0.0474,1.934155 l -0.0811,0.0084 c 0.54107,0.381 1.177,0.644631 1.87687,0.745125 0.72775,0.10433 1.4386004,0.02151 2.0850204,-0.212236 l -0.0736,-0.03015 c 0.23704,-0.572015 0.4232,-1.174964 0.57073,-1.780734 z"
     id="path48"
     style="fill:#ffffff;fill-opacity:1;stroke-width:0.255705" /><path
     fill="#000000"
     d="m 11.777807,4.2135886 c 0.40836,-0.234228 0.77658,-0.533149 1.08981,-0.885763 -0.23524,-0.132715 -0.46947,-0.25264 -0.70243,-0.360799 -0.10994,0.413727 -0.2378,0.832064 -0.38738,1.246562 z"
     id="path49"
     style="fill:#ffffff;fill-opacity:1;stroke-width:0.255705" /><path
     fill="#000000"
     d="m 11.971377,2.8790626 c -0.0618,-0.02684 -0.12376,-0.05344 -0.18616,-0.07953 -0.13858,0.566137 -0.3117,1.129197 -0.52649,1.667455 0.1171,-0.04803 0.23192,-0.10126 0.3447,-0.159049 l -0.0741,-0.02737 c 0.17438,-0.465637 0.32013,-0.935882 0.4421,-1.401518 z"
     id="path50"
     style="fill:#ffffff;fill-opacity:1;stroke-width:0.255705" /><path
     fill="#000000"
     d="m -0.35207345,4.8832816 c -0.1404,0.172853 -0.26774,0.355683 -0.38024,0.547209 0.11762,-0.07645 0.24881,-0.15803 0.39251,-0.242411 -0.007,-0.127341 -0.0109,-0.230645 -0.0122,-0.304798 z"
     id="path51"
     style="fill:#ffffff;fill-opacity:1;stroke-width:0.255705" /><path
     fill="#000000"
     d="m -0.32575345,5.4251166 c -0.24803,0.148823 -0.45412,0.28767 -0.61316,0.401967 -0.0802999,0.176183 -0.14831995,0.358758 -0.20457995,0.545935 0.17336995,-0.133479 0.46052995,-0.341115 0.84664995,-0.571248 -0.0121,-0.137058 -0.0213,-0.262608 -0.0289,-0.376654 z"
     id="path52"
     style="fill:#ffffff;fill-opacity:1;stroke-width:0.255705" /><path
     fill="#000000"
     d="m -0.27511345,6.0354886 c -0.58121,0.355173 -0.91466995,0.644373 -0.92003995,0.648467 l -0.0238,-0.02711 c -0.13858,0.604484 -0.14905,1.248098 -0.007,1.893495 0.1304,0.593494 0.37767995,1.131495 0.71084995,1.5961134 0.073,-0.05677 0.38894,-0.2930394 0.91082,-0.5807044 -0.39478999666,-1.359842 -0.58197,-2.633768 -0.67045,-3.530266 z"
     id="path53-2"
     style="fill:#ffffff;fill-opacity:1;stroke-width:0.255705" /><path
     fill="#000000"
     d="m -0.13549345,5.0722436 c 0.0909,-0.05011 0.18691,-0.10126 0.28664,-0.151888 -0.0129,-0.247267 -0.0182,-0.43265 -0.02,-0.54184 -0.13014,0.115322 -0.25237,0.238316 -0.36717,0.367706 h 0.0908 c 2.6e-4,0.0064 0.002,0.122736 0.01,0.326022 z"
     id="path54-9"
     style="fill:#ffffff;fill-opacity:1;stroke-width:0.255705" /><path
     fill="#000000"
     d="m 0.45799655,9.7756866 c -0.4907,0.2720684 -0.78706,0.4924864 -0.84665,0.5380034 0.0663,0.08336 0.13578,0.163906 0.20764,0.241129 0.1634,-0.113788 0.41245,-0.275905 0.74104,-0.455411 -0.0355,-0.1084204 -0.0694,-0.2160714 -0.10208,-0.3237214 z"
     id="path55-4"
     style="fill:#ffffff;fill-opacity:1;stroke-width:0.255705" /><path
     fill="#000000"
     d="m -0.03270345,10.708241 c 0.3332,0.32756 0.71699,0.598862 1.13533005,0.804196 -0.17951005,-0.400949 -0.33651005,-0.806495 -0.47461005,-1.209487 -0.28535,0.157769 -0.50806,0.300199 -0.66072,0.405291 z"
     id="path56-5"
     style="fill:#ffffff;fill-opacity:1;stroke-width:0.255705" /><path
     fill="#000000"
     d="m 6.2453566,8.8676776 c 0.28537,0.02045 0.57868,0.05369 0.87861,0.101259 0.0327,-0.09896 0.0614,-0.198682 0.087,-0.300454 -0.34365,-0.0675 -0.67991,-0.114043 -1.00799,-0.143196 0.0148,0.113793 0.0292,0.227582 0.0425,0.342392 z"
     id="path57-4"
     style="fill:#ffffff;fill-opacity:1;stroke-width:0.255705" /><path
     fill="#000000"
     d="m 5.3133166,4.7684686 c 0.28844,0.857889 0.65,2.118516 0.85942,3.54433 0.35135,0.02938 0.71292,0.07877 1.08369,0.151377 0.11353,-0.569459 0.11455,-1.170364 -0.0183,-1.774085 -0.14217,-0.6477 -0.42293,-1.228919 -0.80342,-1.720384 l -0.0118,0.03964 c -0.37767,-0.112002 -0.7487,-0.190501 -1.10975,-0.240874 z"
     id="path58-0"
     style="fill:#ffffff;fill-opacity:1;stroke-width:0.255705" /><path
     fill="#000000"
     d="m 0.35596655,4.8183276 c 0.14064,-0.0675 0.28818,-0.134499 0.44287,-0.199702 0.87503005,-0.368472 2.08785005,-0.719557 3.49013005,-0.688359 -0.11201,-0.282044 -0.18412,-0.44365 -0.1877,-0.451578 l 0.0712,-0.03222 c -0.66228,-0.185644 -1.378,-0.216585 -2.09653,-0.05856 -0.68887,0.151633 -1.30256005,0.460014 -1.81346005,0.878857 l 0.0775,10e-4 c 0,0.0084 -2.8e-4,0.209168 0.0161,0.550786 z"
     id="path59-1"
     style="fill:#ffffff;fill-opacity:1;stroke-width:0.255705" /><path
     fill="#000000"
     d="m 4.7957666,3.9583956 c -0.0685,-0.172859 -0.11046,-0.269513 -0.11301,-0.275142 l 0.0669,-0.02939 c -0.13423,-0.0588 -0.27206,-0.111229 -0.41219,-0.156746 0.0392,0.09179 0.10152,0.242155 0.17975,0.441856 0.0921,0.0049 0.18514,0.01151 0.27847,0.01944 z"
     id="path60-9"
     style="fill:#ffffff;fill-opacity:1;stroke-width:0.255705" /><path
     fill="#000000"
     d="m 5.2371366,4.5465166 c 0.32856,0.04117 0.66534,0.105357 1.00848,0.196637 -0.12835,-0.144474 -0.26567,-0.280508 -0.41143,-0.405806 -0.24369,-0.05701 -0.48379,-0.100492 -0.7198,-0.132201 0.0379,0.101778 0.079,0.21633 0.12275,0.34137 z"
     id="path61-5"
     style="fill:#ffffff;fill-opacity:1;stroke-width:0.255705" /><path
     fill="#000000"
     d="m 5.4526866,4.0448236 c -0.16571,-0.113278 -0.33882,-0.21505 -0.51834,-0.304549 0.0251,0.06188 0.0579,0.143706 0.0959,0.242665 0.13962,0.01636 0.28024,0.03684 0.42243,0.06189 z"
     id="path62-6"
     style="fill:#ffffff;fill-opacity:1;stroke-width:0.255705" /><path
     fill="#000000"
     d="M 0.93666655,5.1786186 C 1.8293366,4.8032456 3.0702766,4.4467926 4.5017066,4.4897476 c -0.0457,-0.125806 -0.0895,-0.241898 -0.1299,-0.34648 -1.40433,-0.0481 -2.61969,0.301475 -3.49165005,0.669184 -0.18027,0.07593 -0.35109,0.154445 -0.51192,0.234222 0.006,0.116092 0.0154,0.243174 0.0263,0.379977 0.17005,-0.08413 0.35084,-0.16723 0.5421,-0.248032 z"
     id="path63-6"
     style="fill:#ffffff;fill-opacity:1;stroke-width:0.255705" /><path
     fill="#000000"
     d="m 5.7776866,8.4981816 c 0.0177,0.114814 0.0344,0.23116 0.0498,0.347506 0.0684,0.0024 0.13629,0.0051 0.20533,0.0084 -0.0136,-0.115833 -0.0281,-0.230391 -0.044,-0.344948 -0.0708,-0.0049 -0.14115,-0.008 -0.21121,-0.01102 z"
     id="path64-0"
     style="fill:#ffffff;fill-opacity:1;stroke-width:0.255705" /><path
     fill="#000000"
     d="m 0.16470655,5.1494646 c -0.10056,0.05294 -0.19638,0.105358 -0.28768,0.157261 0.006,0.111999 0.0157,0.238575 0.0268,0.378444 0.0916,-0.05165 0.18794,-0.103822 0.28894,-0.156746 -0.0114,-0.135268 -0.0208,-0.262097 -0.0281,-0.378959 z"
     id="path65-4"
     style="fill:#ffffff;fill-opacity:1;stroke-width:0.255705" /><path
     fill="#000000"
     d="m 0.64568655,9.6739146 c 0.0327,0.108421 0.0664,0.216326 0.10206,0.324999 0.0829,-0.04319 0.17057,-0.08693 0.26184005,-0.130919 -0.0344001,-0.10995 -0.0672,-0.219394 -0.0987001,-0.328326 -0.0928,0.04502 -0.1813,0.09 -0.26517,0.134246 z"
     id="path66-8"
     style="fill:#ffffff;fill-opacity:1;stroke-width:0.255705" /><path
     fill="#000000"
     d="m 0.81495655,10.201436 c 0.15292,0.449529 0.33037005,0.902126 0.53545005,1.349101 l -0.0824,0.03757 c 0.15726,0.0693 0.31887,0.129131 0.48405,0.17899 -0.26771,-0.553345 -0.49146,-1.125868 -0.67811,-1.698135 -0.0908001,0.04526 -0.17695005,0.08924 -0.25902005,0.132454 z"
     id="path67-0"
     style="fill:#ffffff;fill-opacity:1;stroke-width:0.255705" /><path
     fill="#000000"
     d="m 1.1023666,9.4476176 c 0.0314,0.10995 0.0642,0.22016 0.0984,0.329859 0.16952,-0.07748 0.35108,-0.154956 0.5449,-0.230905 0.9254,-0.361564 2.26145,-0.723645 3.86984,-0.705741 -0.0158,-0.116862 -0.0329,-0.233204 -0.0512,-0.349551 -1.85667,-0.04017 -3.40752,0.466407 -4.46205,0.956338 z"
     id="path68-6"
     style="fill:#ffffff;fill-opacity:1;stroke-width:0.255705" /><path
     fill="#000000"
     d="m 0.21252655,5.7557456 c -0.10099,0.05446 -0.19716,0.108164 -0.28871,0.160837 0.0824,0.880905 0.26337,2.168381 0.66024,3.547909 0.0849,-0.04449 0.17388,-0.08949 0.26747,-0.134755 -0.37129,-1.348079 -0.55182,-2.634532 -0.639,-3.573991 z"
     id="path69-9"
     style="fill:#ffffff;fill-opacity:1;stroke-width:0.255705" /><path
     fill="#000000"
     d="m 6.0558866,9.0650816 c -0.0675,-0.0034 -0.13475,-0.0059 -0.2015,-0.0084 0.0687,0.578405 0.10488,1.1665284 0.0925,1.7459514 0.0931,-0.08591 0.18206,-0.176176 0.26695,-0.270278 h -0.0792 c -4.8e-4,-0.496833 -0.0295,-0.9882994 -0.0787,-1.4672364 z"
     id="path70-6"
     style="fill:#ffffff;fill-opacity:1;stroke-width:0.255705" /><path
     fill="#000000"
     d="m 5.6426866,9.0510186 c -1.58565,-0.02276 -2.90228,0.332926 -3.81283,0.687588 -0.2015,0.0785 -0.38995,0.159305 -0.56512,0.240366 0.19664,0.6060194 0.43546,1.2145974 0.72492,1.7983764 l -0.073,0.03631 c 0.64029,0.166976 1.32864,0.189985 2.01929,0.03862 0.71803,-0.158023 1.35449,-0.485584 1.87716,-0.931788 l -0.079,-0.0029 c 0.0203,-0.617522 -0.0169,-1.2475804 -0.0916,-1.8666454 z"
     id="path71-0"
     style="fill:#ffffff;fill-opacity:1;stroke-width:0.255705" /><path
     fill="#000000"
     d="m 5.0059766,4.5209466 c -0.0452,-0.128112 -0.0873,-0.242923 -0.12582,-0.344437 -0.094,-0.0092 -0.18717,-0.0166 -0.27973,-0.0225 0.0401,0.105606 0.0834,0.221183 0.12784,0.345712 0.0921,0.0054 0.18462,0.01227 0.27771,0.02121 z"
     id="path72-9"
     style="fill:#ffffff;fill-opacity:1;stroke-width:0.255705" /><path
     fill="#000000"
     d="m 6.3432966,10.382985 c 0.29943,-0.362589 0.5398,-0.7722294 0.70881,-1.2122984 -0.26719,-0.04117 -0.52878,-0.07161 -0.78449,-0.09103 0.043,0.425238 0.0701,0.861727 0.0757,1.3033294 z"
     id="path73-3"
     style="fill:#ffffff;fill-opacity:1;stroke-width:0.255705" /><path
     fill="#000000"
     d="m 5.7434166,8.2869696 c 0.0713,0.0029 0.14294,0.0061 0.2153,0.01102 -0.21582,-1.44678 -0.58939,-2.718148 -0.8763,-3.558393 -0.0931,-0.0095 -0.18589,-0.01843 -0.27744,-0.02506 0.3163,0.902893 0.70524,2.183721 0.93844,3.572457 z"
     id="path74-3"
     style="fill:#ffffff;fill-opacity:1;stroke-width:0.255705" /><path
     fill="#000000"
     d="m 1.0246366,5.3693746 c -0.21711005,0.09103 -0.42141005,0.186662 -0.61138005,0.282297 0.0824,0.9277 0.25775,2.224638 0.63031005,3.586524 0.19407,-0.08975 0.40426,-0.179253 0.6303,-0.266705 0.93434,-0.361055 2.27169,-0.719041 3.85629,-0.690659 -0.23857,-1.401263 -0.63645,-2.690273 -0.95173,-3.578335 -1.42784,-0.0583 -2.667,0.294827 -3.55379,0.666878 z"
     id="path75-8"
     style="fill:#ffffff;fill-opacity:1;stroke-width:0.255705" /></svg>
