<?xml version="1.0" encoding="UTF-8" standalone="no"?>
<svg
   version="1.1"
   viewBox="-5 -10 30.899993 30.899994"
   id="svg3"
   xml:space="preserve"
   width="30.899992"
   height="30.899994"
   xmlns="http://www.w3.org/2000/svg"
   xmlns:svg="http://www.w3.org/2000/svg"><defs
     id="defs3" /><circle
     style="fill:#e77424;fill-opacity:1;stroke:#ffffff;stroke-width:0.9;stroke-linejoin:bevel;stroke-dasharray:none;stroke-opacity:1"
     id="circle182"
     cx="10.449999"
     cy="5.4499974"
     r="15" /><path
     d="m 1.8561766,12.481443 v 0.78124 c 0,0.21477 -0.17571,0.39051 -0.39049,0.39051 -0.21479,0 -0.39074,-0.17574 -0.39074,-0.39051 v -0.78124 c 0,-0.21501 0.17595,-0.39074 0.39074,-0.39074 0.21454,2.3e-4 0.39049,0.17573 0.39049,0.39074 z m -0.39073,-1.95323 c -0.21477,0 -0.39074,0.17572 -0.39074,0.39073 0,0.21479 0.17597,0.39051 0.39074,0.39051 0.21478,0 0.39051,-0.17572 0.39051,-0.39051 2.2e-4,-0.21501 -0.17573,-0.39073 -0.39051,-0.39073 z m 18.3598504,-12.8909 v 1.56248997 1.56249 1.56249003 1.56273 1.56249 1.56248 1.5625 1.56249 1.56272 1.56249 c 0,0.21571 -0.17479,0.39051 -0.39074,0.39051 -0.21571,0 -0.39051,-0.1748 -0.39051,-0.39051 v -1.17175 h -3.90622 v 1.17198 c 0,0.21572 -0.17457,0.39051 -0.39051,0.39051 -0.21594,0 -0.39074,-0.17479 -0.39074,-0.39051 v -1.56248 -1.56273 -1.5625 -1.56248 -1.56272 -1.56249 -1.56273 -1.56249003 -1.56249 -0.78124997 h -1.56249 v 5.9278 c 0.45443,0.16131 0.78125,0.59436 0.78125,1.10365 0,0.64619 -0.5258,1.17175 -1.17199,1.17175 -0.6462,0 -1.17175,-0.52556 -1.17175,-1.17175 0,-0.50905 0.32682,-0.94234 0.78124,-1.10365 v -5.9278 H 9.6688766 v 5.9278 c 0.4544304,0.16154 0.7812404,0.5946 0.7812404,1.10365 0,0.64619 -0.5257904,1.17175 -1.1719804,1.17175 -0.6462,0 -1.17198,-0.52556 -1.17198,-1.17175 0,-0.50905 0.32681,-0.94234 0.78123,-1.10365 v -5.9278 h -1.56248 v 14.84413 c 0,0.21571 -0.17457,0.39051 -0.39051,0.39051 -0.21594,0 -0.39074,-0.1748 -0.39074,-0.39051 v -14.84413 h -4.68748 v 10.93767 c 0,0.21479 -0.17571,0.39074 -0.39049,0.39074 -0.21479,0 -0.39074,-0.17595 -0.39074,-0.39074 v -11.3284 -0.39051 c 0,-0.21501 0.17595,-0.39074 0.39074,-0.39074 0.21478,0 0.39049,0.17573 0.39049,0.39074 h 4.68771 c 0,-0.21571 0.17481,-0.39074 0.39074,-0.39074 0.21595,0 0.39051,0.17479 0.39051,0.39074 h 1.56249 c 0,-0.21571 0.17481,-0.39074 0.39074,-0.39074 0.21594,0 0.39051,0.17479 0.39051,0.39074 h 2.3439604 c 0,-0.21571 0.1748,-0.39074 0.39051,-0.39074 0.21595,0 0.39074,0.17479 0.39074,0.39074 h 1.56249 c 0,-0.21571 0.1748,-0.39074 0.39074,-0.39074 0.21594,0 0.39051,0.17479 0.39051,0.39074 v 0.39051 0.78124 h 3.90646 v -1.17175 c 0,-0.21571 0.1748,-0.39074 0.3905,-0.39074 0.21594,0 0.39051,0.17503 0.39051,0.39074 z M 9.6688766,5.450003 c 0,-0.21549 -0.17504,-0.39075 -0.39051,-0.39075 -0.21548,0 -0.39074,0.1755 -0.39074,0.39075 0,0.21524 0.17526,0.3905 0.39074,0.3905 0.21547,0 0.39051,-0.17526 0.39051,-0.3905 z m 3.1249804,0 c 0,-0.21549 -0.17527,-0.39075 -0.39073,-0.39075 -0.21549,0 -0.39051,0.17526 -0.39051,0.39075 0,0.21524 0.17502,0.3905 0.39051,0.3905 0.2157,2.4e-4 0.39073,-0.17526 0.39073,-0.3905 z m 6.25019,-4.29697 h -3.90622 v 0.78125 h 3.90646 v -0.78125 z m 0,1.56248 h -3.90622 v 0.78125 h 3.90646 v -0.78125 z m 0,1.5625 h -3.90622 v 0.78124 h 3.90646 v -0.78124 z m 0,1.56273 h -3.90622 v 0.78124 h 3.90646 v -0.78124 z m 0,1.56248 h -3.90622 v 0.78125 h 3.90646 v -0.78125 z m -3.90622,2.34374 h 3.90646 v -0.78125 h -3.90646 z m 0,-10.15642003 v 0.78148 h 3.90646 v -0.78148 z m 3.90622,11.71891003 v -0.78124 h -3.90622 v 0.78124 z"
     id="path1-96"
     style="fill:#ffffff;fill-opacity:1;stroke-width:0.232444" /></svg>
