<?xml version="1.0" encoding="UTF-8" standalone="no"?>
<svg
   version="1.1"
   viewBox="-5 -10 30.899993 30.899994"
   id="svg3"
   xml:space="preserve"
   width="30.899992"
   height="30.899994"
   xmlns="http://www.w3.org/2000/svg"
   xmlns:svg="http://www.w3.org/2000/svg"><defs
     id="defs3" /><circle
     style="fill:#9cb673;fill-opacity:1;stroke:#ffffff;stroke-width:0.9;stroke-linejoin:bevel;stroke-dasharray:none;stroke-opacity:1"
     id="circle183"
     cx="10.449999"
     cy="5.4499974"
     r="15" /><g
     id="g185"
     transform="translate(253.51099,-181.01881)"><path
       d="m -240.80005,178.00869 0.8626,-0.2312 0.70138,2.56538 -1.2711,0.36379 -1.85249,0.49639 c -1.24527,0.33365 -1.98423,1.61362 -1.65058,2.85889 l 0.72799,2.71696 0.01,0.0404 0.0823,0.35473 0.0654,0.31132 c 0.009,0.0483 0.0182,0.0948 0.0263,0.13944 l 0.0399,0.24626 0.0136,0.10691 c 0.0125,0.11042 0.005,0.26113 -0.0229,0.45231 l -0.0431,0.24876 c -0.009,0.0447 -0.0184,0.091 -0.0287,0.13889 l -0.0721,0.30688 c -0.0136,0.0544 -0.028,0.11041 -0.0433,0.16799 l -0.10116,0.36501 -0.12045,0.40383 -0.13982,0.44258 c -0.0693,0.21405 -0.16153,0.41994 -0.27521,0.61407 l -2.08001,3.55303 c -0.32571,0.55626 -0.13881,1.27125 0.41753,1.59696 0.55618,0.32571 1.27117,0.13889 1.59688,-0.41737 l 2.38557,-4.07396 0.16519,-0.30252 c 0.26339,-0.49713 0.47456,-0.95527 0.63353,-1.37435 v 0.13235 c 0,0.25483 -0.0314,0.50872 -0.0933,0.75592 l -1.09937,4.3887 c -0.15663,0.62528 0.22324,1.25912 0.84851,1.41582 0.62528,0.15671 1.25912,-0.22315 1.41583,-0.84843 l 1.20418,-4.80553 c 0.0531,-0.21164 0.0972,-0.42538 0.1322,-0.64076 0.20939,-1.28565 0.18495,-2.49512 -0.0734,-3.6285 l -0.0179,-0.0738 c -0.009,-0.0614 -0.0213,-0.12294 -0.0378,-0.18433 l -0.18581,-0.69352 -0.0764,-0.29684 -0.37115,-1.3798 -0.002,0.002 -0.37411,-1.39606 1.73437,-0.49627 c 0.77172,-0.22082 1.22224,-1.02137 1.01044,-1.79563 l -0.98071,-3.58635 c -0.17009,-0.62178 -0.81195,-0.98799 -1.43372,-0.81795 -0.41916,0.11462 -0.72215,0.44364 -0.82307,0.8364 l -1.0681,0.28631 c 0.11695,0.22998 0.20612,0.47641 0.26323,0.73493 z"
       fill="black"
       id="path1-62"
       style="fill:#ffffff;fill-opacity:1;stroke-width:0.778097" /><path
       d="m -243.83937,181.01674 c 1.28923,0 2.33429,-1.0451 2.33429,-2.33429 0,-1.2892 -1.04506,-2.33429 -2.33429,-2.33429 -1.28907,0 -2.33414,1.04494 -2.33429,2.33399 0,0.25669 0.0415,0.504 0.11804,0.73501 0.30781,0.92923 1.18379,1.59958 2.21625,1.59958 z"
       fill="black"
       id="path2-58"
       style="fill:#ffffff;fill-opacity:1;stroke-width:0.778097" /><path
       d="m -250.17443,180.52044 3.36608,-0.90146 -0.0522,-0.18563 c -0.0465,-0.18795 -0.076,-0.38263 -0.0867,-0.58231 l -4.55506,1.22023 c -0.20754,0.0556 -0.33071,0.26894 -0.2751,0.47649 l 0.1007,0.37579 c 0.12342,0.46062 0.49649,0.81196 0.96369,0.90759 l 0.09,0.0184 c 0.0818,0.0168 0.16632,0.0142 0.24694,-0.008 0.28682,-0.0768 0.45703,-0.37162 0.38018,-0.65847 z"
       fill="black"
       id="path3-1"
       style="fill:#ffffff;fill-opacity:1;stroke-width:0.778097" /></g></svg>
