<?xml version="1.0" encoding="UTF-8" standalone="no"?>
<svg
   version="1.1"
   viewBox="-5 -10 30.899993 30.899994"
   id="svg3"
   xml:space="preserve"
   width="30.899992"
   height="30.899994"
   xmlns="http://www.w3.org/2000/svg"
   xmlns:svg="http://www.w3.org/2000/svg"><defs
     id="defs3" /><circle
     style="fill:#e9af4b;fill-opacity:1;stroke:#ffffff;stroke-width:0.9;stroke-linejoin:bevel;stroke-dasharray:none;stroke-opacity:1"
     id="circle184"
     cx="10.449999"
     cy="5.4499974"
     r="15" /><g
     id="g9"
     style="fill:#ffffff;fill-opacity:1"
     transform="matrix(0.23554723,0,0,0.23554723,-1.3273234,-7.5068294)"><path
       d="m 68.559,45.07 14.57,49.43 h 6.1797 L 71.3707,40.57 Z"
       id="path1-28"
       style="fill:#ffffff;fill-opacity:1" /><path
       d="m 57.398,44.5 h 10.34 l 2.8711,-4.6016 h -13.211 z"
       id="path2-1"
       style="fill:#ffffff;fill-opacity:1" /><path
       d="M 28.629,40.57 10.691,94.5 h 6.1797 l 14.57,-49.43 z"
       id="path3-47"
       style="fill:#ffffff;fill-opacity:1" /><path
       d="M 32.262,44.5 H 51.621 V 39.8984 H 29.391 Z"
       id="path4-36"
       style="fill:#ffffff;fill-opacity:1" /><path
       d="m 57.398,45.5 v 12.879 c 1.5898,0.91016 2.5508,2.1211 2.5508,3.4688 0,2.8906 -4.3711,5.1602 -9.9492,5.1602 -1.4102,0 -2.75,-0.14844 -3.9609,-0.41016 -0.69922,2.3789 -2.8906,4.1211 -5.4883,4.1211 -3.1602,0 -5.7188,-2.5703 -5.7188,-5.7188 0,-3.1485 2.5703,-5.7188 5.7188,-5.7188 0.25,0 0.5,0.01953 0.73828,0.05078 1.6797,-1.5781 4.9102,-2.6289 8.7109,-2.6289 0.55859,0 1.0898,0.03125 1.6211,0.07031 v -11.27 h -19.262 l -14.449,49 64.18,-0.0039 -14.449,-49 z"
       id="path5-04"
       style="fill:#ffffff;fill-opacity:1" /><path
       d="m 52.621,56.879 c 1.4102,0.19141 2.6914,0.53125 3.7695,1 V 7.391 c 0,-1.0391 -0.85156,-1.8906 -1.8906,-1.8906 -1.03904,0 -1.8906,0.85156 -1.8906,1.8906 v 49.488 z"
       id="path6-0"
       style="fill:#ffffff;fill-opacity:1" /><path
       d="m 50,66.02 c 4.8516,0 8.9492,-1.8984 8.9492,-4.1602 0,-2.2618 -4.1016,-4.1602 -8.9492,-4.1602 -3.1016,0 -5.8789,0.78125 -7.5,1.9297 2.1992,0.80078 3.7695,2.8984 3.7695,5.3711 0,0.21094 -0.01172,0.41016 -0.03125,0.60938 1.1484,0.26172 2.4219,0.39844 3.7617,0.39844 z"
       id="path7-32"
       style="fill:#ffffff;fill-opacity:1" /><path
       d="M 51.621,9.1602 38.269,15 51.621,20.8398 Z"
       id="path8-45"
       style="fill:#ffffff;fill-opacity:1" /><path
       d="m 45.27,65 c 0,6.293 -9.4414,6.293 -9.4414,0 0,-6.293 9.4414,-6.293 9.4414,0"
       id="path9-437"
       style="fill:#ffffff;fill-opacity:1" /></g></svg>
