<?xml version="1.0" encoding="UTF-8" standalone="no"?>
<svg
   version="1.1"
   viewBox="-5 -10 30.899993 30.900009"
   id="svg3"
   xml:space="preserve"
   width="30.899992"
   height="30.900009"
   xmlns="http://www.w3.org/2000/svg"
   xmlns:svg="http://www.w3.org/2000/svg"><defs
     id="defs3" /><circle
     style="fill:#cfb661;fill-opacity:1;stroke:#ffffff;stroke-width:0.9;stroke-linejoin:bevel;stroke-dasharray:none;stroke-opacity:1"
     id="circle185"
     cx="10.449999"
     cy="5.4499974"
     r="15" /><g
     id="g204"
     transform="translate(306.04428,-254.72142)"><path
       style="fill:#ffffff;fill-opacity:1;stroke-width:0.348807"
       d="m -286.56107,266.64284 -0.27207,-0.68018 c -0.0558,-0.13952 -0.19533,-0.22672 -0.34532,-0.21975 l -2.46258,0.16395 -0.86504,-0.86504 0.66622,-2.04401 1.64288,-0.56507 2.00914,1.26966 c 0.0558,0.0349 0.12208,0.0523 0.18486,0.0523 0.0802,0 0.16045,-0.0279 0.22324,-0.0802 l 0.19882,-0.16742 c -0.0384,0.75691 -0.19533,1.4929 -0.48484,2.19399 -0.14301,0.33835 -0.31045,0.64878 -0.49531,0.94179 z"
       id="path204" /><path
       style="fill:#ffffff;fill-opacity:1;stroke-width:0.348807"
       d="m -287.99467,268.29619 c -0.35927,0.29648 -0.74644,0.55111 -1.15106,0.75691 l -0.77784,-0.48833 0.50577,-1.97076 2.03355,-0.13255 0.3488,0.87202 c -0.28253,0.34532 -0.60343,0.66971 -0.95922,0.96271 z"
       id="path203" /><path
       style="fill:#ffffff;fill-opacity:1;stroke-width:0.348807"
       d="m -290.56188,269.59026 c -1.06038,0.2651 -2.18005,0.2651 -3.22996,0 -0.20231,-0.0523 -0.40462,-0.11162 -0.60344,-0.18487 l 0.62088,-0.39066 c 0.12906,-0.0802 0.18835,-0.2337 0.15348,-0.38369 l -0.57902,-2.25678 0.89294,-0.89294 h 2.25679 l 0.94874,0.94875 -0.56506,2.20097 c -0.0384,0.1465 0.0244,0.29998 0.15348,0.38369 l 0.59296,0.37323 c -0.20928,0.0767 -0.42205,0.14649 -0.64179,0.2023 z"
       id="path202" /><path
       style="fill:#ffffff;fill-opacity:1;stroke-width:0.348807"
       d="m -295.17312,269.07054 c -0.0279,-0.014 -0.0558,-0.0279 -0.0872,-0.0453 -0.16395,-0.0872 -0.32091,-0.1779 -0.47787,-0.27556 -0.0489,-0.0314 -0.0942,-0.0628 -0.14301,-0.0977 -0.13604,-0.0907 -0.27208,-0.18835 -0.40113,-0.29299 -0.0244,-0.0175 -0.0489,-0.0349 -0.0732,-0.0558 -0.18836,-0.14998 -0.36625,-0.31393 -0.53716,-0.48833 -0.0175,-0.021 -0.0349,-0.0418 -0.0558,-0.0593 -0.1151,-0.11859 -0.22323,-0.24765 -0.33136,-0.37671 l 0.36973,-0.92434 2.03355,0.13255 0.50577,1.97076 z"
       id="path201" /><path
       style="fill:#ffffff;fill-opacity:1;stroke-width:0.348807"
       d="m -298.78327,263.39196 0.33834,0.28253 c 0.0627,0.0523 0.14301,0.0802 0.22324,0.0802 0.0662,0 0.12906,-0.0175 0.18486,-0.0523 l 2.00564,-1.26618 1.51034,0.55112 0.66971,2.05796 -0.86155,0.86156 -2.39631,-0.15697 c -0.15696,-0.007 -0.28951,0.0767 -0.34532,0.21975 l -0.30346,0.7604 c -0.20231,-0.31741 -0.3802,-0.64878 -0.5267,-0.99759 -0.31043,-0.74645 -0.47437,-1.53127 -0.49879,-2.3405 z"
       id="path200" /><path
       style="fill:#ffffff;fill-opacity:1;stroke-width:0.348807"
       d="m -300.62148,263.58032 c -0.0627,-0.014 -0.12208,-0.0384 -0.18487,-0.0558 0.45694,-0.14999 0.89992,-0.3488 1.32198,-0.58599 -0.003,0.0802 -0.0105,0.15696 -0.0105,0.24067 0,0.19533 0.014,0.39067 0.0279,0.58251 -0.38369,-0.0245 -0.77086,-0.0872 -1.15455,-0.18138 z"
       id="path199" /><path
       style="fill:#ffffff;fill-opacity:1;stroke-width:0.348807"
       d="m -303.17475,262.29322 c -0.32439,-0.25812 -0.62785,-0.56159 -0.91038,-0.89992 0.92084,-0.25115 1.79635,-0.68018 2.55675,-1.26618 0.73947,-0.56506 1.34989,-1.26267 1.82426,-2.06493 0.15348,-0.0209 0.30695,-0.0384 0.46391,-0.0454 0.58251,-0.0279 1.16851,0.0279 1.74055,0.15696 -0.32788,0.34532 -0.62088,0.71854 -0.87202,1.11967 -0.003,0.007 -0.0105,0.0105 -0.014,0.0175 -0.21975,0.35578 -0.40811,0.71854 -0.5546,1.07781 -0.22673,0.54414 -0.38369,1.1127 -0.47089,1.68823 -0.76041,0.50926 -1.62894,0.86155 -2.52537,1.01852 -0.44298,-0.23022 -0.86155,-0.49182 -1.23826,-0.80226 z"
       id="path198" /><path
       style="fill:#ffffff;fill-opacity:1;stroke-width:0.348807"
       d="m -305.11063,259.70507 c -0.33486,-0.80225 -0.50577,-1.65684 -0.50577,-2.53932 0,-0.17092 0.007,-0.33834 0.0175,-0.49531 0.0384,-0.53018 0.13953,-1.04292 0.29998,-1.53824 0.32439,1.88706 1.37779,3.59621 2.94741,4.72286 -0.66272,0.436 -1.4022,0.75342 -2.17306,0.92782 -0.22324,-0.33485 -0.42555,-0.69413 -0.586,-1.07781 z"
       id="path197" /><path
       style="fill:#ffffff;fill-opacity:1;stroke-width:0.348807"
       d="m -303.21312,252.06619 c 0.0105,-0.007 0.021,-0.014 0.0314,-0.0244 0.0419,-0.0349 0.0802,-0.0593 0.11859,-0.0907 -0.0314,1.3464 0.30695,2.69279 0.99061,3.86478 0.36625,0.63483 0.83016,1.21385 1.38128,1.71962 0.10813,0.0977 0.21626,0.19185 0.32787,0.28253 -0.3767,0.61041 -0.84759,1.1406 -1.39871,1.59754 -1.85216,-1.23826 -2.96834,-3.35204 -2.94393,-5.59486 0.0314,-0.0523 0.0593,-0.10465 0.0942,-0.15697 0.37671,-0.60343 0.8476,-1.1406 1.39872,-1.59753 z"
       id="path196" /><path
       style="fill:#ffffff;fill-opacity:1;stroke-width:0.348807"
       d="m -300.63195,250.75468 c 0.014,0 0.0314,-0.003 0.0454,-0.007 1.03247,-0.26161 2.10331,-0.26509 3.17066,-0.003 0.0105,0.003 0.0175,0.003 0.0279,0.007 v 0 c 0.94178,0.23719 1.79984,0.66622 2.55327,1.28361 0.0349,0.0279 0.0627,0.0593 0.0977,0.0872 -2.64046,-0.27208 -5.28791,0.80573 -6.97613,2.87765 -0.5267,-1.09874 -0.73948,-2.33351 -0.61391,-3.54039 0.51973,-0.31044 1.08131,-0.54763 1.69521,-0.70459 z"
       id="path195" /><path
       style="fill:#ffffff;fill-opacity:1;stroke-width:0.348807"
       d="m -293.39071,253.6707 c 0.17789,0.28603 0.34532,0.60693 0.49181,0.95573 0.16743,0.39416 0.29301,0.81273 0.38021,1.24525 -0.48136,0.0209 -0.95922,0.0907 -1.41268,0.20579 -0.0105,0.003 -0.021,0.007 -0.0314,0.0105 0,0 -0.003,0 -0.007,0 -1.03246,0.25811 -1.97424,0.73249 -2.80091,1.40569 -0.0105,0.007 -0.021,0.014 -0.0314,0.021 -0.0349,0.0279 -0.0697,0.0627 -0.10464,0.0942 -0.77435,-0.22673 -1.56614,-0.32789 -2.35793,-0.29301 -0.17789,0.007 -0.35927,0.0244 -0.54065,0.0453 -0.14301,-0.11161 -0.27905,-0.22323 -0.41159,-0.34531 -0.4395,-0.40462 -0.81622,-0.86155 -1.12665,-1.36035 1.71613,-2.27771 4.66355,-3.34854 7.44703,-2.6893 0.18487,0.22673 0.35578,0.46042 0.50577,0.70459 z"
       id="path194" /><path
       style="fill:#ffffff;fill-opacity:1;stroke-width:0.348807"
       d="m -292.17686,258.67958 -1.64986,-1.1999 0.24765,-0.76388 c 0.0558,-0.014 0.11162,-0.0279 0.16743,-0.0384 0.0697,-0.014 0.13604,-0.0245 0.20579,-0.0349 0.18487,-0.0279 0.36974,-0.0523 0.5581,-0.0662 0.0488,-0.003 0.0977,-0.007 0.14301,-0.007 0.21625,-0.0105 0.43252,-0.0105 0.64878,0 0.0349,0.003 0.0732,0.003 0.10813,0.007 0.24416,0.0175 0.49181,0.0454 0.73249,0.0872 0.0105,0.003 0.021,0.003 0.0314,0.003 0.0697,0.014 0.13953,0.0279 0.20929,0.0453 l 0.24416,0.76389 z"
       id="path193" /><path
       style="fill:#ffffff;fill-opacity:1;stroke-width:0.348807"
       d="m -298.73095,262.28973 c 0.007,-0.0593 0.014,-0.1186 0.0244,-0.18138 0.0175,-0.1186 0.0419,-0.2337 0.0662,-0.34881 0.0105,-0.0453 0.0174,-0.0942 0.0314,-0.13952 0.0349,-0.14301 0.0732,-0.28253 0.11859,-0.42554 0.007,-0.0175 0.0105,-0.0384 0.0175,-0.0593 0.0523,-0.16394 0.11162,-0.32788 0.18138,-0.48833 0.0662,-0.15697 0.13953,-0.31742 0.21975,-0.47438 0.007,-0.0175 0.0175,-0.0349 0.0279,-0.0489 0.0488,-0.0907 0.10464,-0.18487 0.15697,-0.27556 l 0.92084,0.0593 0.4988,1.97076 -1.72311,1.08828 -0.56158,-0.4674 c 0.003,-0.0627 0.0105,-0.13603 0.021,-0.20929 z"
       id="path192" /><path
       style="fill:#ffffff;fill-opacity:1;stroke-width:0.348807"
       d="m -294.29761,262.32463 -1.47894,-0.54066 -0.57903,-2.28468 c -0.0384,-0.1465 -0.16393,-0.25114 -0.31392,-0.26161 l -0.77435,-0.0488 c 0.30695,-0.40113 0.65924,-0.77435 1.05689,-1.10223 0.0105,-0.007 0.021,-0.014 0.0314,-0.0244 0.58949,-0.48485 1.24873,-0.85458 1.96728,-1.10921 l -0.18138,0.55809 c -0.0454,0.14301 0.003,0.29998 0.12557,0.39066 l 1.91494,1.38826 v 1.75101 z"
       id="path191" /><path
       style="fill:#ffffff;fill-opacity:1;stroke-width:0.348807"
       d="m -291.16184,264.7872 h -2.04052 l -0.63134,-1.93937 1.64986,-1.19989 1.64986,1.19989 z"
       id="path190" /><path
       style="fill:#ffffff;fill-opacity:1;stroke-width:0.348807"
       d="m -286.90988,259.18885 -0.64529,0.0419 c -0.14999,0.0105 -0.27905,0.1151 -0.31392,0.2616 l -0.57903,2.28469 -1.60102,0.55111 -1.77892,-1.29407 v -1.74404 l 1.91844,-1.39522 c 0.12209,-0.0872 0.1744,-0.24417 0.12557,-0.38718 l -0.18138,-0.55809 c 0.70808,0.25114 1.36383,0.61739 1.95681,1.10223 0.41508,0.33834 0.78133,0.71854 1.09874,1.13711 z"
       id="path189" /><path
       style="fill:#ffffff;fill-opacity:1;stroke-width:0.348807"
       d="m -284.8868,262.75714 c 0,-0.007 0.003,-0.0105 0.003,-0.014 -0.0454,-0.8197 -0.23021,-1.61847 -0.54763,-2.37538 -0.16045,-0.3802 -0.34183,-0.73598 -0.54065,-1.05339 -0.014,-0.021 -0.0314,-0.0384 -0.0454,-0.0558 -0.41508,-0.65575 -0.9348,-1.24524 -1.55219,-1.74403 -0.83365,-0.68367 -1.78241,-1.16153 -2.79395,-1.41267 -0.0175,-0.007 -0.0384,-0.0175 -0.0593,-0.0244 -0.45345,-0.11161 -0.92085,-0.17789 -1.38825,-0.20231 -0.0942,-0.53018 -0.24068,-1.03944 -0.44299,-1.51731 -0.16045,-0.3802 -0.34183,-0.73598 -0.54065,-1.05339 -0.18836,-0.30347 -0.40112,-0.59646 -0.63832,-0.87202 -0.2895,-0.34183 -0.61041,-0.65575 -0.95922,-0.93829 -0.83365,-0.68018 -1.7824,-1.15804 -2.80092,-1.41267 -0.014,-0.003 -0.0314,-0.0105 -0.0523,-0.014 v 0 c -1.16153,-0.28602 -2.35794,-0.28602 -3.48459,-0.003 -0.0314,0.003 -0.0558,0.0105 -0.0593,0.014 -0.73249,0.18138 -1.42661,0.47438 -2.05795,0.87202 -0.25115,0.14998 -0.49531,0.32439 -0.74645,0.53019 -0.0105,0.007 -0.021,0.014 -0.0314,0.0244 -0.62436,0.50926 -1.15456,1.11269 -1.5801,1.78938 -0.0558,0.0872 -0.10813,0.17789 -0.15696,0.2651 -0.15696,0.27206 -0.293,0.54414 -0.40113,0.80923 -0.293,0.71156 -0.47438,1.46847 -0.53368,2.25678 -0.0105,0.1744 -0.0174,0.35578 -0.0174,0.54065 0,0.97666 0.18835,1.92193 0.56157,2.8079 0.20929,0.50228 0.4709,0.97666 0.77785,1.39872 0.0627,0.0907 0.13254,0.18486 0.20579,0.27903 0.35229,0.45346 0.74296,0.85459 1.15455,1.18247 0.44299,0.36624 0.94178,0.68366 1.48592,0.94177 0.42554,0.20231 0.87551,0.36276 1.33942,0.48136 0.46741,0.1151 0.94178,0.18138 1.41615,0.20579 0.0942,0.5267 0.23719,1.03596 0.44299,1.53127 0.24766,0.59297 0.57205,1.14757 0.96271,1.64985 0.003,0.007 0.007,0.0175 0.014,0.0245 0.3488,0.44298 0.73947,0.84411 1.16152,1.18246 0.44996,0.36624 0.95225,0.68366 1.48592,0.93828 0.003,0 0.007,0 0.007,0.003 0.42554,0.20231 0.8755,0.36275 1.33243,0.47786 0.58251,0.1465 1.18246,0.21975 1.7859,0.21975 0.59994,0 1.1999,-0.0732 1.78589,-0.21975 0.4395,-0.11161 0.85806,-0.2616 1.25571,-0.44647 0.0523,0 0.10115,-0.0105 0.14998,-0.0349 0.53368,-0.25462 1.03596,-0.56855 1.48592,-0.9348 0.42206,-0.34183 0.81272,-0.73947 1.16153,-1.18245 0.0454,-0.0593 0.0697,-0.12907 0.0697,-0.20231 0.0523,-0.0732 0.10464,-0.14301 0.15347,-0.21626 0.2651,-0.38369 0.49531,-0.81272 0.69064,-1.28012 0.36625,-0.88946 0.55112,-1.83124 0.55112,-2.79395 0.007,-0.18486 0,-0.31741 -0.0105,-0.42206 z"
       id="path187" /><path
       style="fill:#ffffff;fill-opacity:1;stroke-width:0.348807"
       d="m -286.47038,259.85856 c 0.14301,0.24416 0.27555,0.50228 0.39415,0.78482 0.26161,0.62435 0.41857,1.2836 0.47438,1.97075 l -0.43252,0.36276 -1.72311,-1.08828 0.4988,-1.97424 z"
       id="path188" /><path
       d="m -284.8868,262.75714 c 0,-0.007 0.003,-0.0105 0.003,-0.014 -0.0454,-0.8197 -0.23021,-1.61847 -0.54763,-2.37538 -0.16045,-0.3802 -0.34183,-0.73598 -0.54065,-1.05339 -0.014,-0.021 -0.0314,-0.0384 -0.0454,-0.0558 -0.41508,-0.65575 -0.9348,-1.24524 -1.55219,-1.74403 -0.83365,-0.68367 -1.78241,-1.16153 -2.79395,-1.41267 -0.0175,-0.007 -0.0384,-0.0175 -0.0593,-0.0244 -0.45345,-0.11161 -0.92085,-0.17789 -1.38825,-0.20231 -0.0942,-0.53018 -0.24068,-1.03944 -0.44299,-1.51731 -0.16045,-0.3802 -0.34183,-0.73598 -0.54065,-1.05339 -0.18836,-0.30347 -0.40112,-0.59646 -0.63832,-0.87202 -0.2895,-0.34183 -0.61041,-0.65575 -0.95922,-0.93829 -0.83365,-0.68018 -1.7824,-1.15804 -2.80092,-1.41267 -0.014,-0.003 -0.0314,-0.0105 -0.0523,-0.014 v 0 c -1.16153,-0.28602 -2.35794,-0.28602 -3.48459,-0.003 -0.0314,0.003 -0.0558,0.0105 -0.0593,0.014 -0.73249,0.18138 -1.42661,0.47438 -2.05795,0.87202 -0.25115,0.14998 -0.49531,0.32439 -0.74645,0.53019 -0.0105,0.007 -0.021,0.014 -0.0314,0.0244 -0.62436,0.50926 -1.15456,1.11269 -1.5801,1.78938 -0.0558,0.0872 -0.10813,0.17789 -0.15696,0.2651 -0.15696,0.27206 -0.293,0.54414 -0.40113,0.80923 -0.293,0.71156 -0.47438,1.46847 -0.53368,2.25678 -0.0105,0.1744 -0.0174,0.35578 -0.0174,0.54065 0,0.97666 0.18835,1.92193 0.56157,2.8079 0.20929,0.50228 0.4709,0.97666 0.77785,1.39872 0.0627,0.0907 0.13254,0.18486 0.20579,0.27903 0.35229,0.45346 0.74296,0.85459 1.15455,1.18247 0.44299,0.36624 0.94178,0.68366 1.48592,0.94177 0.42554,0.20231 0.87551,0.36276 1.33942,0.48136 0.46741,0.1151 0.94178,0.18138 1.41615,0.20579 0.0942,0.5267 0.23719,1.03596 0.44299,1.53127 0.24766,0.59297 0.57205,1.14757 0.96271,1.64985 0.003,0.007 0.007,0.0175 0.014,0.0245 0.3488,0.44298 0.73947,0.84411 1.16152,1.18246 0.44996,0.36624 0.95225,0.68366 1.48592,0.93828 0.003,0 0.007,0 0.007,0.003 0.42554,0.20231 0.8755,0.36275 1.33243,0.47786 0.58251,0.1465 1.18246,0.21975 1.7859,0.21975 0.59994,0 1.1999,-0.0732 1.78589,-0.21975 0.4395,-0.11161 0.85806,-0.2616 1.25571,-0.44647 0.0523,0 0.10115,-0.0105 0.14998,-0.0349 0.53368,-0.25462 1.03596,-0.56855 1.48592,-0.9348 0.42206,-0.34183 0.81272,-0.73947 1.16153,-1.18245 0.0454,-0.0593 0.0697,-0.12907 0.0697,-0.20231 0.0523,-0.0732 0.10464,-0.14301 0.15347,-0.21626 0.2651,-0.38369 0.49531,-0.81272 0.69064,-1.28012 0.36625,-0.88946 0.55112,-1.83124 0.55112,-2.79395 0.007,-0.18486 0,-0.31741 -0.0105,-0.42206 z m -1.58358,-2.89858 c 0.14301,0.24416 0.27555,0.50228 0.39415,0.78482 0.26161,0.62435 0.41857,1.2836 0.47438,1.97075 l -0.43252,0.36276 -1.72311,-1.08828 0.4988,-1.97424 z m -0.4395,-0.66971 -0.64529,0.0419 c -0.14999,0.0105 -0.27905,0.1151 -0.31392,0.2616 l -0.57903,2.28469 -1.60102,0.55111 -1.77892,-1.29407 v -1.74404 l 1.91844,-1.39522 c 0.12209,-0.0872 0.1744,-0.24417 0.12557,-0.38718 l -0.18138,-0.55809 c 0.70808,0.25114 1.36383,0.61739 1.95681,1.10223 0.41508,0.33834 0.78133,0.71854 1.09874,1.13711 z m -4.25196,5.59835 h -2.04052 l -0.63134,-1.93937 1.64986,-1.19989 1.64986,1.19989 z m -3.13577,-2.46257 -1.47894,-0.54066 -0.57903,-2.28468 c -0.0384,-0.1465 -0.16393,-0.25114 -0.31392,-0.26161 l -0.77435,-0.0488 c 0.30695,-0.40113 0.65924,-0.77435 1.05689,-1.10223 0.0105,-0.007 0.021,-0.014 0.0314,-0.0244 0.58949,-0.48485 1.24873,-0.85458 1.96728,-1.10921 l -0.18138,0.55809 c -0.0454,0.14301 0.003,0.29998 0.12557,0.39066 l 1.91494,1.38826 v 1.75101 z m -4.43334,-0.0349 c 0.007,-0.0593 0.014,-0.1186 0.0244,-0.18138 0.0175,-0.1186 0.0419,-0.2337 0.0662,-0.34881 0.0105,-0.0453 0.0174,-0.0942 0.0314,-0.13952 0.0349,-0.14301 0.0732,-0.28253 0.11859,-0.42554 0.007,-0.0175 0.0105,-0.0384 0.0175,-0.0593 0.0523,-0.16394 0.11162,-0.32788 0.18138,-0.48833 0.0662,-0.15697 0.13953,-0.31742 0.21975,-0.47438 0.007,-0.0175 0.0175,-0.0349 0.0279,-0.0489 0.0488,-0.0907 0.10464,-0.18487 0.15697,-0.27556 l 0.92084,0.0593 0.4988,1.97076 -1.72311,1.08828 -0.56158,-0.4674 c 0.003,-0.0627 0.0105,-0.13603 0.021,-0.20929 z m 6.55409,-3.61015 -1.64986,-1.1999 0.24765,-0.76388 c 0.0558,-0.014 0.11162,-0.0279 0.16743,-0.0384 0.0697,-0.014 0.13604,-0.0245 0.20579,-0.0349 0.18487,-0.0279 0.36974,-0.0523 0.5581,-0.0662 0.0488,-0.003 0.0977,-0.007 0.14301,-0.007 0.21625,-0.0105 0.43252,-0.0105 0.64878,0 0.0349,0.003 0.0732,0.003 0.10813,0.007 0.24416,0.0175 0.49181,0.0454 0.73249,0.0872 0.0105,0.003 0.021,0.003 0.0314,0.003 0.0697,0.014 0.13953,0.0279 0.20929,0.0453 l 0.24416,0.76389 z m -1.21385,-5.00888 c 0.17789,0.28603 0.34532,0.60693 0.49181,0.95573 0.16743,0.39416 0.29301,0.81273 0.38021,1.24525 -0.48136,0.0209 -0.95922,0.0907 -1.41268,0.20579 -0.0105,0.003 -0.021,0.007 -0.0314,0.0105 0,0 -0.003,0 -0.007,0 -1.03246,0.25811 -1.97424,0.73249 -2.80091,1.40569 -0.0105,0.007 -0.021,0.014 -0.0314,0.021 -0.0349,0.0279 -0.0697,0.0627 -0.10464,0.0942 -0.77435,-0.22673 -1.56614,-0.32789 -2.35793,-0.29301 -0.17789,0.007 -0.35927,0.0244 -0.54065,0.0453 -0.14301,-0.11161 -0.27905,-0.22323 -0.41159,-0.34531 -0.4395,-0.40462 -0.81622,-0.86155 -1.12665,-1.36035 1.71613,-2.27771 4.66355,-3.34854 7.44703,-2.6893 0.18487,0.22673 0.35578,0.46042 0.50577,0.70459 z m -7.24124,-2.91602 c 0.014,0 0.0314,-0.003 0.0454,-0.007 1.03247,-0.26161 2.10331,-0.26509 3.17066,-0.003 0.0105,0.003 0.0175,0.003 0.0279,0.007 v 0 c 0.94178,0.23719 1.79984,0.66622 2.55327,1.28361 0.0349,0.0279 0.0627,0.0593 0.0977,0.0872 -2.64046,-0.27208 -5.28791,0.80573 -6.97613,2.87765 -0.5267,-1.09874 -0.73948,-2.33351 -0.61391,-3.54039 0.51973,-0.31044 1.08131,-0.54763 1.69521,-0.70459 z m -2.58117,1.31151 c 0.0105,-0.007 0.021,-0.014 0.0314,-0.0244 0.0419,-0.0349 0.0802,-0.0593 0.11859,-0.0907 -0.0314,1.3464 0.30695,2.69279 0.99061,3.86478 0.36625,0.63483 0.83016,1.21385 1.38128,1.71962 0.10813,0.0977 0.21626,0.19185 0.32787,0.28253 -0.3767,0.61041 -0.84759,1.1406 -1.39871,1.59754 -1.85216,-1.23826 -2.96834,-3.35204 -2.94393,-5.59486 0.0314,-0.0523 0.0593,-0.10465 0.0942,-0.15697 0.37671,-0.60343 0.8476,-1.1406 1.39872,-1.59753 z m -1.89751,7.63888 c -0.33486,-0.80225 -0.50577,-1.65684 -0.50577,-2.53932 0,-0.17092 0.007,-0.33834 0.0175,-0.49531 0.0384,-0.53018 0.13953,-1.04292 0.29998,-1.53824 0.32439,1.88706 1.37779,3.59621 2.94741,4.72286 -0.66272,0.436 -1.4022,0.75342 -2.17306,0.92782 -0.22324,-0.33485 -0.42555,-0.69413 -0.586,-1.07781 z m 1.93588,2.58815 c -0.32439,-0.25812 -0.62785,-0.56159 -0.91038,-0.89992 0.92084,-0.25115 1.79635,-0.68018 2.55675,-1.26618 0.73947,-0.56506 1.34989,-1.26267 1.82426,-2.06493 0.15348,-0.0209 0.30695,-0.0384 0.46391,-0.0454 0.58251,-0.0279 1.16851,0.0279 1.74055,0.15696 -0.32788,0.34532 -0.62088,0.71854 -0.87202,1.11967 -0.003,0.007 -0.0105,0.0105 -0.014,0.0175 -0.21975,0.35578 -0.40811,0.71854 -0.5546,1.07781 -0.22673,0.54414 -0.38369,1.1127 -0.47089,1.68823 -0.76041,0.50926 -1.62894,0.86155 -2.52537,1.01852 -0.44298,-0.23022 -0.86155,-0.49182 -1.23826,-0.80226 z m 2.55327,1.2871 c -0.0627,-0.014 -0.12208,-0.0384 -0.18487,-0.0558 0.45694,-0.14999 0.89992,-0.3488 1.32198,-0.58599 -0.003,0.0802 -0.0105,0.15696 -0.0105,0.24067 0,0.19533 0.014,0.39067 0.0279,0.58251 -0.38369,-0.0245 -0.77086,-0.0872 -1.15455,-0.18138 z m 1.83821,-0.18836 0.33834,0.28253 c 0.0627,0.0523 0.14301,0.0802 0.22324,0.0802 0.0662,0 0.12906,-0.0175 0.18486,-0.0523 l 2.00564,-1.26618 1.51034,0.55112 0.66971,2.05796 -0.86155,0.86156 -2.39631,-0.15697 c -0.15696,-0.007 -0.28951,0.0767 -0.34532,0.21975 l -0.30346,0.7604 c -0.20231,-0.31741 -0.3802,-0.64878 -0.5267,-0.99759 -0.31043,-0.74645 -0.47437,-1.53127 -0.49879,-2.3405 z m 3.61015,5.67858 c -0.0279,-0.014 -0.0558,-0.0279 -0.0872,-0.0453 -0.16395,-0.0872 -0.32091,-0.1779 -0.47787,-0.27556 -0.0489,-0.0314 -0.0942,-0.0628 -0.14301,-0.0977 -0.13604,-0.0907 -0.27208,-0.18835 -0.40113,-0.29299 -0.0244,-0.0175 -0.0489,-0.0349 -0.0732,-0.0558 -0.18836,-0.14998 -0.36625,-0.31393 -0.53716,-0.48833 -0.0175,-0.021 -0.0349,-0.0418 -0.0558,-0.0593 -0.1151,-0.11859 -0.22323,-0.24765 -0.33136,-0.37671 l 0.36973,-0.92434 2.03355,0.13255 0.50577,1.97076 z m 4.61124,0.51972 c -1.06038,0.2651 -2.18005,0.2651 -3.22996,0 -0.20231,-0.0523 -0.40462,-0.11162 -0.60344,-0.18487 l 0.62088,-0.39066 c 0.12906,-0.0802 0.18835,-0.2337 0.15348,-0.38369 l -0.57902,-2.25678 0.89294,-0.89294 h 2.25679 l 0.94874,0.94875 -0.56506,2.20097 c -0.0384,0.1465 0.0244,0.29998 0.15348,0.38369 l 0.59296,0.37323 c -0.20928,0.0767 -0.42205,0.14649 -0.64179,0.2023 z m 2.56721,-1.29407 c -0.35927,0.29648 -0.74644,0.55111 -1.15106,0.75691 l -0.77784,-0.48833 0.50577,-1.97076 2.03355,-0.13255 0.3488,0.87202 c -0.28253,0.34532 -0.60343,0.66971 -0.95922,0.96271 z m 1.4336,-1.65335 -0.27207,-0.68018 c -0.0558,-0.13952 -0.19533,-0.22672 -0.34532,-0.21975 l -2.46258,0.16395 -0.86504,-0.86504 0.66622,-2.04401 1.64288,-0.56507 2.00914,1.26966 c 0.0558,0.0349 0.12208,0.0523 0.18486,0.0523 0.0802,0 0.16045,-0.0279 0.22324,-0.0802 l 0.19882,-0.16742 c -0.0384,0.75691 -0.19533,1.4929 -0.48484,2.19399 -0.14301,0.33835 -0.31045,0.64878 -0.49531,0.94179 z"
       id="path1-56"
       style="fill:#cfb661;fill-opacity:1;stroke-width:0.348807" /></g></svg>
