<?xml version="1.0" encoding="UTF-8" standalone="no"?>
<svg
   version="1.1"
   viewBox="-5 -10 30.899993 30.900024"
   id="svg3"
   xml:space="preserve"
   width="30.899992"
   height="30.900024"
   xmlns="http://www.w3.org/2000/svg"
   xmlns:svg="http://www.w3.org/2000/svg"><defs
     id="defs3" /><circle
     style="fill:#0083f1;fill-opacity:1;stroke:#ffffff;stroke-width:0.9;stroke-linejoin:bevel;stroke-dasharray:none;stroke-opacity:1"
     id="circle210"
     cx="10.449999"
     cy="5.4500132"
     r="15" /><g
     id="g213"
     transform="matrix(1.0728639,0,0,1.0728639,272.27583,-393.69468)"><path
       style="fill:#ffffff;fill-opacity:1;stroke:#ffffff;stroke-width:0.304871;stroke-dasharray:none;stroke-opacity:1"
       d="m -237.67087,373.28314 c 0.41315,-0.41314 0.66772,-0.9831 0.66772,-1.61293 0,-0.62986 -0.25545,-1.19979 -0.66772,-1.61292 -0.41313,-0.41314 -0.98308,-0.66772 -1.61292,-0.66772 -0.62983,0 -1.19978,0.25546 -1.61292,0.66772 -0.41314,0.41313 -0.66771,0.98308 -0.66771,1.61292 0,0.62986 0.25546,1.19979 0.66771,1.61293 0.41314,0.41313 0.98309,0.66771 1.61292,0.66771 0.62986,7.5e-4 1.20068,-0.25458 1.61292,-0.66771 z"
       id="path213" /><path
       style="fill:#ffffff;fill-opacity:1;stroke:#ffffff;stroke-width:0.304871;stroke-dasharray:none;stroke-opacity:1"
       d="m -239.28379,373.5201 c 0.51092,0 0.9734,-0.20701 1.30815,-0.54174 0.33474,-0.33476 0.54174,-0.79724 0.54174,-1.30815 0,-0.51092 -0.20701,-0.9734 -0.54174,-1.30815 -0.33474,-0.33474 -0.79723,-0.54173 -1.30815,-0.54173 -0.51091,0 -0.97339,0.207 -1.30814,0.54173 -0.33475,0.33474 -0.54175,0.79723 -0.54175,1.30815 0,0.51091 0.20701,0.97339 0.54175,1.30815 0.33475,0.33475 0.79811,0.54174 1.30814,0.54174 z"
       id="path212" /><path
       style="fill:#ffffff;fill-opacity:1;stroke:#ffffff;stroke-width:0.304871;stroke-dasharray:none;stroke-opacity:1"
       d="m -241.09669,374.58864 -1.42003,-2.69464 c -0.0934,-0.17618 -0.14006,-0.36381 -0.13829,-0.55231 0.002,-0.18587 0.0511,-0.36998 0.14975,-0.54264 l 1.21476,-2.10534 c 0.0326,-0.0679 0.0995,-0.11628 0.17882,-0.12157 l 4.96305,-0.35147 c 0.20348,-0.0141 0.38319,-0.111 0.50916,-0.25459 0.12597,-0.14358 0.1982,-0.33299 0.18674,-0.53559 l -7.5e-4,-0.0115 c -0.0141,-0.19907 -0.1066,-0.37438 -0.24577,-0.49593 -0.13829,-0.12157 -0.32329,-0.19116 -0.52149,-0.18059 -1.93888,0.14183 -3.87947,0.27485 -5.81932,0.41138 -0.029,0.023 -0.0625,0.0388 -0.0987,0.0449 l -2.47092,4.21502 c -0.0185,0.0343 -0.0475,0.0643 -0.0846,0.0854 l -5.12158,2.86196 c 0.66156,0.53648 1.2782,0.78048 1.85519,0.76639 0.63601,-0.0159 1.24031,-0.34622 1.8173,-0.9461 0.005,-0.006 0.0115,-0.0124 0.0176,-0.0185 0.83598,-0.75229 1.62793,-1.09144 2.38366,-1.07382 0.75669,0.0185 1.45966,0.39464 2.11592,1.07557 0.17971,0.16296 0.35676,0.30392 0.52943,0.42372 z"
       id="path211" /><path
       style="fill:#ffffff;fill-opacity:1;stroke:#ffffff;stroke-width:0.304871;stroke-dasharray:none;stroke-opacity:1"
       d="m -254.25481,376.68608 c 0.74964,-0.67391 1.44203,-0.97958 2.0851,-0.96371 0.63864,0.0159 1.24471,0.34885 1.82433,0.95314 0.004,0.004 0.007,0.007 0.0114,0.0106 0.83597,0.75228 1.6288,1.09142 2.38366,1.07381 0.7567,-0.0185 1.45966,-0.39465 2.11592,-1.07558 0.74877,-0.67213 1.44027,-0.97691 2.08246,-0.96105 0.63865,0.0158 1.24471,0.34883 1.82434,0.95314 0.004,0.004 0.007,0.007 0.0114,0.0106 0.83598,0.75228 1.6288,1.09143 2.38366,1.07382 0.7567,-0.0185 1.45967,-0.39464 2.11593,-1.07557 0.68269,-0.614 1.31872,-0.92142 1.91244,-0.95755 0.58581,-0.0361 1.14254,0.19115 1.67548,0.64747 0.0898,0.0775 0.2264,0.0669 0.30304,-0.0238 0.0775,-0.0899 0.067,-0.22638 -0.0238,-0.30304 -0.61928,-0.53032 -1.27732,-0.79368 -1.98116,-0.75052 -0.69327,0.0431 -1.41826,0.38582 -2.17848,1.07029 -0.006,0.005 -0.0124,0.0115 -0.0176,0.0185 -0.57699,0.599 -1.18217,0.93024 -1.8173,0.94609 -0.64219,0.0159 -1.33457,-0.28893 -2.08246,-0.96106 -0.65629,-0.68094 -1.35922,-1.05796 -2.11592,-1.07558 -0.75494,-0.0185 -1.54776,0.32153 -2.38365,1.07382 -0.006,0.005 -0.0124,0.0114 -0.0176,0.0185 -0.577,0.599 -1.18218,0.93024 -1.81731,0.94609 -0.64219,0.0158 -1.33457,-0.28893 -2.08246,-0.96107 -0.65628,-0.68092 -1.35922,-1.05797 -2.11592,-1.07557 -0.75495,-0.0185 -1.54775,0.32153 -2.38366,1.07381 -0.0881,0.0793 -0.096,0.21583 -0.0158,0.30392 0.0793,0.0828 0.21494,0.0899 0.30392,0.0106 z"
       id="path210" /><path
       style="fill:#ffffff;fill-opacity:1;stroke:#ffffff;stroke-width:0.304871;stroke-dasharray:none;stroke-opacity:1"
       d="m -250.15254,374.05661 5.19916,-2.90435 2.52821,-4.312 c 0.0449,-0.0775 0.13213,-0.1154 0.21581,-0.10395 0.006,-7.6e-4 0.0114,-0.002 0.0176,-0.002 v -7.6e-4 l 5.93117,-0.41932 0.0193,-7.5e-4 c 0.31447,-0.0168 0.60693,0.0934 0.82717,0.28629 0.22199,0.19467 0.36997,0.47305 0.39201,0.78929 l 7.5e-4,0.0193 c 0.0176,0.31802 -0.096,0.61664 -0.29334,0.84128 -0.19908,0.22638 -0.48185,0.3779 -0.8025,0.40079 l -4.8494,0.34267 -1.16543,2.01989 c -0.0616,0.1066 -0.0916,0.21935 -0.0925,0.33212 -7.6e-4,0.1154 0.0299,0.23433 0.0899,0.34796 l 1.72217,3.26811 c 0.29949,0.11892 0.58932,0.17354 0.86945,0.16649 0.63601,-0.0159 1.24031,-0.3462 1.8173,-0.94609 0.005,-0.006 0.0114,-0.0124 0.0176,-0.0185 0.76022,-0.68447 1.4852,-1.02713 2.17848,-1.07029 0.70297,-0.0431 1.36101,0.22022 1.98116,0.75052 0.0898,0.0775 0.10043,0.21318 0.0238,0.30305 -0.0775,0.0899 -0.21317,0.10042 -0.30304,0.0238 -0.53295,-0.45629 -1.09055,-0.68357 -1.67548,-0.64746 -0.59372,0.037 -1.22973,0.34354 -1.91244,0.95755 -0.65629,0.68093 -1.35923,1.05796 -2.11592,1.07556 -0.36294,0.009 -0.73468,-0.0652 -1.11611,-0.22814 l -0.002,-7.6e-4 c -0.4105,-0.17618 -0.83246,-0.45454 -1.26498,-0.84479 -0.004,-0.004 -0.008,-0.007 -0.0114,-0.0106 -0.57963,-0.60431 -1.1857,-0.93727 -1.82434,-0.95314 -0.64219,-0.0159 -1.33458,0.28892 -2.08246,0.96105 -0.65629,0.68094 -1.35922,1.05796 -2.11593,1.07558 -0.75493,0.0185 -1.54775,-0.32153 -2.38364,-1.07382 -0.004,-0.004 -0.008,-0.007 -0.0114,-0.0106 -0.57964,-0.60431 -1.1857,-0.93727 -1.82434,-0.95314 -0.64308,-0.0159 -1.33635,0.28982 -2.0851,0.96369 -0.0881,0.0793 -0.22464,0.0722 -0.30392,-0.0158 -0.0793,-0.0881 -0.0722,-0.22463 0.0158,-0.30392 0.83597,-0.75228 1.6288,-1.09143 2.38365,-1.07381 0.71354,0.0202 1.38038,0.35763 2.00581,0.96899 z"
       id="path1-88" /></g></svg>
